<svg width="32" height="32" viewBox="0 0 32 32" fill="none" xmlns="http://www.w3.org/2000/svg">
<path fill-rule="evenodd" clip-rule="evenodd" d="M16.3398 6.5C13.9926 6.5 12.0898 8.40279 12.0898 10.75C12.0898 13.0972 13.9926 15 16.3398 15C18.6871 15 20.5898 13.0972 20.5898 10.75C20.5898 8.40279 18.6871 6.5 16.3398 6.5ZM10.5898 10.75C10.5898 7.57436 13.1642 5 16.3398 5C19.5155 5 22.0898 7.57436 22.0898 10.75C22.0898 13.9256 19.5155 16.5 16.3398 16.5C13.1642 16.5 10.5898 13.9256 10.5898 10.75Z" fill="#52504A"/>
<path fill-rule="evenodd" clip-rule="evenodd" d="M7 25.75C7 21.3291 11.3371 18 16.34 18C21.3429 18 25.68 21.3291 25.68 25.75C25.68 26.1642 25.3442 26.5 24.93 26.5C24.5158 26.5 24.18 26.1642 24.18 25.75C24.18 22.4309 20.8171 19.5 16.34 19.5C11.8629 19.5 8.5 22.4309 8.5 25.75C8.5 26.1642 8.16421 26.5 7.75 26.5C7.33579 26.5 7 26.1642 7 25.75Z" fill="#52504A"/>
</svg>
