<svg width="140" height="40" viewBox="0 0 140 40" fill="none" xmlns="http://www.w3.org/2000/svg">
<path d="M134.815 40H5.18519C2.33337 40 0 37.75 0 35V5.00002C0 2.25 2.33332 0 5.18519 0H134.815C137.667 0 140 2.25 140 5.00002V35C140 37.75 137.667 40 134.815 40Z" fill="black"/>
<path d="M134.815 0H5.18519C2.33337 0 0 2.25 0 5.00002V35C0 37.75 2.33332 40 5.18519 40H134.815C137.667 40 140 37.75 140 35V5.00002C140 2.25 137.667 0 134.815 0H134.815ZM134.815 0.799975C137.217 0.799975 139.17 2.68441 139.17 5.00002V35C139.17 37.316 137.217 39.2004 134.815 39.2004H5.18519C2.78385 39.2004 0.829638 37.316 0.829638 35V5.00002C0.829638 2.68441 2.78381 0.80002 5.18519 0.80002H134.815" fill="#A6A6A6"/>
<path d="M34.8276 18.8638C34.8384 18.0291 35.0605 17.2108 35.4734 16.4848C35.8863 15.7589 36.4764 15.149 37.1889 14.7118C36.7363 14.0666 36.1391 13.5357 35.4449 13.1611C34.7507 12.7866 33.9785 12.5787 33.1897 12.5541C31.5069 12.3778 29.8757 13.5589 29.0182 13.5589C28.1442 13.5589 26.824 12.5716 25.4024 12.6008C24.4828 12.6304 23.5867 12.8973 22.8012 13.3753C22.0157 13.8533 21.3677 14.5263 20.9203 15.3286C18.9823 18.6771 20.4279 23.5981 22.2843 26.3047C23.2131 27.63 24.2985 29.1104 25.7189 29.0579C27.1088 29.0004 27.6278 28.1734 29.3057 28.1734C30.9678 28.1734 31.4548 29.0579 32.904 29.0245C34.3954 29.0004 35.335 27.6933 36.2313 26.3555C36.8986 25.4111 37.4121 24.3674 37.7528 23.263C36.8863 22.8972 36.1469 22.285 35.6267 21.5027C35.1065 20.7204 34.8286 19.8026 34.8276 18.8638ZM32.0904 10.774C32.9036 9.79979 33.3042 8.54762 33.2072 7.2834C31.9648 7.41362 30.8172 8.00617 29.9931 8.943C29.5901 9.40066 29.2815 9.9331 29.0848 10.5099C28.8882 11.0866 28.8074 11.6964 28.847 12.3044C29.4684 12.3108 30.0832 12.1764 30.645 11.9113C31.2068 11.6462 31.701 11.2573 32.0904 10.774ZM52.3968 25.7028H47.6538L46.5147 29.0591H44.5056L48.9983 16.6412H51.0855L55.5781 29.0591H53.5348L52.3968 25.7028ZM48.145 24.1539H51.9046L50.0512 18.7067H49.9993L48.145 24.1539ZM65.2805 24.5329C65.2805 27.3463 63.7715 29.1538 61.4945 29.1538C60.9176 29.184 60.3439 29.0514 59.8391 28.7712C59.3343 28.4911 58.9187 28.0747 58.6399 27.5699H58.5969V32.0542H56.7347V20.0055H58.5372V21.5114H58.5715C58.8631 21.0089 59.2856 20.5947 59.7943 20.3129C60.303 20.031 60.8787 19.8921 61.4602 19.9108C63.7627 19.9108 65.2805 21.7272 65.2805 24.5328V24.5329ZM63.3664 24.5329C63.3664 22.6999 62.4172 21.4948 60.969 21.4948C59.5461 21.4948 58.5891 22.7252 58.5891 24.5328C58.5891 26.3571 59.5461 27.5788 60.969 27.5788C62.4172 27.5788 63.3664 26.3825 63.3664 24.5328V24.5329ZM75.2656 24.5329C75.2656 27.3463 73.7568 29.1538 71.4796 29.1538C70.9028 29.184 70.3291 29.0513 69.8243 28.7712C69.3195 28.4911 68.9039 28.0747 68.6252 27.5699H68.5821V32.0542H66.7199V20.0055H68.5224V21.5114H68.5567C68.8482 21.0089 69.2708 20.5947 69.7795 20.3129C70.2881 20.031 70.8638 19.8921 71.4454 19.9108C73.7479 19.9108 75.2656 21.7272 75.2656 24.5328V24.5329ZM73.3516 24.5329C73.3516 22.6999 72.4024 21.4948 70.9542 21.4948C69.5312 21.4948 68.5743 22.7252 68.5743 24.5328C68.5743 26.3571 69.5312 27.5788 70.9542 27.5788C72.4024 27.5788 73.3516 26.3825 73.3516 24.5328V24.5329ZM81.8651 25.5993C82.0031 26.8307 83.2018 27.6392 84.8399 27.6392C86.4095 27.6392 87.5388 26.8307 87.5388 25.7203C87.5388 24.7564 86.8577 24.1793 85.2451 23.7838L83.6323 23.3961C81.3474 22.8453 80.2867 21.7789 80.2867 20.0484C80.2867 17.9058 82.1577 16.4342 84.8144 16.4342C87.4438 16.4342 89.2463 17.9058 89.307 20.0484H87.4271C87.3146 18.8092 86.2881 18.0611 84.788 18.0611C83.2879 18.0611 82.2614 18.818 82.2614 19.9195C82.2614 20.7975 82.917 21.3141 84.5208 21.7095L85.8918 22.0455C88.4448 22.648 89.5057 23.6715 89.5057 25.4878C89.5057 27.8111 87.6513 29.2661 84.7019 29.2661C81.9422 29.2661 80.0792 27.8451 79.9588 25.5992L81.8651 25.5993ZM93.5246 17.863V20.0055H95.2498V21.4772H93.5246V26.4684C93.5246 27.2437 93.87 27.6051 94.6284 27.6051C94.8332 27.6015 95.0377 27.5871 95.241 27.562V29.025C94.9 29.0886 94.5534 29.1173 94.2066 29.1108C92.3699 29.1108 91.6535 28.4224 91.6535 26.6666V21.4772H90.3344V20.0055H91.6535V17.863H93.5246ZM96.2489 24.5329C96.2489 21.6842 97.93 19.8942 100.552 19.8942C103.182 19.8942 104.855 21.6842 104.855 24.5329C104.855 27.3892 103.191 29.1714 100.552 29.1714C97.9134 29.1714 96.2489 27.3892 96.2489 24.5329ZM102.958 24.5329C102.958 22.5788 102.061 21.4254 100.552 21.4254C99.0427 21.4254 98.1463 22.5875 98.1463 24.5329C98.1463 26.4948 99.0427 27.6392 100.552 27.6392C102.061 27.6392 102.958 26.4948 102.958 24.5329ZM106.391 20.0055H108.167V21.5465H108.21C108.33 21.0652 108.613 20.6398 109.01 20.342C109.407 20.0441 109.895 19.8918 110.392 19.9108C110.607 19.91 110.821 19.9333 111.03 19.9801V21.7184C110.759 21.6357 110.477 21.5978 110.193 21.6061C109.923 21.5951 109.653 21.6427 109.403 21.7456C109.152 21.8485 108.927 22.0042 108.743 22.2021C108.559 22.4 108.419 22.6354 108.335 22.892C108.25 23.1487 108.222 23.4206 108.253 23.6891V29.0591H106.391V20.0055ZM119.616 26.4C119.365 28.0435 117.761 29.1714 115.709 29.1714C113.07 29.1714 111.432 27.4069 111.432 24.5758C111.432 21.736 113.079 19.8942 115.631 19.8942C118.141 19.8942 119.72 21.6149 119.72 24.36V24.9967H113.312V25.109C113.282 25.4422 113.324 25.7778 113.435 26.0937C113.545 26.4095 113.721 26.6983 113.952 26.9408C114.183 27.1834 114.463 27.3742 114.773 27.5005C115.084 27.6268 115.418 27.6857 115.752 27.6735C116.193 27.7146 116.634 27.6129 117.012 27.3835C117.389 27.154 117.682 26.8091 117.848 26.4H119.616ZM113.321 23.6979H117.856C117.873 23.3983 117.828 23.0984 117.723 22.8172C117.618 22.536 117.456 22.2795 117.247 22.0637C117.038 21.8479 116.787 21.6776 116.508 21.5634C116.23 21.4492 115.932 21.3935 115.631 21.4C115.328 21.3982 115.027 21.4563 114.747 21.5711C114.466 21.6858 114.211 21.8549 113.996 22.0685C113.781 22.2822 113.611 22.5361 113.495 22.8158C113.379 23.0954 113.32 23.3952 113.321 23.6979ZM47.9116 7.2941C48.302 7.26613 48.6938 7.32499 49.0586 7.46643C49.4235 7.60786 49.7523 7.82835 50.0215 8.11198C50.2906 8.39561 50.4933 8.73532 50.615 9.1066C50.7366 9.47788 50.7742 9.87147 50.7249 10.259C50.7249 12.1652 49.6925 13.261 47.9116 13.261H45.7519V7.294L47.9116 7.2941ZM46.6806 12.4171H47.8079C48.0868 12.4337 48.366 12.3881 48.6251 12.2834C48.8841 12.1788 49.1165 12.0179 49.3054 11.8123C49.4943 11.6067 49.6348 11.3617 49.7169 11.0951C49.7989 10.8285 49.8203 10.547 49.7796 10.2711C49.8174 9.99626 49.7938 9.7165 49.7105 9.45184C49.6272 9.18718 49.4863 8.94418 49.2979 8.74025C49.1094 8.53632 48.8781 8.37651 48.6205 8.27227C48.3629 8.16803 48.0854 8.12194 47.8079 8.1373H46.6806V12.4171ZM51.774 11.0075C51.7456 10.7116 51.7795 10.413 51.8735 10.1309C51.9675 9.84886 52.1196 9.58952 52.32 9.36953C52.5203 9.14955 52.7645 8.97378 53.0369 8.8535C53.3093 8.73323 53.6039 8.6711 53.9018 8.6711C54.1997 8.6711 54.4943 8.73323 54.7667 8.8535C55.0391 8.97378 55.2833 9.14955 55.4836 9.36953C55.684 9.58952 55.836 9.84886 55.9301 10.1309C56.0241 10.413 56.058 10.7116 56.0296 11.0075C56.0586 11.3038 56.0252 11.6028 55.9314 11.8854C55.8377 12.168 55.6857 12.4279 55.4853 12.6483C55.2849 12.8688 55.0405 13.045 54.7678 13.1656C54.4951 13.2862 54.2001 13.3484 53.9018 13.3484C53.6035 13.3484 53.3085 13.2862 53.0358 13.1656C52.7631 13.045 52.5187 12.8688 52.3183 12.6483C52.1179 12.4279 51.9659 12.168 51.8722 11.8854C51.7784 11.6028 51.745 11.3038 51.774 11.0075ZM55.1138 11.0075C55.1138 10.0314 54.6744 9.46059 53.9033 9.46059C53.1292 9.46059 52.6938 10.0314 52.6938 11.0075C52.6938 11.9914 53.1293 12.5578 53.9033 12.5578C54.6744 12.5578 55.1138 11.9875 55.1138 11.0075ZM61.6868 13.2609H60.7629L59.8304 9.94449H59.7599L58.8313 13.2609H57.9164L56.6726 8.75789H57.5758L58.3841 12.1939H58.4507L59.3784 8.75789H60.2326L61.1603 12.1939H61.2307L62.0351 8.75789H62.9256L61.6868 13.2609ZM63.9716 8.758H64.8289V9.47329H64.8954C65.0083 9.21636 65.1987 9.00097 65.4401 8.85715C65.6814 8.71334 65.9618 8.64826 66.2419 8.671C66.4615 8.65453 66.6819 8.68757 66.887 8.76767C67.092 8.84776 67.2763 8.97287 67.4263 9.13371C67.5763 9.29455 67.6881 9.48701 67.7534 9.69683C67.8187 9.90664 67.8359 10.1284 67.8037 10.3458V13.2608H66.9132V10.569C66.9132 9.84539 66.5981 9.48549 65.9395 9.48549C65.7905 9.47858 65.6417 9.5039 65.5033 9.55973C65.365 9.61557 65.2404 9.70059 65.1381 9.80897C65.0357 9.91735 64.9581 10.0465 64.9105 10.1877C64.8629 10.3288 64.8464 10.4785 64.8621 10.6266V13.2609H63.9716V8.758ZM69.2226 7.0001H70.113V13.2609H69.2226V7.0001ZM71.351 11.0075C71.3226 10.7115 71.3565 10.4129 71.4505 10.1308C71.5446 9.84871 71.6967 9.58933 71.897 9.36931C72.0974 9.1493 72.3417 8.97351 72.6141 8.85321C72.8866 8.73292 73.1812 8.67078 73.4791 8.67078C73.777 8.67078 74.0716 8.73292 74.3441 8.85321C74.6165 8.97351 74.8608 9.1493 75.0611 9.36931C75.2615 9.58933 75.4136 9.84871 75.5077 10.1308C75.6017 10.4129 75.6356 10.7115 75.6072 11.0075C75.6361 11.3037 75.6025 11.6027 75.5087 11.8852C75.4148 12.1677 75.2628 12.4275 75.0624 12.6478C74.862 12.8682 74.6176 13.0443 74.3449 13.1649C74.0722 13.2854 73.7773 13.3476 73.4791 13.3476C73.1809 13.3476 72.886 13.2854 72.6133 13.1649C72.3406 13.0443 72.0962 12.8682 71.8958 12.6478C71.6954 12.4275 71.5434 12.1677 71.4495 11.8852C71.3557 11.6027 71.3221 11.3037 71.351 11.0075ZM74.6908 11.0075C74.6908 10.0314 74.2514 9.46059 73.4803 9.46059C72.7062 9.46059 72.2708 10.0314 72.2708 11.0075C72.2708 11.9914 72.7063 12.5578 73.4803 12.5578C74.2514 12.5578 74.6908 11.9875 74.6908 11.0075ZM76.5446 11.9875C76.5446 11.1769 77.1494 10.7096 78.2229 10.6432L79.4451 10.5729V10.1842C79.4451 9.70859 79.13 9.44009 78.5214 9.44009C78.0243 9.44009 77.6798 9.62219 77.581 9.94059H76.7188C76.8098 9.16709 77.5389 8.6711 78.5625 8.6711C79.6937 8.6711 80.3317 9.23309 80.3317 10.1842V13.2609H79.4744V12.6281H79.404C79.261 12.8551 79.0602 13.0401 78.8221 13.1643C78.584 13.2885 78.3171 13.3475 78.0487 13.3351C77.8593 13.3547 77.6679 13.3346 77.4867 13.2759C77.3056 13.2172 77.1388 13.1213 76.9971 12.9943C76.8554 12.8673 76.7419 12.7121 76.664 12.5387C76.5861 12.3653 76.5454 12.1775 76.5446 11.9875ZM79.4451 11.6027V11.2262L78.3432 11.2965C77.7218 11.338 77.44 11.549 77.44 11.9459C77.44 12.3512 77.7923 12.5871 78.2767 12.5871C78.4186 12.6014 78.562 12.5871 78.6983 12.545C78.8346 12.5029 78.961 12.4339 79.07 12.3421C79.179 12.2502 79.2684 12.1374 79.3328 12.0104C79.3973 11.8834 79.4354 11.7447 79.4451 11.6027ZM81.502 11.0075C81.502 9.58459 82.2349 8.6833 83.375 8.6833C83.657 8.67032 83.9368 8.73772 84.1819 8.87762C84.4269 9.01751 84.627 9.22412 84.7587 9.47329H84.8252V7H85.7156V13.2608H84.8624V12.5493H84.792C84.6501 12.7968 84.4431 13.0008 84.1933 13.1393C83.9436 13.2778 83.6606 13.3455 83.3751 13.335C82.2271 13.335 81.502 12.4336 81.502 11.0074V11.0075ZM82.4219 11.0075C82.4219 11.9625 82.873 12.5373 83.6274 12.5373C84.3779 12.5373 84.8419 11.9543 84.8419 11.0113C84.8419 10.0729 84.3731 9.48159 83.6274 9.48159C82.8779 9.48159 82.4219 10.0602 82.4219 11.0075ZM89.4 11.0075C89.3716 10.7116 89.4055 10.413 89.4995 10.1309C89.5935 9.84886 89.7456 9.58952 89.946 9.36953C90.1463 9.14955 90.3905 8.97378 90.6629 8.8535C90.9353 8.73323 91.2299 8.6711 91.5278 8.6711C91.8257 8.6711 92.1203 8.73323 92.3927 8.8535C92.6651 8.97378 92.9093 9.14955 93.1096 9.36953C93.31 9.58952 93.462 9.84886 93.5561 10.1309C93.6501 10.413 93.684 10.7116 93.6556 11.0075C93.6846 11.3038 93.6512 11.6028 93.5574 11.8854C93.4637 12.168 93.3117 12.4279 93.1113 12.6483C92.9109 12.8688 92.6665 13.045 92.3938 13.1656C92.121 13.2862 91.8261 13.3484 91.5278 13.3484C91.2295 13.3484 90.9345 13.2862 90.6618 13.1656C90.3891 13.045 90.1447 12.8688 89.9443 12.6483C89.7439 12.4279 89.5919 12.168 89.4982 11.8854C89.4044 11.6028 89.371 11.3038 89.4 11.0075ZM92.7398 11.0075C92.7398 10.0314 92.3004 9.46059 91.5293 9.46059C90.7552 9.46059 90.3198 10.0314 90.3198 11.0075C90.3198 11.9914 90.7553 12.5578 91.5293 12.5578C92.3004 12.5578 92.7398 11.9875 92.7398 11.0075ZM94.8505 8.758H95.7077V9.47329H95.7742C95.8871 9.21636 96.0775 9.00097 96.3189 8.85715C96.5603 8.71334 96.8406 8.64826 97.1208 8.671C97.3403 8.65453 97.5608 8.68757 97.7658 8.76767C97.9708 8.84776 98.1551 8.97287 98.3051 9.13371C98.4551 9.29455 98.5669 9.48701 98.6322 9.69683C98.6976 9.90664 98.7148 10.1284 98.6826 10.3458V13.2608H97.7921V10.569C97.7921 9.84539 97.4769 9.48549 96.8184 9.48549C96.6693 9.47858 96.5205 9.5039 96.3822 9.55973C96.2439 9.61557 96.1192 9.70059 96.0169 9.80897C95.9146 9.91735 95.837 10.0465 95.7893 10.1877C95.7417 10.3288 95.7252 10.4785 95.741 10.6266V13.2609H94.8506L94.8505 8.758ZM103.714 7.6369V8.7785H104.692V9.52699H103.714V11.8424C103.714 12.3141 103.909 12.5207 104.352 12.5207C104.466 12.5203 104.579 12.5134 104.692 12.5001V13.2404C104.532 13.2689 104.37 13.2841 104.207 13.2858C103.217 13.2858 102.823 12.9381 102.823 12.07V9.52699H102.107V8.7784H102.823V7.637L103.714 7.6369ZM105.908 7.0001H106.791V9.48159H106.861C106.98 9.22226 107.175 9.00566 107.422 8.8613C107.668 8.71694 107.953 8.65185 108.237 8.6749C108.456 8.66303 108.674 8.69942 108.877 8.78147C109.079 8.86351 109.261 8.98919 109.41 9.14954C109.558 9.30989 109.669 9.50095 109.735 9.7091C109.801 9.91725 109.82 10.1373 109.791 10.3537V13.2609H108.9V10.5729C108.9 9.85359 108.564 9.48939 107.935 9.48939C107.782 9.47688 107.628 9.49788 107.484 9.55094C107.34 9.60399 107.209 9.68782 107.101 9.79656C106.993 9.90529 106.909 10.0363 106.857 10.1804C106.805 10.3246 106.785 10.4783 106.799 10.631V13.2609H105.908V7.0001ZM114.983 12.045C114.862 12.4565 114.6 12.8125 114.243 13.0507C113.885 13.2889 113.455 13.394 113.028 13.3478C112.731 13.3556 112.436 13.2988 112.162 13.1813C111.889 13.0638 111.645 12.8883 111.447 12.6672C111.249 12.4461 111.101 12.1845 111.014 11.9007C110.927 11.6169 110.903 11.3176 110.944 11.0236C110.904 10.7287 110.929 10.4288 111.015 10.1441C111.102 9.85938 111.249 9.5966 111.446 9.37352C111.643 9.15044 111.886 8.97226 112.159 8.85106C112.431 8.72985 112.726 8.66844 113.024 8.671C114.28 8.671 115.037 9.52699 115.037 10.941V11.2511H111.851V11.3009C111.837 11.4661 111.858 11.6325 111.912 11.7892C111.966 11.946 112.053 12.0897 112.166 12.2111C112.279 12.3326 112.416 12.4291 112.569 12.4945C112.722 12.5599 112.887 12.5927 113.053 12.5909C113.266 12.6164 113.481 12.5781 113.673 12.4809C113.864 12.3837 114.022 12.232 114.126 12.045H114.983ZM111.851 10.5939H114.13C114.141 10.4428 114.121 10.291 114.07 10.1483C114.019 10.0055 113.938 9.87506 113.834 9.7652C113.729 9.65535 113.602 9.56854 113.462 9.51036C113.322 9.45219 113.171 9.42392 113.019 9.42739C112.865 9.42546 112.713 9.45431 112.57 9.51226C112.427 9.5702 112.298 9.65606 112.189 9.76477C112.08 9.87349 111.994 10.0029 111.936 10.1453C111.878 10.2876 111.849 10.4402 111.851 10.5939Z" fill="white"/>
</svg>
