<svg width="375" height="812" viewBox="0 0 375 812" fill="none" xmlns="http://www.w3.org/2000/svg">
<mask id="mask0_382_19148" style="mask-type:alpha" maskUnits="userSpaceOnUse" x="0" y="0" width="375" height="812">
<rect x="0.5" y="0.5" width="374" height="811" fill="#1D1D1D" stroke="#252424"/>
</mask>
<g mask="url(#mask0_382_19148)">
<g filter="url(#filter0_b_382_19148)">
<rect width="375" height="812" fill="#1D1D1D"/>
<rect x="0.5" y="0.5" width="374" height="811" stroke="#252424"/>
</g>
<g opacity="0.05" filter="url(#filter1_f_382_19148)">
<path d="M460.53 889.447C316.35 889.447 199.469 772.566 199.469 628.386L199.469 589.381C199.469 445.201 316.35 328.32 460.53 328.32C604.71 328.32 721.591 445.201 721.591 589.381L721.591 628.386C721.591 772.566 604.71 889.447 460.53 889.447Z" fill="#CFAF0A"/>
</g>
<g opacity="0.2">
<g opacity="0.6">
<g filter="url(#filter2_f_382_19148)">
<path d="M-10.0221 264.4C-45.2261 264.4 -73.7646 292.939 -73.7646 328.143L-73.7646 337.848C-73.7646 373.052 -45.2261 401.59 -10.0221 401.59C25.182 401.59 53.7205 373.052 53.7205 337.848L53.7205 328.143C53.7205 292.939 25.182 264.4 -10.0221 264.4Z" fill="#FF7262"/>
</g>
<g filter="url(#filter3_f_382_19148)">
<path d="M56.4043 544.954C20.8348 544.954 -8 516.119 -8 480.55L-8 470.404C-8 434.834 20.8348 406 56.4043 406C91.9738 406 120.809 434.834 120.809 470.404L120.809 480.55C120.809 516.119 91.9738 544.954 56.4043 544.954Z" fill="#1ABCFE"/>
</g>
<g filter="url(#filter4_f_382_19148)">
<path d="M95.1855 401.589C59.616 401.589 30.7813 372.754 30.7813 337.185L30.7813 327.039C30.7813 291.469 59.616 262.634 95.1855 262.634C130.755 262.634 159.59 291.469 159.59 327.039L159.59 337.185C159.59 372.754 130.755 401.589 95.1855 401.589Z" fill="#A259FF"/>
</g>
<g filter="url(#filter5_f_382_19148)">
<path d="M-115.01 401.589C-150.701 401.589 -179.635 372.655 -179.635 336.964L-179.635 327.259C-179.635 291.568 -150.701 262.634 -115.01 262.634C-79.3186 262.634 -50.3851 291.568 -50.3851 327.259L-50.3851 336.964C-50.3851 372.655 -79.3186 401.589 -115.01 401.589Z" fill="#F24E1E"/>
</g>
<g filter="url(#filter6_f_382_19148)">
<path d="M258.625 475.954C222.934 475.954 194 447.021 194 411.329L194 401.625C194 365.933 222.934 337 258.625 337C294.316 337 323.25 365.933 323.25 401.625L323.25 411.329C323.25 447.021 294.316 475.954 258.625 475.954Z" fill="#0ACFCF"/>
</g>
<g filter="url(#filter7_f_382_19148)">
<path d="M277.783 96.4619C196.717 96.4619 131 30.745 131 -50.3208L131 -72.2186C131 -153.284 196.717 -219.001 277.783 -219.001C358.849 -219.001 424.566 -153.284 424.566 -72.2186L424.566 -50.3209C424.566 30.745 358.849 96.4619 277.783 96.4619Z" fill="#FFBC0F"/>
</g>
</g>
</g>
<g opacity="0.2">
<path d="M345.174 642.132C243.329 551.13 81.3382 565.577 -16.6436 674.401C-114.625 783.225 -111.494 945.216 -9.64916 1036.22C92.1955 1127.22 254.187 1112.77 352.168 1003.95C450.15 895.126 447.019 733.135 345.174 642.132Z" stroke="white" stroke-width="0.4474" stroke-miterlimit="10"/>
<path d="M307.166 646.411C210.111 559.688 55.7388 573.456 -37.6345 677.162C-131.008 780.867 -128.024 935.24 -30.9691 1021.96C66.0854 1108.68 220.458 1094.92 313.831 991.211C407.204 887.505 404.22 733.133 307.166 646.411Z" stroke="white" stroke-width="0.4263" stroke-miterlimit="10"/>
<path d="M269.16 650.687C176.895 568.244 30.1409 581.333 -58.6245 679.92C-147.39 778.508 -144.553 925.262 -52.288 1007.7C39.9769 1090.15 186.731 1077.06 275.496 978.471C364.262 879.884 361.425 733.13 269.16 650.687Z" stroke="white" stroke-width="0.4053" stroke-miterlimit="10"/>
<path d="M231.153 654.963C143.678 576.8 4.54195 589.209 -79.6156 682.679C-163.773 776.149 -161.083 915.285 -73.608 993.448C13.8674 1071.61 153.003 1059.2 237.161 965.732C321.318 872.262 318.629 733.126 231.153 654.963Z" stroke="white" stroke-width="0.3843" stroke-miterlimit="10"/>
<path d="M193.149 659.241C110.463 585.357 -21.0549 597.087 -100.605 685.439C-180.154 773.791 -177.612 905.309 -94.9259 979.192C-12.2401 1053.08 119.278 1041.35 198.827 952.994C278.377 864.642 275.835 733.124 193.149 659.241Z" stroke="white" stroke-width="0.3632" stroke-miterlimit="10"/>
<path d="M155.141 663.519C77.2455 593.916 -46.6532 604.966 -121.594 688.2C-196.536 771.434 -194.14 895.332 -116.245 964.935C-38.3491 1034.54 85.5497 1023.49 160.491 940.255C235.432 857.021 233.037 733.122 155.141 663.519Z" stroke="white" stroke-width="0.3422" stroke-miterlimit="10"/>
<path d="M117.135 667.795C44.0285 602.472 -72.2521 612.842 -142.585 690.959C-212.919 769.075 -210.671 885.355 -137.565 950.679C-64.4586 1016 51.8221 1005.63 122.155 927.515C192.489 849.399 190.241 733.119 117.135 667.795Z" stroke="white" stroke-width="0.3211" stroke-miterlimit="10"/>
<path d="M79.129 672.071C10.8124 611.027 -97.8501 620.718 -163.576 693.716C-229.301 766.715 -227.2 875.377 -158.884 936.421C-90.5671 997.464 18.0954 987.773 83.8208 914.775C149.546 841.777 147.446 733.114 79.129 672.071Z" stroke="white" stroke-width="0.3001" stroke-miterlimit="10"/>
<path d="M41.1224 676.35C-22.4041 619.587 -123.448 628.598 -184.565 696.478C-245.681 764.358 -243.728 865.401 -180.202 922.165C-116.675 978.928 -15.6317 969.917 45.4853 902.037C106.602 834.157 104.649 733.114 41.1224 676.35Z" stroke="white" stroke-width="0.2791" stroke-miterlimit="10"/>
<path d="M3.11681 680.626C-55.6201 628.143 -149.045 636.475 -205.554 699.237C-262.064 761.999 -260.258 855.424 -201.521 907.908C-142.784 960.392 -49.3583 952.06 7.15074 889.298C63.6598 826.536 61.8537 733.11 3.11681 680.626Z" stroke="white" stroke-width="0.258" stroke-miterlimit="10"/>
<path d="M-34.8907 684.904C-88.838 636.699 -174.645 644.352 -226.546 701.996C-278.448 759.641 -276.789 845.448 -222.841 893.652C-168.894 941.856 -83.0869 934.204 -31.1858 876.559C20.7154 818.915 19.0567 733.108 -34.8907 684.904Z" stroke="white" stroke-width="0.237" stroke-miterlimit="10"/>
<path d="M-72.8964 689.179C-122.054 645.255 -200.243 652.228 -247.536 704.754C-294.83 757.281 -293.318 835.47 -244.16 879.394C-195.003 923.319 -116.814 916.346 -69.5203 863.819C-22.227 811.293 -23.7386 733.104 -72.8964 689.179Z" stroke="white" stroke-width="0.2159" stroke-miterlimit="10"/>
</g>
<g opacity="0.6">
<g filter="url(#filter8_f_382_19148)">
<path d="M62.5442 722.779C26.0065 722.779 -3.61328 752.399 -3.61328 788.937L-3.61328 799.009C-3.61328 835.547 26.0065 865.167 62.5442 865.167C99.082 865.167 128.702 835.547 128.702 799.009L128.702 788.937C128.702 752.399 99.082 722.779 62.5442 722.779Z" fill="#FF7262"/>
</g>
<g filter="url(#filter9_f_382_19148)">
<path d="M281.62 865.167C244.703 865.167 214.775 835.24 214.775 798.323L214.775 787.792C214.775 750.875 244.703 720.948 281.62 720.948C318.537 720.948 348.464 750.875 348.464 787.792L348.464 798.323C348.464 835.24 318.537 865.167 281.62 865.167Z" fill="#1ABCFE"/>
</g>
<g filter="url(#filter10_f_382_19148)">
<path d="M171.738 865.167C134.821 865.167 104.894 835.24 104.894 798.323L104.894 787.792C104.894 750.875 134.821 720.948 171.738 720.948C208.655 720.948 238.582 750.875 238.582 787.792L238.582 798.323C238.582 835.24 208.655 865.167 171.738 865.167Z" fill="#A259FF"/>
</g>
<g filter="url(#filter11_f_382_19148)">
<path d="M-46.421 865.167C-83.4645 865.167 -113.494 835.137 -113.494 798.094L-113.494 788.021C-113.494 750.978 -83.4645 720.948 -46.421 720.948C-9.37744 720.948 20.6522 750.978 20.6522 788.021L20.6522 798.094C20.6522 835.137 -9.37744 865.167 -46.421 865.167Z" fill="#F24E1E"/>
</g>
<g filter="url(#filter12_f_382_19148)">
<path d="M391.271 865.167C354.228 865.167 324.198 835.137 324.198 798.094L324.198 788.021C324.198 750.978 354.228 720.948 391.271 720.948C428.315 720.948 458.345 750.978 458.345 788.021L458.345 798.094C458.345 835.137 428.315 865.167 391.271 865.167Z" fill="#0ACFCF"/>
</g>
</g>
<mask id="mask1_382_19148" style="mask-type:alpha" maskUnits="userSpaceOnUse" x="-225" y="662" width="518" height="534">
<path d="M292.756 833.36C292.756 928 266.57 1195.15 171.931 1195.15C77.2912 1195.15 -225 942.931 -225 848.291C-225 753.651 26.756 662 121.396 662C216.035 662 292.756 738.721 292.756 833.36Z" fill="#C4C4C4"/>
</mask>
<g mask="url(#mask1_382_19148)">
<g filter="url(#filter13_f_382_19148)">
<circle cx="157.23" cy="812.227" r="155.281" fill="#FFF1A7"/>
</g>
</g>
<mask id="mask2_382_19148" style="mask-type:alpha" maskUnits="userSpaceOnUse" x="236" y="715" width="291" height="281">
<path d="M341.919 716.855C392.566 724.009 533.552 758.215 526.398 808.861C519.245 859.508 361.421 1002.22 310.775 995.063C260.128 987.91 230.109 846.254 237.263 795.607C244.416 744.96 291.273 709.702 341.919 716.855Z" fill="#C4C4C4"/>
</mask>
<g mask="url(#mask2_382_19148)">
<g filter="url(#filter14_f_382_19148)">
<circle cx="320.367" cy="787.785" r="83.9241" transform="rotate(-81.9606 320.367 787.785)" fill="url(#paint0_linear_382_19148)"/>
</g>
</g>
<g opacity="0.8" filter="url(#filter15_f_382_19148)">
<mask id="path-32-inside-1_382_19148" fill="white">
<path fill-rule="evenodd" clip-rule="evenodd" d="M83.41 723.094C83.41 725.802 83.8975 728.48 84.843 731.084L143.4 695.497L152.669 701.129L152.668 701.129L180.472 718.027L199.013 706.759C196.094 703.143 192.198 699.807 187.429 696.901C186.652 696.43 185.859 695.974 185.048 695.535L203.592 684.265C204.392 684.715 205.186 685.165 205.964 685.637C222.291 695.578 231.462 709.049 231.462 723.095C231.462 737.14 222.292 750.612 205.965 760.553C192.103 768.954 173.998 774.28 154.558 775.675C135.117 777.07 115.469 774.454 98.7691 768.246L118.072 756.515C129.447 759.808 142.218 760.881 154.636 759.587C167.054 758.293 178.509 754.695 187.428 749.288C198.842 742.336 205.252 732.916 205.252 723.095C205.252 720.387 204.764 717.708 203.819 715.104L189.741 723.66L189.742 723.661L180.474 729.293L180.472 729.292L147.106 749.57L147.106 749.57L145.251 750.697L108.179 728.167L89.6487 739.429C92.5678 743.045 96.4633 746.38 101.232 749.285C102.328 749.951 103.459 750.571 104.624 751.186L86.0408 762.48C84.9129 761.861 83.802 761.227 82.7069 760.562C66.379 750.621 57.2095 737.148 57.2095 723.103C57.2095 709.057 66.3799 695.585 82.7078 685.645C96.7308 677.146 115.092 671.797 134.776 670.476C154.461 669.156 174.299 671.942 191.035 678.377L171.833 690.046C160.373 686.533 147.382 685.305 134.708 686.536C122.033 687.767 110.32 691.394 101.233 696.903C89.8197 703.855 83.41 713.274 83.41 723.094ZM171.204 723.66L143.4 706.762L117.447 722.535L145.251 739.432L171.204 723.66Z"/>
</mask>
<path fill-rule="evenodd" clip-rule="evenodd" d="M83.41 723.094C83.41 725.802 83.8975 728.48 84.843 731.084L143.4 695.497L152.669 701.129L152.668 701.129L180.472 718.027L199.013 706.759C196.094 703.143 192.198 699.807 187.429 696.901C186.652 696.43 185.859 695.974 185.048 695.535L203.592 684.265C204.392 684.715 205.186 685.165 205.964 685.637C222.291 695.578 231.462 709.049 231.462 723.095C231.462 737.14 222.292 750.612 205.965 760.553C192.103 768.954 173.998 774.28 154.558 775.675C135.117 777.07 115.469 774.454 98.7691 768.246L118.072 756.515C129.447 759.808 142.218 760.881 154.636 759.587C167.054 758.293 178.509 754.695 187.428 749.288C198.842 742.336 205.252 732.916 205.252 723.095C205.252 720.387 204.764 717.708 203.819 715.104L189.741 723.66L189.742 723.661L180.474 729.293L180.472 729.292L147.106 749.57L147.106 749.57L145.251 750.697L108.179 728.167L89.6487 739.429C92.5678 743.045 96.4633 746.38 101.232 749.285C102.328 749.951 103.459 750.571 104.624 751.186L86.0408 762.48C84.9129 761.861 83.802 761.227 82.7069 760.562C66.379 750.621 57.2095 737.148 57.2095 723.103C57.2095 709.057 66.3799 695.585 82.7078 685.645C96.7308 677.146 115.092 671.797 134.776 670.476C154.461 669.156 174.299 671.942 191.035 678.377L171.833 690.046C160.373 686.533 147.382 685.305 134.708 686.536C122.033 687.767 110.32 691.394 101.233 696.903C89.8197 703.855 83.41 713.274 83.41 723.094ZM171.204 723.66L143.4 706.762L117.447 722.535L145.251 739.432L171.204 723.66Z" fill="#A07F0A" fill-opacity="0.32"/>
<path d="M84.843 731.084L82.7547 731.364L83.5957 733.68L86.3553 732.003L84.843 731.084ZM143.4 695.497L144.913 694.578L143.4 693.658L141.888 694.578L143.4 695.497ZM152.669 701.129L154.181 702.048L155.693 701.129L154.181 700.21L152.669 701.129ZM152.668 701.129L151.156 700.21L149.644 701.129L151.156 702.049L152.668 701.129ZM180.472 718.027L178.96 718.946L180.472 719.865L181.985 718.946L180.472 718.027ZM199.013 706.759L200.526 707.678L201.607 707.021L200.933 706.187L199.013 706.759ZM187.429 696.901L188.943 695.983L188.941 695.982L187.429 696.901ZM185.048 695.535L183.536 694.616L181.935 695.589L183.625 696.505L185.048 695.535ZM203.592 684.265L205.046 683.312L203.536 682.461L202.08 683.346L203.592 684.265ZM205.964 685.637L207.477 684.719L207.476 684.718L205.964 685.637ZM231.462 723.095H229.324H231.462ZM205.965 760.553L207.475 761.473L207.478 761.471L205.965 760.553ZM98.7691 768.246L97.2569 767.327L95.337 768.494L97.6533 769.355L98.7691 768.246ZM118.072 756.515L118.992 755.342L117.628 754.947L116.56 755.596L118.072 756.515ZM187.428 749.288L188.939 750.208L188.942 750.206L187.428 749.288ZM205.252 723.095H207.39H205.252ZM203.819 715.104L205.907 714.824L205.066 712.508L202.306 714.185L203.819 715.104ZM189.741 723.66L188.228 722.741L186.716 723.66L188.228 724.579L189.741 723.66ZM189.742 723.661L191.254 724.58L192.766 723.661L191.254 722.741L189.742 723.661ZM180.474 729.293L178.961 730.212L180.474 731.131L181.986 730.212L180.474 729.293ZM180.472 729.292L181.985 728.373L180.472 727.454L178.96 728.373L180.472 729.292ZM147.106 749.57L145.594 750.489L147.106 751.408L148.619 750.489L147.106 749.57ZM147.106 749.57L148.618 748.651L147.106 747.732L145.594 748.651L147.106 749.57ZM145.251 750.697L143.739 751.617L145.251 752.536L146.763 751.617L145.251 750.697ZM108.179 728.167L109.691 727.248L108.179 726.329L106.667 727.248L108.179 728.167ZM89.6487 739.429L88.1365 738.51L87.0551 739.167L87.7287 740.001L89.6487 739.429ZM101.232 749.285L99.7186 750.203L99.7203 750.204L101.232 749.285ZM104.624 751.186L106.136 752.105L107.759 751.119L106.026 750.205L104.624 751.186ZM86.0408 762.48L84.6076 763.444L86.116 764.272L87.553 763.399L86.0408 762.48ZM82.7069 760.562L81.1933 761.48L81.1946 761.481L82.7069 760.562ZM57.2095 723.103H59.3481H57.2095ZM82.7078 685.645L81.1976 684.724L81.1942 684.727L82.7078 685.645ZM134.776 670.476L134.542 669.185L134.776 670.476ZM191.035 678.377L192.547 679.296L194.437 678.147L192.178 677.279L191.035 678.377ZM171.833 690.046L170.87 691.207L172.251 691.63L173.345 690.965L171.833 690.046ZM134.708 686.536L134.37 685.252L134.708 686.536ZM101.233 696.903L99.7226 695.983L99.719 695.985L101.233 696.903ZM143.4 706.762L144.912 705.843L143.4 704.924L141.888 705.843L143.4 706.762ZM171.204 723.66L172.716 724.579L174.229 723.66L172.716 722.741L171.204 723.66ZM117.447 722.535L115.935 721.616L114.423 722.535L115.935 723.454L117.447 722.535ZM145.251 739.432L143.739 740.351L145.251 741.27L146.764 740.351L145.251 739.432ZM86.9314 730.804C86.019 728.291 85.5486 725.707 85.5486 723.094L81.2714 723.094C81.2714 725.897 81.776 728.669 82.7547 731.364L86.9314 730.804ZM141.888 694.578L83.3308 730.165L86.3553 732.003L144.913 696.416L141.888 694.578ZM154.181 700.21L144.913 694.578L141.888 696.416L151.156 702.048L154.181 700.21ZM154.18 702.049L154.181 702.048L151.156 700.21L151.156 700.21L154.18 702.049ZM181.985 717.108L154.18 700.21L151.156 702.049L178.96 718.946L181.985 717.108ZM197.501 705.84L178.96 717.108L181.985 718.946L200.526 707.678L197.501 705.84ZM185.915 697.819C190.517 700.623 194.276 703.842 197.093 707.332L200.933 706.187C197.912 702.444 193.88 698.99 188.943 695.983L185.915 697.819ZM183.625 696.505C184.405 696.928 185.169 697.366 185.916 697.82L188.941 695.982C188.136 695.493 187.313 695.021 186.472 694.565L183.625 696.505ZM202.08 683.346L183.536 694.616L186.561 696.454L205.104 685.184L202.08 683.346ZM207.476 684.718C206.666 684.226 205.843 683.761 205.046 683.312L202.138 685.218C202.94 685.67 203.706 686.103 204.451 686.556L207.476 684.718ZM233.601 723.095C233.601 708.705 224.205 694.903 207.477 684.719L204.45 686.555C220.378 696.252 229.324 709.393 229.324 723.095H233.601ZM207.478 761.471C224.206 751.287 233.601 737.485 233.601 723.095H229.324C229.324 736.796 220.379 749.938 204.451 759.635L207.478 761.471ZM154.808 776.966C174.725 775.536 193.274 770.08 207.475 761.473L204.454 759.633C190.933 767.828 173.271 773.023 154.307 774.384L154.808 776.966ZM97.6533 769.355C114.762 775.714 134.892 778.395 154.808 776.966L154.307 774.384C135.343 775.745 116.176 773.193 99.885 767.137L97.6533 769.355ZM116.56 755.596L97.2569 767.327L100.281 769.165L119.585 757.434L116.56 755.596ZM154.275 758.306C142.292 759.555 129.968 758.519 118.992 755.342L117.153 757.688C128.925 761.096 142.145 762.207 154.997 760.868L154.275 758.306ZM185.918 748.368C177.311 753.586 166.257 757.057 154.275 758.306L154.997 760.868C167.85 759.529 179.706 755.805 188.939 750.208L185.918 748.368ZM203.113 723.095C203.113 732.572 196.928 741.661 185.914 748.37L188.942 750.206C200.756 743.01 207.39 733.26 207.39 723.095H203.113ZM201.73 715.384C202.643 717.897 203.113 720.481 203.113 723.095H207.39C207.39 720.292 206.886 717.52 205.907 714.824L201.73 715.384ZM191.253 724.579L205.331 716.023L202.306 714.185L188.228 722.741L191.253 724.579ZM191.254 722.741L191.253 722.741L188.228 724.579L188.23 724.58L191.254 722.741ZM181.986 730.212L191.254 724.58L188.23 722.741L178.961 728.374L181.986 730.212ZM178.96 730.211L178.961 730.212L181.986 728.374L181.985 728.373L178.96 730.211ZM148.619 750.489L181.985 730.211L178.96 728.373L145.594 748.651L148.619 750.489ZM145.594 750.489L145.594 750.489L148.619 748.651L148.618 748.651L145.594 750.489ZM146.763 751.617L148.618 750.489L145.594 748.651L143.739 749.778L146.763 751.617ZM106.667 729.086L143.739 751.617L146.763 749.778L109.691 727.248L106.667 729.086ZM91.1609 740.348L109.691 729.086L106.667 727.248L88.1365 738.51L91.1609 740.348ZM102.746 748.367C98.1443 745.564 94.3855 742.345 91.5686 738.856L87.7287 740.001C90.7502 743.744 94.7822 747.197 99.7186 750.203L102.746 748.367ZM106.026 750.205C104.88 749.6 103.79 749.001 102.745 748.366L99.7203 750.204C100.865 750.9 102.038 751.543 103.222 752.167L106.026 750.205ZM87.553 763.399L106.136 752.105L103.112 750.267L84.5286 761.561L87.553 763.399ZM81.1946 761.481C82.3213 762.165 83.4596 762.814 84.6076 763.444L87.474 761.515C86.3661 760.907 85.2826 760.289 84.2191 759.643L81.1946 761.481ZM55.0709 723.103C55.0709 737.493 64.4652 751.296 81.1933 761.48L84.2204 759.644C68.2929 749.947 59.3481 736.804 59.3481 723.103H55.0709ZM81.1942 684.727C64.4661 694.911 55.0709 708.713 55.0709 723.103H59.3481C59.3481 709.401 68.2937 696.26 84.2213 686.563L81.1942 684.727ZM134.542 669.185C114.375 670.538 95.5642 676.018 81.1976 684.724L84.2179 686.565C97.8975 678.275 115.809 673.057 135.011 671.768L134.542 669.185ZM192.178 677.279C175.032 670.686 154.708 667.832 134.542 669.185L135.011 671.768C154.213 670.48 173.565 673.198 189.891 679.475L192.178 677.279ZM173.345 690.965L192.547 679.296L189.522 677.458L170.321 689.127L173.345 690.965ZM135.045 687.819C147.276 686.631 159.811 687.816 170.87 691.207L172.796 688.886C160.935 685.249 147.489 683.978 134.37 685.252L135.045 687.819ZM102.743 697.823C111.512 692.507 122.815 689.007 135.045 687.819L134.37 685.252C121.252 686.526 109.128 690.281 99.7226 695.983L102.743 697.823ZM85.5486 723.094C85.5486 713.618 91.7336 704.529 102.747 697.821L99.719 695.985C87.9057 703.18 81.2714 712.929 81.2714 723.094L85.5486 723.094ZM141.888 707.681L169.692 724.579L172.716 722.741L144.912 705.843L141.888 707.681ZM118.959 723.454L144.912 707.681L141.888 705.843L115.935 721.616L118.959 723.454ZM146.764 738.513L118.959 721.616L115.935 723.454L143.739 740.351L146.764 738.513ZM169.692 722.741L143.739 738.513L146.764 740.351L172.716 724.579L169.692 722.741Z" fill="url(#paint1_linear_382_19148)" fill-opacity="0.08" mask="url(#path-32-inside-1_382_19148)"/>
</g>
<g filter="url(#filter16_i_382_19148)">
<path d="M180.912 692.934C192.326 699.886 198.734 709.307 198.734 719.128C198.734 728.949 192.325 738.368 180.911 745.32C171.991 750.728 160.536 754.325 148.119 755.619C135.701 756.914 122.93 755.84 111.555 752.547L92.252 764.279C108.952 770.486 128.6 773.103 148.041 771.707C167.481 770.312 185.586 764.986 199.447 756.585C215.775 746.645 224.945 733.173 224.945 719.127C224.945 705.082 215.774 691.61 199.447 681.67C198.669 681.197 197.875 680.748 197.075 680.298L178.531 691.567C179.342 692.007 180.135 692.462 180.912 692.934Z" fill="#FFBC0F"/>
<path d="M94.7149 745.317C83.3017 738.366 76.8924 728.946 76.8924 719.126C76.8924 709.306 83.3021 699.887 94.7154 692.935C103.803 687.426 115.516 683.799 128.19 682.568C140.865 681.337 153.856 682.565 165.315 686.079L184.517 674.409C167.781 667.974 147.943 665.188 128.259 666.509C108.574 667.829 90.2133 673.178 76.1902 681.677C59.8624 691.618 50.6919 705.089 50.6919 719.135C50.6919 733.181 59.8615 746.653 76.1893 756.594C77.2844 757.26 78.3953 757.893 79.5232 758.512L98.1063 747.218C96.9419 746.604 95.81 745.983 94.7149 745.317Z" fill="#FFBC0F"/>
<path d="M136.882 691.529L67.5986 733.635L76.8668 739.267L146.15 697.162L136.882 691.529Z" fill="#FFBC0F"/>
<path d="M199.211 698.709L131.319 739.97L140.587 745.602L208.48 704.342L199.211 698.709Z" fill="#FFBC0F"/>
<path d="M109.074 717.44L99.8057 723.072L138.733 746.73L148.001 741.097L109.074 717.44Z" fill="#FFBC0F"/>
<path d="M144.296 696.035L135.028 701.668L173.955 725.325L183.223 719.693L144.296 696.035Z" fill="#FFBC0F"/>
</g>
<mask id="mask3_382_19148" style="mask-type:alpha" maskUnits="userSpaceOnUse" x="47" y="668" width="175" height="107">
<path d="M177.649 695.706C189.063 702.659 195.472 712.079 195.472 721.9C195.472 731.721 189.063 741.141 177.648 748.093C168.729 753.5 157.274 757.098 144.856 758.392C132.439 759.686 119.667 758.613 108.293 755.32L88.9893 767.051C105.689 773.259 125.337 775.875 144.778 774.48C164.218 773.085 182.324 767.759 196.185 759.358C212.513 749.417 221.683 735.945 221.683 721.9C221.683 707.854 212.512 694.383 196.184 684.442C195.406 683.969 194.612 683.52 193.812 683.07L175.269 694.34C176.079 694.779 176.873 695.235 177.649 695.706Z" fill="#FFBC0F"/>
<path d="M91.4541 748.092C80.0409 741.14 73.6317 731.721 73.6317 721.9C73.6317 712.08 80.0413 702.661 91.4546 695.71C100.542 690.201 112.255 686.573 124.929 685.342C137.604 684.111 150.595 685.34 162.055 688.853L181.256 677.184C164.521 670.749 144.683 667.962 124.998 669.283C105.314 670.604 86.9525 675.953 72.9294 684.451C56.6016 694.392 47.4312 707.864 47.4312 721.909C47.4312 735.955 56.6007 749.428 72.9285 759.368C74.0236 760.034 75.1345 760.667 76.2625 761.286L94.8456 749.993C93.6811 749.378 92.5492 748.757 91.4541 748.092Z" fill="#FFBC0F"/>
<path d="M133.623 694.304L64.3398 736.41L73.608 742.043L142.891 699.937L133.623 694.304Z" fill="#FFBC0F"/>
<path d="M195.953 701.485L128.061 742.745L137.329 748.378L205.221 707.117L195.953 701.485Z" fill="#FFBC0F"/>
<path d="M105.815 720.213L96.5469 725.846L135.474 749.503L144.742 743.87L105.815 720.213Z" fill="#FFBC0F"/>
<path d="M141.038 698.809L131.77 704.441L170.696 728.099L179.965 722.466L141.038 698.809Z" fill="#FFBC0F"/>
</mask>
<g mask="url(#mask3_382_19148)">
<g filter="url(#filter17_f_382_19148)">
<path d="M107.156 738.161C79.2426 755.125 33.6597 755.323 5.7462 738.359C-22.1673 721.395 -21.8412 693.693 6.07228 676.728C33.9858 659.764 79.5686 659.566 107.482 676.53C135.396 693.494 135.07 721.197 107.156 738.161Z" fill="#FFD600"/>
</g>
<g filter="url(#filter18_f_382_19148)">
<path d="M233.022 763.923C213.933 775.524 182.983 775.524 163.894 763.923C144.805 752.322 144.805 733.512 163.894 721.911L170.415 717.948C189.505 706.346 220.454 706.346 239.544 717.948C258.633 729.549 258.633 748.358 239.544 759.959L233.022 763.923Z" fill="#FF9900"/>
</g>
<g filter="url(#filter19_f_382_19148)">
<path d="M178.777 686.871C168.111 693.353 150.817 693.353 140.15 686.871L136.907 684.9C126.24 678.417 126.24 667.907 136.907 661.424C147.573 654.942 164.867 654.942 175.534 661.424L178.777 663.396C189.444 669.878 189.444 680.388 178.777 686.871Z" fill="#FFDF6E"/>
</g>
</g>
<path d="M267.089 736.118L344.998 628.257L256.513 644.884L267.089 736.118Z" fill="#FFD600" fill-opacity="0.03"/>
<mask id="mask4_382_19148" style="mask-type:alpha" maskUnits="userSpaceOnUse" x="256" y="628" width="89" height="109">
<path d="M267.087 736.118L344.996 628.257L256.511 644.884L267.087 736.118Z" fill="#494219"/>
</mask>
<g mask="url(#mask4_382_19148)">
<g filter="url(#filter20_f_382_19148)">
<path d="M277.486 742.939C264.734 742.939 254.396 732.601 254.396 719.849L254.396 705.491C254.396 692.739 264.734 682.401 277.486 682.401C290.239 682.401 300.577 692.739 300.577 705.492L300.577 719.849C300.577 732.601 290.239 742.939 277.486 742.939Z" fill="#FFDF6E"/>
</g>
<g filter="url(#filter21_f_382_19148)">
<path d="M314.411 696.926C295.894 696.926 280.884 681.915 280.884 663.399L280.884 650.305C280.884 631.789 295.894 616.778 314.411 616.778C332.927 616.778 347.937 631.789 347.937 650.305L347.937 663.399C347.937 681.915 332.927 696.926 314.411 696.926Z" fill="#FFD600"/>
</g>
<g filter="url(#filter22_f_382_19148)">
<path d="M275.196 687.515C261.177 687.515 249.813 676.151 249.813 662.133L249.813 656.621C249.813 642.603 261.177 631.239 275.196 631.239C289.214 631.239 300.578 642.603 300.578 656.621L300.578 662.133C300.578 676.151 289.214 687.515 275.196 687.515Z" fill="#FF9900"/>
</g>
</g>
<mask id="mask5_382_19148" style="mask-type:alpha" maskUnits="userSpaceOnUse" x="192" y="622" width="76" height="115">
<path d="M256.513 644.885L192 622.29L267.089 736.12L256.513 644.885Z" fill="#C4C4C4"/>
</mask>
<g mask="url(#mask5_382_19148)">
<g filter="url(#filter23_f_382_19148)">
<path d="M263.035 742.94C250.282 742.94 239.944 732.602 239.944 719.85L239.944 705.492C239.944 692.74 250.282 682.402 263.035 682.402C275.788 682.402 286.126 692.74 286.126 705.492L286.126 719.85C286.126 732.602 275.788 742.94 263.035 742.94Z" fill="#E1C769"/>
</g>
<g filter="url(#filter24_f_382_19148)">
<path d="M246.658 698.465C232.834 698.465 221.628 687.259 221.628 673.435L221.628 657.84C221.628 644.016 232.834 632.81 246.658 632.81C260.481 632.81 271.687 644.016 271.687 657.84L271.687 673.435C271.687 687.259 260.481 698.465 246.658 698.465Z" fill="#FFD600"/>
</g>
<g filter="url(#filter25_f_382_19148)">
<path d="M203.633 664.925C189.615 664.925 178.251 653.561 178.251 639.543L178.251 634.032C178.251 620.013 189.615 608.649 203.633 608.649C217.651 608.649 229.015 620.013 229.015 634.032L229.015 639.543C229.015 653.561 217.651 664.925 203.633 664.925Z" fill="#FF9900"/>
</g>
</g>
<path d="M256.516 644.884L345.001 628.258L278.02 604.81L192.003 622.289L256.516 644.884Z" fill="#957A1C"/>
<g opacity="0.8" filter="url(#filter26_b_382_19148)">
<path d="M256.513 644.883L267.089 514L344.998 628.256L256.513 644.883Z" fill="#FDC63A"/>
<path d="M343.504 627.636L257.488 643.799L267.769 516.568L343.504 627.636Z" stroke="url(#paint2_linear_382_19148)" stroke-opacity="0.08" stroke-width="1.76959"/>
</g>
<g opacity="0.8" filter="url(#filter27_b_382_19148)">
<path d="M256.513 644.883L267.089 514L192 622.287L256.513 644.883Z" fill="#FFE6A5"/>
<path d="M193.389 621.837L265.942 517.207L255.723 643.669L193.389 621.837Z" stroke="url(#paint3_linear_382_19148)" stroke-opacity="0.08" stroke-width="1.76959"/>
</g>
</g>
<defs>
<filter id="filter0_b_382_19148" x="-78" y="-78" width="531" height="968" filterUnits="userSpaceOnUse" color-interpolation-filters="sRGB">
<feFlood flood-opacity="0" result="BackgroundImageFix"/>
<feGaussianBlur in="BackgroundImage" stdDeviation="39"/>
<feComposite in2="SourceAlpha" operator="in" result="effect1_backgroundBlur_382_19148"/>
<feBlend mode="normal" in="SourceGraphic" in2="effect1_backgroundBlur_382_19148" result="shape"/>
</filter>
<filter id="filter1_f_382_19148" x="-33.5312" y="95.3193" width="988.122" height="1027.13" filterUnits="userSpaceOnUse" color-interpolation-filters="sRGB">
<feFlood flood-opacity="0" result="BackgroundImageFix"/>
<feBlend mode="normal" in="SourceGraphic" in2="BackgroundImageFix" result="shape"/>
<feGaussianBlur stdDeviation="116.5" result="effect1_foregroundBlur_382_19148"/>
</filter>
<filter id="filter2_f_382_19148" x="-306.765" y="31.4004" width="593.485" height="603.189" filterUnits="userSpaceOnUse" color-interpolation-filters="sRGB">
<feFlood flood-opacity="0" result="BackgroundImageFix"/>
<feBlend mode="normal" in="SourceGraphic" in2="BackgroundImageFix" result="shape"/>
<feGaussianBlur stdDeviation="116.5" result="effect1_foregroundBlur_382_19148"/>
</filter>
<filter id="filter3_f_382_19148" x="-241" y="173" width="594.809" height="604.954" filterUnits="userSpaceOnUse" color-interpolation-filters="sRGB">
<feFlood flood-opacity="0" result="BackgroundImageFix"/>
<feBlend mode="normal" in="SourceGraphic" in2="BackgroundImageFix" result="shape"/>
<feGaussianBlur stdDeviation="116.5" result="effect1_foregroundBlur_382_19148"/>
</filter>
<filter id="filter4_f_382_19148" x="-202.219" y="29.6348" width="594.809" height="604.954" filterUnits="userSpaceOnUse" color-interpolation-filters="sRGB">
<feFlood flood-opacity="0" result="BackgroundImageFix"/>
<feBlend mode="normal" in="SourceGraphic" in2="BackgroundImageFix" result="shape"/>
<feGaussianBlur stdDeviation="116.5" result="effect1_foregroundBlur_382_19148"/>
</filter>
<filter id="filter5_f_382_19148" x="-412.635" y="29.6348" width="595.25" height="604.954" filterUnits="userSpaceOnUse" color-interpolation-filters="sRGB">
<feFlood flood-opacity="0" result="BackgroundImageFix"/>
<feBlend mode="normal" in="SourceGraphic" in2="BackgroundImageFix" result="shape"/>
<feGaussianBlur stdDeviation="116.5" result="effect1_foregroundBlur_382_19148"/>
</filter>
<filter id="filter6_f_382_19148" x="-39" y="104" width="595.25" height="604.954" filterUnits="userSpaceOnUse" color-interpolation-filters="sRGB">
<feFlood flood-opacity="0" result="BackgroundImageFix"/>
<feBlend mode="normal" in="SourceGraphic" in2="BackgroundImageFix" result="shape"/>
<feGaussianBlur stdDeviation="116.5" result="effect1_foregroundBlur_382_19148"/>
</filter>
<filter id="filter7_f_382_19148" x="-102" y="-452.001" width="759.565" height="781.463" filterUnits="userSpaceOnUse" color-interpolation-filters="sRGB">
<feFlood flood-opacity="0" result="BackgroundImageFix"/>
<feBlend mode="normal" in="SourceGraphic" in2="BackgroundImageFix" result="shape"/>
<feGaussianBlur stdDeviation="116.5" result="effect1_foregroundBlur_382_19148"/>
</filter>
<filter id="filter8_f_382_19148" x="-236.613" y="489.779" width="598.315" height="608.388" filterUnits="userSpaceOnUse" color-interpolation-filters="sRGB">
<feFlood flood-opacity="0" result="BackgroundImageFix"/>
<feBlend mode="normal" in="SourceGraphic" in2="BackgroundImageFix" result="shape"/>
<feGaussianBlur stdDeviation="116.5" result="effect1_foregroundBlur_382_19148"/>
</filter>
<filter id="filter9_f_382_19148" x="-18.2246" y="487.948" width="599.688" height="610.219" filterUnits="userSpaceOnUse" color-interpolation-filters="sRGB">
<feFlood flood-opacity="0" result="BackgroundImageFix"/>
<feBlend mode="normal" in="SourceGraphic" in2="BackgroundImageFix" result="shape"/>
<feGaussianBlur stdDeviation="116.5" result="effect1_foregroundBlur_382_19148"/>
</filter>
<filter id="filter10_f_382_19148" x="-128.106" y="487.948" width="599.688" height="610.219" filterUnits="userSpaceOnUse" color-interpolation-filters="sRGB">
<feFlood flood-opacity="0" result="BackgroundImageFix"/>
<feBlend mode="normal" in="SourceGraphic" in2="BackgroundImageFix" result="shape"/>
<feGaussianBlur stdDeviation="116.5" result="effect1_foregroundBlur_382_19148"/>
</filter>
<filter id="filter11_f_382_19148" x="-346.494" y="487.948" width="600.146" height="610.219" filterUnits="userSpaceOnUse" color-interpolation-filters="sRGB">
<feFlood flood-opacity="0" result="BackgroundImageFix"/>
<feBlend mode="normal" in="SourceGraphic" in2="BackgroundImageFix" result="shape"/>
<feGaussianBlur stdDeviation="116.5" result="effect1_foregroundBlur_382_19148"/>
</filter>
<filter id="filter12_f_382_19148" x="91.1982" y="487.948" width="600.146" height="610.219" filterUnits="userSpaceOnUse" color-interpolation-filters="sRGB">
<feFlood flood-opacity="0" result="BackgroundImageFix"/>
<feBlend mode="normal" in="SourceGraphic" in2="BackgroundImageFix" result="shape"/>
<feGaussianBlur stdDeviation="116.5" result="effect1_foregroundBlur_382_19148"/>
</filter>
<filter id="filter13_f_382_19148" x="-237.051" y="417.946" width="788.562" height="788.562" filterUnits="userSpaceOnUse" color-interpolation-filters="sRGB">
<feFlood flood-opacity="0" result="BackgroundImageFix"/>
<feBlend mode="normal" in="SourceGraphic" in2="BackgroundImageFix" result="shape"/>
<feGaussianBlur stdDeviation="119.5" result="effect1_foregroundBlur_382_19148"/>
</filter>
<filter id="filter14_f_382_19148" x="-2.56836" y="464.851" width="645.869" height="645.869" filterUnits="userSpaceOnUse" color-interpolation-filters="sRGB">
<feFlood flood-opacity="0" result="BackgroundImageFix"/>
<feBlend mode="normal" in="SourceGraphic" in2="BackgroundImageFix" result="shape"/>
<feGaussianBlur stdDeviation="119.5" result="effect1_foregroundBlur_382_19148"/>
</filter>
<filter id="filter15_f_382_19148" x="25.3565" y="638.304" width="237.958" height="169.59" filterUnits="userSpaceOnUse" color-interpolation-filters="sRGB">
<feFlood flood-opacity="0" result="BackgroundImageFix"/>
<feBlend mode="normal" in="SourceGraphic" in2="BackgroundImageFix" result="shape"/>
<feGaussianBlur stdDeviation="15.9263" result="effect1_foregroundBlur_382_19148"/>
</filter>
<filter id="filter16_i_382_19148" x="50.6924" y="666.188" width="174.253" height="112.963" filterUnits="userSpaceOnUse" color-interpolation-filters="sRGB">
<feFlood flood-opacity="0" result="BackgroundImageFix"/>
<feBlend mode="normal" in="SourceGraphic" in2="BackgroundImageFix" result="shape"/>
<feColorMatrix in="SourceAlpha" type="matrix" values="0 0 0 0 0 0 0 0 0 0 0 0 0 0 0 0 0 0 127 0" result="hardAlpha"/>
<feOffset dy="7.07834"/>
<feGaussianBlur stdDeviation="3.53917"/>
<feComposite in2="hardAlpha" operator="arithmetic" k2="-1" k3="1"/>
<feColorMatrix type="matrix" values="0 0 0 0 0 0 0 0 0 0 0 0 0 0 0 0 0 0 0.25 0"/>
<feBlend mode="normal" in2="shape" result="effect1_innerShadow_382_19148"/>
</filter>
<filter id="filter17_f_382_19148" x="-53.9572" y="624.975" width="221.143" height="164.939" filterUnits="userSpaceOnUse" color-interpolation-filters="sRGB">
<feFlood flood-opacity="0" result="BackgroundImageFix"/>
<feBlend mode="normal" in="SourceGraphic" in2="BackgroundImageFix" result="shape"/>
<feGaussianBlur stdDeviation="19.4654" result="effect1_foregroundBlur_382_19148"/>
</filter>
<filter id="filter18_f_382_19148" x="110.646" y="670.316" width="182.145" height="141.239" filterUnits="userSpaceOnUse" color-interpolation-filters="sRGB">
<feFlood flood-opacity="0" result="BackgroundImageFix"/>
<feBlend mode="normal" in="SourceGraphic" in2="BackgroundImageFix" result="shape"/>
<feGaussianBlur stdDeviation="19.4654" result="effect1_foregroundBlur_382_19148"/>
</filter>
<filter id="filter19_f_382_19148" x="109.442" y="637.097" width="96.801" height="74.1008" filterUnits="userSpaceOnUse" color-interpolation-filters="sRGB">
<feFlood flood-opacity="0" result="BackgroundImageFix"/>
<feBlend mode="normal" in="SourceGraphic" in2="BackgroundImageFix" result="shape"/>
<feGaussianBlur stdDeviation="9.73272" result="effect1_foregroundBlur_382_19148"/>
</filter>
<filter id="filter20_f_382_19148" x="234.93" y="662.935" width="85.1125" height="99.4699" filterUnits="userSpaceOnUse" color-interpolation-filters="sRGB">
<feFlood flood-opacity="0" result="BackgroundImageFix"/>
<feBlend mode="normal" in="SourceGraphic" in2="BackgroundImageFix" result="shape"/>
<feGaussianBlur stdDeviation="9.73272" result="effect1_foregroundBlur_382_19148"/>
</filter>
<filter id="filter21_f_382_19148" x="241.953" y="577.847" width="144.915" height="158.009" filterUnits="userSpaceOnUse" color-interpolation-filters="sRGB">
<feFlood flood-opacity="0" result="BackgroundImageFix"/>
<feBlend mode="normal" in="SourceGraphic" in2="BackgroundImageFix" result="shape"/>
<feGaussianBlur stdDeviation="19.4654" result="effect1_foregroundBlur_382_19148"/>
</filter>
<filter id="filter22_f_382_19148" x="210.883" y="592.308" width="128.626" height="134.137" filterUnits="userSpaceOnUse" color-interpolation-filters="sRGB">
<feFlood flood-opacity="0" result="BackgroundImageFix"/>
<feBlend mode="normal" in="SourceGraphic" in2="BackgroundImageFix" result="shape"/>
<feGaussianBlur stdDeviation="19.4654" result="effect1_foregroundBlur_382_19148"/>
</filter>
<filter id="filter23_f_382_19148" x="201.013" y="643.47" width="124.043" height="138.401" filterUnits="userSpaceOnUse" color-interpolation-filters="sRGB">
<feFlood flood-opacity="0" result="BackgroundImageFix"/>
<feBlend mode="normal" in="SourceGraphic" in2="BackgroundImageFix" result="shape"/>
<feGaussianBlur stdDeviation="19.4654" result="effect1_foregroundBlur_382_19148"/>
</filter>
<filter id="filter24_f_382_19148" x="182.697" y="593.88" width="127.921" height="143.516" filterUnits="userSpaceOnUse" color-interpolation-filters="sRGB">
<feFlood flood-opacity="0" result="BackgroundImageFix"/>
<feBlend mode="normal" in="SourceGraphic" in2="BackgroundImageFix" result="shape"/>
<feGaussianBlur stdDeviation="19.4654" result="effect1_foregroundBlur_382_19148"/>
</filter>
<filter id="filter25_f_382_19148" x="139.32" y="569.719" width="128.626" height="134.137" filterUnits="userSpaceOnUse" color-interpolation-filters="sRGB">
<feFlood flood-opacity="0" result="BackgroundImageFix"/>
<feBlend mode="normal" in="SourceGraphic" in2="BackgroundImageFix" result="shape"/>
<feGaussianBlur stdDeviation="19.4654" result="effect1_foregroundBlur_382_19148"/>
</filter>
<filter id="filter26_b_382_19148" x="118.485" y="375.972" width="364.541" height="406.938" filterUnits="userSpaceOnUse" color-interpolation-filters="sRGB">
<feFlood flood-opacity="0" result="BackgroundImageFix"/>
<feGaussianBlur in="BackgroundImage" stdDeviation="69.0138"/>
<feComposite in2="SourceAlpha" operator="in" result="effect1_backgroundBlur_382_19148"/>
<feBlend mode="normal" in="SourceGraphic" in2="effect1_backgroundBlur_382_19148" result="shape"/>
</filter>
<filter id="filter27_b_382_19148" x="53.9724" y="375.972" width="351.144" height="406.938" filterUnits="userSpaceOnUse" color-interpolation-filters="sRGB">
<feFlood flood-opacity="0" result="BackgroundImageFix"/>
<feGaussianBlur in="BackgroundImage" stdDeviation="69.0138"/>
<feComposite in2="SourceAlpha" operator="in" result="effect1_backgroundBlur_382_19148"/>
<feBlend mode="normal" in="SourceGraphic" in2="effect1_backgroundBlur_382_19148" result="shape"/>
</filter>
<linearGradient id="paint0_linear_382_19148" x1="320.367" y1="703.861" x2="320.367" y2="871.709" gradientUnits="userSpaceOnUse">
<stop stop-color="#FFD600"/>
<stop offset="1" stop-color="#FFF1A7"/>
</linearGradient>
<linearGradient id="paint1_linear_382_19148" x1="21.0713" y1="723.104" x2="222.238" y2="627.573" gradientUnits="userSpaceOnUse">
<stop stop-color="white"/>
<stop offset="1" stop-color="#FFFBF2" stop-opacity="0.02"/>
</linearGradient>
<linearGradient id="paint2_linear_382_19148" x1="256.513" y1="514" x2="377.054" y2="558.985" gradientUnits="userSpaceOnUse">
<stop stop-color="white"/>
<stop offset="1" stop-color="#FFFBF2" stop-opacity="0.02"/>
</linearGradient>
<linearGradient id="paint3_linear_382_19148" x1="192" y1="514" x2="297.916" y2="547.543" gradientUnits="userSpaceOnUse">
<stop stop-color="white"/>
<stop offset="1" stop-color="#FFFBF2" stop-opacity="0.02"/>
</linearGradient>
</defs>
</svg>
