<svg width="32" height="32" viewBox="0 0 32 32" fill="none" xmlns="http://www.w3.org/2000/svg">
<path fill-rule="evenodd" clip-rule="evenodd" d="M23.2505 8.7513C20.5827 6.0925 16.2669 6.09379 13.6102 8.7504L13.609 8.75169C11.7562 10.5955 11.1945 13.2521 11.9167 15.5995C11.9984 15.865 11.9267 16.154 11.7302 16.3504L7.03526 21.0454C6.96959 21.1145 6.88059 21.2572 6.81643 21.4497C6.75115 21.6456 6.73882 21.811 6.75206 21.9018L6.75294 21.9078L7.05201 24.0813C7.0801 24.2571 7.18533 24.4653 7.36271 24.6435C7.54146 24.823 7.74473 24.9235 7.91216 24.9471L10.0981 25.2479C10.1974 25.2624 10.3665 25.2506 10.5562 25.1891C10.7472 25.1272 10.8808 25.0405 10.942 24.9775L10.9501 24.9691L15.6601 20.2692C15.8575 20.0723 16.1477 20.0011 16.4138 20.0843C18.7459 20.8136 21.4034 20.2463 23.2601 18.3992C25.9165 15.7422 25.9164 11.4082 23.2505 8.7513ZM12.5502 7.68909C15.7937 4.44635 21.0574 4.44785 24.3093 7.68884C27.5633 10.9318 27.5633 16.2174 24.3202 19.4604L24.319 19.4617C22.1722 21.598 19.145 22.3309 16.4091 21.6409L12.0133 26.0274C11.735 26.3118 11.3657 26.5036 11.0186 26.616C10.6694 26.7292 10.2649 26.7874 9.88518 26.7327C9.88401 26.7326 9.88285 26.7324 9.88168 26.7322L7.70767 26.4331C7.15528 26.3563 6.66304 26.0668 6.29962 25.7017C5.93601 25.3364 5.6515 24.8465 5.56852 24.3033L5.56683 24.2923L5.26776 22.1183C5.2676 22.1172 5.26744 22.1161 5.26728 22.1149C5.2114 21.7267 5.27901 21.3186 5.3934 20.9754C5.5083 20.6307 5.69765 20.2698 5.96173 19.9977L5.96952 19.9897L10.3604 15.599C9.67915 12.8583 10.3998 9.82959 12.5502 7.68909Z" fill="#E7E7E7"/>
<path fill-rule="evenodd" clip-rule="evenodd" d="M10.3596 20.9597C10.6525 20.6668 11.1273 20.6668 11.4202 20.9597L13.7202 23.2597C14.0131 23.5526 14.0131 24.0274 13.7202 24.3203C13.4273 24.6132 12.9525 24.6132 12.6596 24.3203L10.3596 22.0203C10.0667 21.7274 10.0667 21.2526 10.3596 20.9597Z" fill="#E7E7E7"/>
<path fill-rule="evenodd" clip-rule="evenodd" d="M18.4999 12.75C18.0857 12.75 17.7499 13.0858 17.7499 13.5C17.7499 13.9142 18.0857 14.25 18.4999 14.25C18.9142 14.25 19.2499 13.9142 19.2499 13.5C19.2499 13.0858 18.9142 12.75 18.4999 12.75ZM16.2499 13.5C16.2499 12.2574 17.2573 11.25 18.4999 11.25C19.7426 11.25 20.7499 12.2574 20.7499 13.5C20.7499 14.7426 19.7426 15.75 18.4999 15.75C17.2573 15.75 16.2499 14.7426 16.2499 13.5Z" fill="white"/>
</svg>
