<svg width="24" height="24" viewBox="0 0 24 24" fill="none" xmlns="http://www.w3.org/2000/svg">
<path fill-rule="evenodd" clip-rule="evenodd" d="M4.5 11.8125C4.5 7.77584 7.77584 4.5 11.8125 4.5C15.8492 4.5 19.125 7.77584 19.125 11.8125C19.125 15.8492 15.8492 19.125 11.8125 19.125C7.77584 19.125 4.5 15.8492 4.5 11.8125ZM15.5828 9.16235C15.3618 8.94402 15.0057 8.94617 14.7874 9.16717L10.7477 13.2553L8.84387 11.2661L8.79192 11.2182C8.57507 11.0418 8.25574 11.0504 8.04857 11.2487C7.82414 11.4635 7.81633 11.8195 8.03113 12.044L10.3353 14.4514L10.3883 14.5002C10.6096 14.6794 10.9362 14.6659 11.1418 14.4578L15.5876 9.95783L15.6341 9.90456C15.8044 9.68286 15.7868 9.36389 15.5828 9.16235Z" fill="#3A9232"/>
</svg>
