<svg width="24" height="24" viewBox="0 0 24 24" fill="none" xmlns="http://www.w3.org/2000/svg">
<path fill-rule="evenodd" clip-rule="evenodd" d="M11.8125 4.5C7.77392 4.5 4.5 7.77392 4.5 11.8125C4.5 15.8511 7.77392 19.125 11.8125 19.125C15.8511 19.125 19.125 15.8511 19.125 11.8125C19.125 7.77392 15.8511 4.5 11.8125 4.5ZM14.2558 8.5737C14.4441 8.38541 14.7748 8.41085 14.9945 8.63052C15.1985 8.8345 15.235 9.13423 15.0884 9.32676L15.0513 9.36919L12.608 11.8125L15.0513 14.2558C15.2396 14.4441 15.2141 14.7748 14.9945 14.9945C14.7905 15.1985 14.4908 15.235 14.2982 15.0884L14.2558 15.0513L11.8125 12.608L9.36919 15.0513C9.18091 15.2396 8.85019 15.2141 8.63052 14.9945C8.42654 14.7905 8.39004 14.4908 8.53662 14.2982L8.5737 14.2558L11.017 11.8125L8.5737 9.36919C8.38541 9.1809 8.41085 8.85019 8.63052 8.63052C8.8345 8.42654 9.13423 8.39004 9.32676 8.53661L9.36919 8.5737L11.8125 11.017L14.2558 8.5737Z" fill="#D23131"/>
</svg>
