<svg width="24" height="24" viewBox="0 0 24 24" fill="none" xmlns="http://www.w3.org/2000/svg">
<path fill-rule="evenodd" clip-rule="evenodd" d="M13.575 5.96262C13.575 5.35698 12.9697 4.94119 12.4094 5.15358L6.45406 7.40369C5.84149 7.6356 5.4375 8.22046 5.4375 8.88013V9.11711C6.03695 8.57847 6.82882 8.25009 7.695 8.25009H13.575V5.96262ZM5.4375 12.3076V11.6326C5.4375 10.3908 6.45316 9.37509 7.695 9.37509H14.1331L14.1375 9.37511L14.1419 9.37509H16.305C17.5468 9.37509 18.5625 10.3908 18.5625 11.6326V12.1501H17.61C17.4978 12.1501 17.3872 12.1588 17.279 12.1758C16.8391 12.2448 16.4392 12.4509 16.1311 12.7652C15.7045 13.1845 15.4583 13.7886 15.5189 14.4353C15.6159 15.5772 16.642 16.3502 17.6991 16.3502H18.5625V16.6801C18.5625 17.9219 17.5468 18.9376 16.305 18.9376H9.88266C10.1586 18.4341 10.3125 17.8558 10.3125 17.2501C10.3125 15.2819 8.71816 13.6876 6.75 13.6876C6.28752 13.6876 5.84449 13.7772 5.4375 13.9394V12.3076ZM4.3125 14.6527V12.3076V11.6326V8.88013C4.3125 7.75489 5.00365 6.74966 6.05593 6.3515L12.0106 4.10161C13.3103 3.609 14.7 4.57326 14.7 5.96262V8.25009H16.305C18.1682 8.25009 19.6875 9.76944 19.6875 11.6326V12.2647C20.1543 12.4709 20.4816 12.9333 20.4816 13.4777V15.0228C20.4816 15.5672 20.1543 16.0295 19.6875 16.2357V16.6801C19.6875 18.5432 18.1682 20.0626 16.305 20.0626H8.9276C8.32515 20.5385 7.56845 20.8126 6.75 20.8126C5.45103 20.8126 4.31952 20.1185 3.70386 19.0865C3.37373 18.5496 3.1875 17.9165 3.1875 17.2501C3.1875 16.2294 3.61595 15.3022 4.3125 14.6527ZM5.22549 15.3501L5.22464 15.3507C4.66575 15.7942 4.3125 16.481 4.3125 17.2501C4.3125 17.7071 4.44039 18.1376 4.66378 18.4998L4.6685 18.5075L4.66844 18.5075C5.0883 19.2134 5.86059 19.6876 6.75 19.6876C7.3665 19.6876 7.92242 19.4629 8.34513 19.083C8.35033 19.0783 8.35563 19.0736 8.36103 19.0691C8.54324 18.9163 8.70387 18.7264 8.82912 18.5117L8.83622 18.4998C9.05961 18.1376 9.1875 17.7071 9.1875 17.2501C9.1875 15.9033 8.09684 14.8126 6.75 14.8126C6.17885 14.8126 5.64867 15.0127 5.22561 15.35L5.22549 15.3501ZM19.1376 15.2252H19.1562C19.2774 15.2174 19.3566 15.1226 19.3566 15.0228V13.4777C19.3566 13.3779 19.2774 13.2831 19.1562 13.2752H17.6091C17.5556 13.2752 17.5034 13.2794 17.4528 13.2873C17.2487 13.3197 17.0697 13.4146 16.933 13.555L16.9229 13.5651C16.7234 13.7599 16.6119 14.0372 16.64 14.3318L16.6406 14.3384L16.6406 14.3384C16.6802 14.8146 17.1382 15.2251 17.7 15.2251H19.125L19.1376 15.2252ZM7.6875 12.0001C7.6875 11.6894 7.93934 11.4376 8.25 11.4376H13.5C13.8107 11.4376 14.0625 11.6894 14.0625 12.0001C14.0625 12.3108 13.8107 12.5626 13.5 12.5626H8.25C7.93934 12.5626 7.6875 12.3108 7.6875 12.0001ZM5.07129 17.2347C5.07129 16.9241 5.32313 16.6722 5.63379 16.6722H6.1875V16.1397C6.1875 15.8291 6.43934 15.5772 6.75 15.5772C7.06066 15.5772 7.3125 15.8291 7.3125 16.1397V16.6722H7.86879C8.17945 16.6722 8.43129 16.9241 8.43129 17.2347C8.43129 17.5454 8.17945 17.7972 7.86879 17.7972H7.3125V18.3822C7.3125 18.6929 7.06066 18.9447 6.75 18.9447C6.43934 18.9447 6.1875 18.6929 6.1875 18.3822V17.7972H5.63379C5.32313 17.7972 5.07129 17.5454 5.07129 17.2347Z" fill="black"/>
</svg>
