<svg width="16" height="15" viewBox="0 0 16 15" fill="none" xmlns="http://www.w3.org/2000/svg">
<path fill-rule="evenodd" clip-rule="evenodd" d="M12.016 2.43753C12.1075 2.39506 12.2071 2.37305 12.3079 2.37305C12.4087 2.37305 12.5084 2.39506 12.5998 2.43753C12.6904 2.47961 12.7708 2.54076 12.8355 2.6168L15.7639 5.85824L15.7702 5.86765C15.8066 5.92171 15.8299 5.98347 15.8383 6.04804C15.8456 6.10393 15.8416 6.16061 15.8266 6.21476C15.8229 6.27364 15.8079 6.33135 15.7824 6.38474C15.7536 6.44496 15.712 6.49816 15.6607 6.54071C15.5601 6.62858 15.4314 6.67774 15.2977 6.67927L15.2959 6.6793L14.4569 6.67929V11.5593L14.4569 11.5603C14.454 12.0148 14.2714 12.4496 13.949 12.7699C13.6266 13.0902 13.1907 13.27 12.7362 13.27H12.1114C11.657 13.27 11.2209 13.0902 10.8986 12.7699C10.5762 12.4496 10.3936 12.0148 10.3907 11.5603L10.3907 11.5593V6.67929H9.27781C9.14413 6.67775 9.01543 6.62858 8.91478 6.54071C8.86347 6.49816 8.82195 6.44496 8.79315 6.38474C8.76393 6.32364 8.74854 6.25687 8.74805 6.18917L8.74805 6.18841C8.74792 6.1358 8.75815 6.08362 8.77821 6.03489C8.78902 6.00864 8.80257 5.98367 8.81858 5.96039V5.89515L11.7803 2.6168C11.8451 2.54076 11.9255 2.47961 12.016 2.43753ZM12.3079 2.69049C12.2533 2.69049 12.1993 2.70242 12.1498 2.72544C12.1002 2.74845 12.0563 2.782 12.0211 2.82374L12.0176 2.82782L9.13603 6.01731V6.08227L9.08973 6.12873C9.08202 6.13647 9.07591 6.14566 9.07175 6.15576C9.06765 6.16572 9.06551 6.17643 9.06549 6.18728C9.06571 6.20825 9.0705 6.22889 9.07953 6.24778C9.08862 6.26678 9.10179 6.28356 9.11814 6.29694L9.12269 6.30067C9.16642 6.33924 9.2224 6.36098 9.28066 6.36184H10.7081V11.5588C10.7106 11.9292 10.8595 12.2836 11.1223 12.5447C11.3852 12.8059 11.7408 12.9525 12.1114 12.9525H12.7362C13.1068 12.9525 13.4624 12.8059 13.7253 12.5447C13.9881 12.2836 14.1369 11.9292 14.1395 11.5588V6.36184H15.2949C15.3531 6.36098 15.4092 6.33932 15.4529 6.30075L15.4573 6.29686C15.4736 6.28348 15.4869 6.26678 15.496 6.24778C15.5051 6.22877 15.5099 6.20798 15.51 6.18687L15.5102 6.16082L15.5187 6.13619C15.5239 6.12107 15.5256 6.10495 15.5235 6.0891C15.5218 6.07614 15.5177 6.06364 15.5114 6.05227L12.5947 2.82379C12.5595 2.78206 12.5156 2.74845 12.4661 2.72544C12.4165 2.70242 12.3625 2.69049 12.3079 2.69049Z" fill="black"/>
<path fill-rule="evenodd" clip-rule="evenodd" d="M10.904 12.5401C10.9374 12.5808 10.973 12.6199 11.0107 12.6574C11.3033 12.9481 11.6991 13.1113 12.1116 13.1113H12.7365C13.149 13.1113 13.5448 12.9481 13.8374 12.6574C14.13 12.3666 14.2958 11.9719 14.2984 11.5593V10.9243H15.8199V14.391H0.179688V10.9243H1.61069C2.31166 11.7316 3.1778 12.3789 4.15053 12.8225C5.12327 13.2661 6.17991 13.4957 7.24903 13.4957C8.31814 13.4957 9.37479 13.2661 10.3475 12.8225C10.5372 12.736 10.7229 12.6417 10.904 12.5401Z" fill="black"/>
<path fill-rule="evenodd" clip-rule="evenodd" d="M0 10.7441H1.69292L1.74671 10.8061C2.43079 11.5939 3.27607 12.2256 4.22537 12.6586C5.17467 13.0915 6.20587 13.3155 7.24923 13.3155C8.29259 13.3155 9.32378 13.0915 10.2731 12.6586C10.4582 12.5741 10.6394 12.4821 10.8162 12.3829L10.9477 12.3091L11.0433 12.4257C11.0728 12.4617 11.1043 12.4963 11.1377 12.5295C11.3966 12.7867 11.7468 12.9311 12.1118 12.9311H12.7367C13.1017 12.9311 13.4519 12.7867 13.7108 12.5295C13.9696 12.2723 14.1162 11.9233 14.1188 11.5585V10.7441H16V14.5706H0V10.7441ZM0.359772 11.1039V14.2108H15.6402V11.1039H14.4785V11.5591L14.4785 11.5602C14.4756 12.0202 14.2907 12.4604 13.9644 12.7847C13.638 13.1089 13.1967 13.2909 12.7366 13.2909H12.1118C11.6518 13.2909 11.2104 13.1089 10.8841 12.7847C10.8779 12.7785 10.8718 12.7723 10.8657 12.7661C10.7205 12.844 10.5727 12.9173 10.4224 12.9859C9.42619 13.4402 8.3441 13.6753 7.24923 13.6753C6.15436 13.6753 5.07226 13.4402 4.07609 12.9859C3.10493 12.543 2.23751 11.9018 1.52944 11.1039H0.359772Z" fill="black"/>
<path fill-rule="evenodd" clip-rule="evenodd" d="M11.9794 2.64508C11.0044 1.05825 9.25254 0 7.25354 0C4.19245 0 1.71094 2.48151 1.71094 5.5426C1.71094 8.6037 4.19245 11.0852 7.25354 11.0852C8.48817 11.0852 9.62852 10.6815 10.5498 9.99896V6.52055H9.28004C9.2325 6.52 9.18583 6.51106 9.14206 6.4945C9.17117 6.62096 9.18398 6.75159 9.17943 6.88325C9.19422 7.31472 9.03856 7.73464 8.74611 8.05221C8.42169 8.37958 7.99488 8.58589 7.53681 8.63672V9.35221H6.96239V8.65687C6.54912 8.61681 6.16007 8.44352 5.85388 8.16308C5.54569 7.84491 5.35089 7.43407 5.29962 6.99409L6.30736 6.88325C6.34373 7.07819 6.42671 7.26143 6.54923 7.41736C6.66386 7.54606 6.80959 7.64321 6.97248 7.69953V6.09721C6.53572 6.00413 6.13816 5.77895 5.83372 5.45224C5.5896 5.15456 5.46082 4.77896 5.47093 4.39412C5.47364 4.01751 5.62166 3.65649 5.88411 3.38637C6.17085 3.08928 6.56007 2.91269 6.97248 2.89257V2.50962H7.54689V2.89257C7.91847 2.91844 8.27184 3.06331 8.55463 3.30574C8.81059 3.54988 8.97734 3.87275 9.02827 4.22279L8.02053 4.3538C8.00156 4.21768 7.94678 4.08904 7.86179 3.98103C7.7768 3.87302 7.66466 3.78951 7.53681 3.73906V5.23054C8.02137 5.3214 8.47131 5.54465 8.8368 5.87551C8.88112 5.9292 8.92142 5.98562 8.95753 6.0443C8.96376 6.0371 8.97049 6.03005 8.97771 6.02281L9.01803 5.97858L11.9002 2.72134C11.924 2.69318 11.9505 2.66764 11.9794 2.64508ZM6.97248 3.66854C6.82521 3.71212 6.69498 3.80011 6.5996 3.92048C6.51006 4.03982 6.46067 4.18448 6.45852 4.33366C6.46209 4.46859 6.50792 4.599 6.58953 4.70652C6.68633 4.83651 6.81965 4.93473 6.97248 4.98869V3.66854ZM7.54689 7.69953C7.73467 7.66731 7.90555 7.57116 8.0306 7.42741C8.15726 7.30524 8.23289 7.13959 8.24223 6.96386C8.24744 6.80083 8.1897 6.64205 8.08099 6.52045C7.94143 6.37753 7.76254 6.27932 7.56705 6.23828L7.54689 7.69953Z" fill="black"/>
</svg>
