<svg width="16" height="12" viewBox="0 0 16 12" fill="none" xmlns="http://www.w3.org/2000/svg">
<path d="M14.4588 0.000741326H1.49422C1.29706 0.000735753 1.10184 0.0397357 0.91982 0.115527C0.737801 0.191318 0.572582 0.30239 0.433687 0.44233C0.294792 0.582269 0.184966 0.748307 0.11054 0.930888C0.0361144 1.11347 -0.00144022 1.30899 4.22381e-05 1.50615V10.4937C-0.00144022 10.6909 0.0361144 10.8864 0.11054 11.0689C0.184966 11.2515 0.294792 11.4176 0.433687 11.5575C0.572582 11.6975 0.737801 11.8085 0.91982 11.8843C1.10184 11.9601 1.29706 11.9991 1.49422 11.9991H14.4588C14.8532 12.0113 15.2365 11.8669 15.5248 11.5974C15.8132 11.328 15.9832 10.9555 15.9979 10.5611V1.57356C16.0089 1.36698 15.9769 1.16037 15.9038 0.966819C15.8308 0.773265 15.7184 0.59697 15.5737 0.449118C15.4291 0.301266 15.2553 0.185067 15.0633 0.107881C14.8714 0.0306958 14.6655 -0.00577236 14.4588 0.000741326ZM12.695 1.00059L7.95403 4.74168L3.22433 1.00059H12.695ZM13.9532 11.0105H1.99977V2.697L7.99897 7.31434L13.9982 2.697L13.9532 11.0105Z" fill="#D44638"/>
</svg>
