<svg width="17" height="16" viewBox="0 0 17 16" fill="none" xmlns="http://www.w3.org/2000/svg">
<path d="M15.1225 0.00115326H0.876343C0.643922 0.00115326 0.421023 0.0934795 0.256676 0.257826C0.0923305 0.422172 0 0.645074 0 0.877494V15.1237C0 15.3561 0.0923305 15.579 0.256676 15.7433C0.421023 15.9077 0.643922 16 0.876343 16H8.53872V9.80944H6.46021V7.39387H8.53872V5.60748C8.49654 5.18481 8.54741 4.75801 8.68775 4.35709C8.8281 3.95617 9.05452 3.59084 9.35111 3.28675C9.64771 2.98267 10.0073 2.74721 10.4046 2.5969C10.8019 2.44659 11.2273 2.38508 11.6509 2.4167C12.5384 2.4167 13.2912 2.48412 13.5159 2.50659V4.66374H12.2126C11.2127 4.66374 11.0217 5.13561 11.0217 5.78725V7.32646H13.4148L13.1227 9.75326H11.0891V15.9551H15.1675C15.3999 15.9551 15.6228 15.8627 15.7871 15.6984C15.9515 15.534 16.0438 15.3111 16.0438 15.0787V0.877494C16.044 0.75853 16.0199 0.64078 15.9731 0.531418C15.9262 0.422056 15.8576 0.32336 15.7714 0.241368C15.6852 0.159376 15.5833 0.0958043 15.4717 0.0545038C15.3601 0.0132033 15.2413 -0.00494757 15.1225 0.00115326Z" fill="#3B5998"/>
</svg>
