<svg width="32" height="32" viewBox="0 0 32 32" fill="none" xmlns="http://www.w3.org/2000/svg">
<circle cx="16" cy="16" r="16" fill="white"/>
<path d="M16.0001 0.0668945C7.16358 0.0668945 0 7.23047 0 16.067C0 23.9923 5.76835 30.5558 13.3316 31.8268V19.405H9.47191V14.935H13.3316V11.6389C13.3316 7.81452 15.6674 5.73046 19.0795 5.73046C20.7137 5.73046 22.1181 5.85223 22.5258 5.90586V9.90336L20.1593 9.9045C18.304 9.9045 17.9464 10.7859 17.9464 12.0798V14.9327H22.3731L21.7957 19.4027H17.9464V31.9337C25.8627 30.9702 32 24.2395 32 16.0624C32 7.23047 24.8364 0.0668945 16.0001 0.0668945Z" fill="#3B5998"/>
</svg>
