<svg width="140" height="40" viewBox="0 0 140 40" fill="none" xmlns="http://www.w3.org/2000/svg">
<path d="M134.815 40H5.18519C2.33337 40 0 37.75 0 35V5.00002C0 2.25 2.33332 0 5.18519 0H134.815C137.667 0 140 2.25 140 5.00002V35C140 37.75 137.667 40 134.815 40Z" fill="black"/>
<path d="M134.815 0H5.18519C2.33337 0 0 2.25 0 5.00002V35C0 37.75 2.33332 40 5.18519 40H134.815C137.667 40 140 37.75 140 35V5.00002C140 2.25 137.667 0 134.815 0H134.815ZM134.815 0.799975C137.217 0.799975 139.17 2.68441 139.17 5.00002V35C139.17 37.316 137.217 39.2004 134.815 39.2004H5.18519C2.78385 39.2004 0.829638 37.316 0.829638 35V5.00002C0.829638 2.68441 2.78381 0.80002 5.18519 0.80002H134.815" fill="#A6A6A6"/>
<path d="M49.3079 10.2433C49.3079 11.0811 49.0607 11.7483 48.5656 12.246C48.0033 12.8378 47.2704 13.1339 46.3694 13.1339C45.5065 13.1339 44.7729 12.8339 44.1696 12.2331C43.5653 11.6327 43.2637 10.8882 43.2637 9.9999C43.2637 9.11121 43.5653 8.36714 44.1696 7.76626C44.7729 7.16592 45.5065 6.86548 46.3694 6.86548C46.7975 6.86548 47.2074 6.94952 47.5966 7.11711C47.9857 7.28511 48.2979 7.50811 48.5314 7.78738L48.006 8.3151C47.6102 7.8405 47.0653 7.60339 46.3694 7.60339C45.7401 7.60339 45.196 7.82531 44.7368 8.26944C44.2775 8.71401 44.0479 9.29053 44.0479 9.9999C44.0479 10.7093 44.2775 11.2858 44.7368 11.7304C45.196 12.1745 45.7401 12.3964 46.3694 12.3964C47.0369 12.3964 47.5935 12.1733 48.0391 11.7265C48.3283 11.4354 48.4956 11.0308 48.5403 10.5112H46.3693V9.79051H49.2662C49.2942 9.94723 49.3078 10.0976 49.3078 10.2433" fill="white"/>
<path d="M49.3089 10.2433H49.2092C49.2084 11.062 48.9702 11.6979 48.4961 12.1753L48.4951 12.1761L48.4946 12.1769C47.9501 12.7483 47.2502 13.0327 46.3703 13.0339C45.5305 13.0327 44.8276 12.7452 44.2406 12.1624C43.6549 11.5784 43.3653 10.8655 43.3642 9.99992C43.3653 9.13392 43.6549 8.42141 44.2406 7.83783C44.8276 7.25461 45.5305 6.96671 46.3703 6.9655C46.7856 6.9655 47.181 7.04684 47.5581 7.20891C47.9357 7.37223 48.2339 7.58624 48.4561 7.85194L48.5323 7.7874L48.4619 7.71671L47.9365 8.24478L48.0069 8.31512L48.0836 8.25112C47.6694 7.75302 47.0881 7.50193 46.3703 7.50341C45.7177 7.5026 45.1436 7.73666 44.6687 8.19764C44.1893 8.6601 43.9484 9.26907 43.9492 9.99992C43.9484 10.7308 44.1893 11.3397 44.6687 11.8022C45.1436 12.2632 45.7177 12.4972 46.3703 12.4964C47.0599 12.4976 47.6477 12.2628 48.1104 11.7972C48.4195 11.4862 48.5946 11.0554 48.6406 10.5198L48.6499 10.4112H46.4699V9.89053H49.2672V9.79053L49.169 9.80811C49.1963 9.95974 49.2092 10.1038 49.2092 10.2433H49.4085C49.4085 10.0913 49.3944 9.93511 49.3652 9.77265L49.3505 9.69054H46.2707V10.6112H48.5413V10.5112L48.4421 10.5026C48.3981 11.0058 48.2385 11.3847 47.9696 11.6559C47.5415 12.0839 47.016 12.2952 46.3703 12.2964C45.7644 12.2956 45.2503 12.0862 44.807 11.6585C44.368 11.2323 44.1496 10.6882 44.1485 9.99992C44.1496 9.31163 44.368 8.76751 44.807 8.34132C45.2503 7.9136 45.7643 7.70422 46.3703 7.70341C47.0441 7.70503 47.5528 7.92843 47.9307 8.37961L48.0008 8.4632L48.6028 7.85814L48.6674 7.79334L48.6086 7.72332C48.3638 7.43043 48.0377 7.19794 47.6368 7.02536C47.2352 6.85224 46.8113 6.7655 46.3703 6.7655C45.4846 6.76474 44.7202 7.07722 44.1002 7.69563C43.4779 8.31283 43.1642 9.08862 43.165 9.99992C43.1642 10.9108 43.4779 11.6871 44.1006 12.3046C44.7202 12.9226 45.4846 13.2347 46.3703 13.2339C47.2928 13.2347 48.058 12.9272 48.6386 12.3151L48.5666 12.246L48.637 12.3167C49.1531 11.7991 49.4092 11.0999 49.4085 10.2433H49.3088H49.3089ZM53.9013 7.73702H51.1789V9.63944H53.634V10.3604H51.1789V12.2628H53.9013V12.9999H50.4114V6.99992H53.9013V7.73702Z" fill="white"/>
<path d="M53.901 7.73712V7.63712H51.079V9.73953H53.5341V10.2602L51.079 10.2605V12.3629H53.8014V12.9H50.5108V7.10002H53.8014V7.73712H53.901V7.63712V7.73712H54.0007V6.90002H50.3115V13.1H54.0007V12.1629H51.2782V10.4605H53.7334V9.53954H51.2782V7.83712H54.0007V7.73712H53.901ZM57.1403 13.0001H56.3717V7.73708H54.702V6.99998H58.81V7.73708H57.1403V13" fill="white"/>
<path d="M57.1405 13.0001V12.9H56.4715V7.63712H54.8018V7.10006H58.7105V7.63712H57.0409V13H57.1405V12.9V13H57.2401V7.83712H58.9098V6.90002H54.6025V7.83707H56.2722V13.1H57.2401V13H57.1405V13.0001ZM61.7825 13.0001V6.99998H62.5503V13H61.7825" fill="white"/>
<path d="M61.7822 13.0001H61.8819V7.10002H62.4505V12.9H61.7822V13H61.8819H61.7822V13.1H62.6497V6.90002H61.6826V13.1H61.7822V13V13.0001ZM65.9575 13.0001H65.1888V7.73708H63.5192V6.99998H67.6272V7.73708H65.9575V13" fill="white"/>
<path d="M65.9578 12.9999V12.8999H65.2888V7.63701H63.6192V7.09994H67.5278V7.63701H65.8582V12.9999H65.9578V12.8999V12.9999H66.0574V7.837H67.7271V6.8999H63.4199V7.83695H65.0895V13.0999H66.0574V12.9999H65.9578V12.9999ZM71.588 11.7222C72.0304 12.1718 72.5718 12.3964 73.2121 12.3964C73.8523 12.3964 74.394 12.1718 74.8358 11.7222C75.2787 11.2726 75.5006 10.6979 75.5006 9.9999C75.5006 9.30194 75.2787 8.72722 74.8358 8.27762C74.394 7.82801 73.8523 7.60339 73.2121 7.60339C72.5718 7.60339 72.0304 7.82801 71.588 8.27762C71.1462 8.72722 70.9244 9.3019 70.9244 9.9999C70.9244 10.6979 71.1462 11.2726 71.588 11.7222ZM75.404 12.2245C74.8163 12.8311 74.0854 13.1339 73.2121 13.1339C72.3379 13.1339 71.6073 12.8311 71.0209 12.2245C70.4328 11.6186 70.1401 10.8769 70.1401 9.9999C70.1401 9.12289 70.4328 8.38107 71.0209 7.77529C71.6074 7.16857 72.3379 6.86548 73.2121 6.86548C74.0808 6.86548 74.8097 7.17019 75.4002 7.7792C75.9898 8.38817 76.2848 9.12838 76.2848 9.9999C76.2848 10.8769 75.9905 11.6186 75.404 12.2245Z" fill="white"/>
<path d="M71.5875 11.7222L71.5166 11.7925C71.9755 12.2601 72.548 12.4976 73.2116 12.4964C73.8748 12.4976 74.448 12.2601 74.9062 11.7925C75.3681 11.3245 75.6004 10.719 75.5997 9.99992C75.6004 9.28084 75.3681 8.67533 74.9062 8.2073C74.448 7.73972 73.8748 7.50225 73.2116 7.50341C72.548 7.50225 71.9755 7.73972 71.5166 8.2073C71.0558 8.67533 70.823 9.28084 70.8243 9.99992C70.823 10.719 71.0558 11.3245 71.5166 11.7925L71.5875 11.7222L71.6583 11.6519C71.2357 11.2202 71.0243 10.6772 71.0235 9.99992C71.0243 9.32264 71.2357 8.77964 71.6583 8.34793C72.0848 7.91634 72.5943 7.70462 73.2116 7.70345C73.8284 7.70462 74.3391 7.91634 74.7645 8.34793C75.188 8.77964 75.3993 9.32264 75.4 9.99992C75.3993 10.6772 75.188 11.2202 74.7645 11.6519C74.3391 12.0835 73.8285 12.2952 73.2116 12.2964C72.5943 12.2952 72.0848 12.0835 71.6583 11.6519L71.5875 11.7222ZM75.4035 12.2245L75.3323 12.155C74.761 12.7425 74.0624 13.0328 73.2116 13.0339C72.3604 13.0327 71.6618 12.7425 71.0916 12.155L71.0889 12.1519L71.0916 12.155C70.5215 11.5655 70.2401 10.8546 70.2393 9.99992C70.2401 9.1452 70.5215 8.43431 71.0916 7.84484C71.6618 7.25731 72.3604 6.96671 73.2116 6.96554C74.0569 6.96671 74.7539 7.25852 75.3284 7.84911C75.9005 8.44132 76.1835 9.15109 76.1847 9.99992C76.1835 10.8546 75.9013 11.5655 75.3323 12.155L75.4035 12.2245L75.4752 12.294C76.0792 11.6714 76.3847 10.8991 76.384 9.99992C76.3847 9.10583 76.078 8.33512 75.4712 7.70974C74.8641 7.0819 74.1036 6.76443 73.2116 6.76551C72.3149 6.76443 71.5521 7.08042 70.9488 7.70584V7.70539C70.3436 8.32842 70.0392 9.10071 70.04 9.99992C70.0392 10.8991 70.3436 11.6714 70.9488 12.2944L70.9515 12.2972L70.9488 12.294C71.5521 12.9194 72.3149 13.2347 73.2116 13.2339C74.1079 13.2347 74.8707 12.9194 75.4752 12.294L75.4035 12.2245ZM77.3624 13V6.99988H78.2973L81.2026 11.6675H81.2357L81.2026 10.5112V6.99988H81.9713V12.9999H81.1695L78.1299 8.10609H78.0968L78.1299 9.26277V12.9999H77.3624" fill="white"/>
<path d="M77.3624 13.0001H77.4621V7.10002H78.242L81.1473 11.7676H81.338L81.3023 10.5098V7.10006H81.8717V12.9H81.2248L78.1852 8.00624H77.9945L78.0303 9.26454V12.9H77.3624V13H77.4621H77.3624V13.1H78.2295V9.26134L78.1965 8.10354L78.0968 8.10623V8.20623H78.1299V8.10623L78.0454 8.1594L81.1143 13.1H82.0709V6.90002H81.103V10.5125L81.1361 11.6703L81.2357 11.6676V11.5676H81.2026V11.6676L81.2871 11.6145L78.3525 6.90002H77.2628V13.1H77.3625V13L77.3624 13.0001ZM108.608 30H110.468V17.4988H108.608L108.608 30ZM125.354 22.0021L123.223 27.422H123.159L120.947 22.002H118.944L122.261 29.5773L120.37 33.7911H122.31L127.421 22.002L125.354 22.0021ZM114.811 28.5802C114.201 28.5802 113.352 28.2746 113.352 27.5184C113.352 26.5535 114.41 26.1837 115.323 26.1837C116.141 26.1837 116.524 26.3605 117.022 26.6021C116.877 27.7598 115.884 28.5802 114.811 28.5802ZM115.035 21.7286C113.689 21.7286 112.295 22.3238 111.718 23.6427L113.368 24.334C113.721 23.6427 114.377 23.4172 115.067 23.4172C116.028 23.4172 117.006 23.9965 117.022 25.0258V25.1544C116.685 24.9614 115.964 24.6719 115.083 24.6719C113.304 24.6719 111.493 25.6528 111.493 27.4864C111.493 29.1591 112.951 30.2367 114.585 30.2367C115.836 30.2367 116.524 29.6738 116.958 29.0145H117.022V29.9794H118.816V25.1863C118.816 22.9673 117.166 21.7286 115.035 21.7286ZM103.545 23.5238H100.901V19.2387H103.545C104.935 19.2387 105.724 20.3938 105.724 21.3812C105.724 22.35 104.935 23.5238 103.545 23.5238ZM103.497 17.4988H99.0425V30H100.901V25.2637H103.497C105.558 25.2637 107.583 23.7664 107.583 21.3812C107.583 18.9961 105.558 17.4988 103.497 17.4988ZM79.2053 28.5825C77.9209 28.5825 76.8455 27.5032 76.8455 26.0207C76.8455 24.5228 77.9209 23.427 79.2053 23.427C80.4733 23.427 81.4685 24.5227 81.4685 26.0207C81.4685 27.5032 80.4733 28.5825 79.2053 28.5825H79.2053ZM81.34 22.7021H81.2758C80.8586 22.2027 80.0556 21.7517 79.0446 21.7517C76.9257 21.7517 74.9837 23.6204 74.9837 26.0207C74.9837 28.4052 76.9257 30.2579 79.0446 30.2579C80.0556 30.2579 80.8586 29.8066 81.2758 29.2914H81.34V29.9035C81.34 31.5309 80.4733 32.4009 79.0769 32.4009C77.9372 32.4009 77.2309 31.5789 76.9417 30.8863L75.3208 31.5629C75.7862 32.6906 77.0223 34.0763 79.0769 34.0763C81.2598 34.0763 83.1058 32.7871 83.1058 29.6457V22.0094H81.34V22.7021ZM84.3898 30H86.2517V17.4984H84.3898V30ZM88.9966 25.8758C88.9484 24.2324 90.2647 23.3949 91.2116 23.3949C91.9505 23.3949 92.5762 23.7653 92.7844 24.2974L88.9966 25.8758ZM94.7752 24.4582C94.4224 23.5074 93.3464 21.7517 91.1473 21.7517C88.9644 21.7517 87.1507 23.4754 87.1507 26.0047C87.1507 28.3892 88.9484 30.2579 91.356 30.2579C93.2986 30.2579 94.4224 29.0656 94.8877 28.373L93.443 27.4062C92.9618 28.1152 92.3032 28.5825 91.356 28.5825C90.4091 28.5825 89.735 28.1473 89.3014 27.2937L94.9674 24.9414L94.7752 24.4582ZM49.6326 23.0566V24.861H53.9343C53.8059 25.8758 53.4688 26.6169 52.9551 27.1324C52.3293 27.761 51.3501 28.4536 49.6326 28.4536C46.984 28.4536 44.9135 26.3109 44.9135 23.6527C44.9135 20.9946 46.984 18.8517 49.6326 18.8517C51.0613 18.8517 52.1043 19.4156 52.8749 20.1406L54.1429 18.868C53.0676 17.8367 51.6389 17.0474 49.6326 17.0474C46.0048 17.0474 42.9551 20.0118 42.9551 23.6527C42.9551 27.2937 46.0048 30.2579 49.6326 30.2579C51.591 30.2579 53.0676 29.6137 54.2231 28.4052C55.411 27.2129 55.7803 25.5376 55.7803 24.1844C55.7803 23.7653 55.7484 23.3789 55.6838 23.0566H49.6326ZM60.671 28.5825C59.3866 28.5825 58.279 27.5191 58.279 26.0047C58.279 24.4742 59.3866 23.427 60.671 23.427C61.9549 23.427 63.0625 24.4742 63.0625 26.0047C63.0625 27.5192 61.9549 28.5825 60.671 28.5825ZM60.671 21.7517C58.3272 21.7517 56.417 23.5398 56.417 26.0047C56.417 28.4536 58.3272 30.2579 60.671 30.2579C63.0143 30.2579 64.9245 28.4536 64.9245 26.0047C64.9245 23.5398 63.0143 21.7517 60.671 21.7517ZM69.9501 28.5825C68.6663 28.5825 67.5585 27.5191 67.5585 26.0047C67.5585 24.4742 68.6663 23.427 69.9501 23.427C71.2341 23.427 72.3418 24.4742 72.3418 26.0047C72.3418 27.5192 71.2341 28.5825 69.9501 28.5825H69.9501ZM69.9501 21.7517C67.6064 21.7517 65.6967 23.5398 65.6967 26.0047C65.6967 28.4536 67.6064 30.2579 69.9501 30.2579C72.2935 30.2579 74.2038 28.4536 74.2038 26.0047C74.2038 23.5398 72.2935 21.7517 69.9501 21.7517H69.9501Z" fill="white"/>
<path d="M12.5339 7.61124C12.1996 7.91402 12 8.41903 12 9.0894V8.93785V31.059V30.9133C12 31.5323 12.1712 32.0104 12.4611 32.3183L12.5351 32.3894V32.3897C12.7698 32.6023 13.0707 32.7151 13.4155 32.7148C13.7525 32.7148 14.1316 32.607 14.5317 32.3793L28.9938 24.132L33.9615 21.2988C34.5924 20.939 34.9466 20.475 35.0058 20.0023V20.0003C34.9466 19.5266 34.5924 19.0628 33.9615 18.7031L28.9934 15.8702L14.5318 7.62293C14.1308 7.39484 13.7514 7.28662 13.4136 7.28662C13.0691 7.28662 12.7686 7.39911 12.534 7.61124H12.5339Z" fill="#00C1FF"/>
<path d="M12.5352 32.3894L12.4611 32.3183C12.1712 32.0105 12 31.5323 12 30.9132V31.0589V8.94331V9.08938C12 8.41902 12.1996 7.914 12.5339 7.61122L24.8785 20.0007L12.5352 32.3894Z" fill="url(#paint0_linear_232_4828)"/>
<path d="M28.9933 24.1321L24.8779 20.0009L28.993 15.8704L33.961 18.7032C34.5919 19.063 34.9461 19.5267 35.0053 20.0005V20.0024C34.9461 20.4751 34.5919 20.9392 33.961 21.2989L28.9934 24.132" fill="url(#paint1_linear_232_4828)"/>
<path d="M13.4155 32.7148C13.0707 32.7152 12.7698 32.6023 12.5352 32.3898V32.3895L24.8785 20.0008L28.9939 24.132L14.5317 32.3793C14.1316 32.607 13.7524 32.7148 13.4155 32.7148Z" fill="url(#paint2_linear_232_4828)"/>
<path d="M24.8787 20.0007L12.5342 7.61123C12.7688 7.39911 13.0693 7.28661 13.4137 7.28661C13.7516 7.28661 14.131 7.39479 14.532 7.62292L28.9937 15.8702L24.8787 20.0007" fill="url(#paint3_linear_232_4828)"/>
<path d="M13.4166 32.8613C13.0718 32.8613 12.7705 32.7484 12.5359 32.5359L12.5355 32.5363C12.5345 32.5353 12.5335 32.5344 12.5324 32.5336L12.4682 32.4707C12.4662 32.4687 12.4643 32.4664 12.4619 32.4641L12.5359 32.3898C12.7706 32.6023 13.0714 32.7152 13.4163 32.7148C13.7532 32.7148 14.1324 32.607 14.5325 32.3793L28.9946 24.132L29.0873 24.225L28.9934 24.2785L14.5324 32.5254C14.1678 32.7328 13.821 32.841 13.5077 32.859C13.4774 32.8605 13.447 32.8613 13.4166 32.8613" fill="url(#paint4_linear_232_4828)"/>
<path d="M12.4611 32.4641C12.1712 32.1563 12 31.6785 12 31.059V30.9133C12 31.5324 12.1712 32.0105 12.4611 32.3184L12.5351 32.3895L12.4611 32.4641Z" fill="url(#paint5_linear_232_4828)"/>
<path d="M29.0858 24.2249L28.9932 24.1319L33.9608 21.2988C34.5917 20.9391 34.9459 20.475 35.0051 20.0023C35.0051 20.1757 34.9665 20.3492 34.8899 20.518C34.7354 20.8582 34.4256 21.1797 33.9608 21.4449L29.0858 24.225" fill="url(#paint6_linear_232_4828)"/>
<path d="M35.0055 20.0005C34.9463 19.5267 34.5921 19.063 33.9612 18.7032L28.9932 15.8704L29.0858 15.7773H29.0862L33.9612 18.5575C34.6568 18.9544 35.0051 19.4774 35.0055 20.0005Z" fill="url(#paint7_linear_232_4828)"/>
<path d="M12 9.0896V8.93679C12 8.88169 12.0015 8.82781 12.0043 8.77549V8.77311C12.0043 8.77239 12.0043 8.77163 12.0046 8.77082V8.76493C12.0346 8.23169 12.1996 7.81574 12.4611 7.538L12.5339 7.61139C12.1996 7.91421 12 8.41923 12 9.0896Z" fill="url(#paint8_linear_232_4828)"/>
<path d="M28.9942 15.8704L14.5325 7.62299C14.1316 7.3949 13.7522 7.28673 13.4143 7.28673C13.0699 7.28673 12.7694 7.39922 12.5348 7.61135L12.4619 7.53791C12.4847 7.51374 12.5083 7.49043 12.5328 7.46803C12.5335 7.46722 12.5348 7.46641 12.5355 7.46564C12.7683 7.25513 13.0656 7.14264 13.407 7.14062H13.4143C13.7522 7.14062 14.1316 7.24884 14.5325 7.47701L29.0873 15.777L29.0869 15.7773L28.9942 15.8704Z" fill="url(#paint9_linear_232_4828)"/>
<defs>
<linearGradient id="paint0_linear_232_4828" x1="19.8889" y1="8.70957" x2="9.22888" y2="19.3649" gradientUnits="userSpaceOnUse">
<stop stop-color="#00A0FF"/>
<stop offset="0.00657" stop-color="#00A1FF"/>
<stop offset="0.2601" stop-color="#00BEFF"/>
<stop offset="0.5122" stop-color="#00D2FF"/>
<stop offset="0.7604" stop-color="#00DFFF"/>
<stop offset="1" stop-color="#00E3FF"/>
</linearGradient>
<linearGradient id="paint1_linear_232_4828" x1="35.7739" y1="19.9295" x2="11.6654" y2="19.9295" gradientUnits="userSpaceOnUse">
<stop stop-color="#FFE000"/>
<stop offset="0.4087" stop-color="#FFBD00"/>
<stop offset="0.7754" stop-color="#FFA500"/>
<stop offset="1" stop-color="#FF9C00"/>
</linearGradient>
<linearGradient id="paint2_linear_232_4828" x1="26.8089" y1="23.9286" x2="8.745" y2="41.8527" gradientUnits="userSpaceOnUse">
<stop stop-color="#FF3A44"/>
<stop offset="1" stop-color="#C31162"/>
</linearGradient>
<linearGradient id="paint3_linear_232_4828" x1="9.35264" y1="5.77443" x2="17.4034" y2="13.7751" gradientUnits="userSpaceOnUse">
<stop stop-color="#32A071"/>
<stop offset="0.0685" stop-color="#2DA771"/>
<stop offset="0.4762" stop-color="#15CF74"/>
<stop offset="0.8009" stop-color="#06E775"/>
<stop offset="1" stop-color="#00F076"/>
</linearGradient>
<linearGradient id="paint4_linear_232_4828" x1="26.8007" y1="26.7942" x2="12.3339" y2="41.2547" gradientUnits="userSpaceOnUse">
<stop stop-color="#CC2E36"/>
<stop offset="1" stop-color="#9C0E4E"/>
</linearGradient>
<linearGradient id="paint5_linear_232_4828" x1="13.6445" y1="8.70972" x2="4.25318" y2="18.0971" gradientUnits="userSpaceOnUse">
<stop stop-color="#008DE0"/>
<stop offset="0.00657" stop-color="#008DE0"/>
<stop offset="0.2601" stop-color="#00A7E0"/>
<stop offset="0.5122" stop-color="#00B8E0"/>
<stop offset="0.7604" stop-color="#00C4E0"/>
<stop offset="1" stop-color="#00C7E0"/>
</linearGradient>
<linearGradient id="paint6_linear_232_4828" x1="35.7738" y1="20.0013" x2="11.6653" y2="20.0013" gradientUnits="userSpaceOnUse">
<stop stop-color="#E0C500"/>
<stop offset="0.4087" stop-color="#E0A600"/>
<stop offset="0.7754" stop-color="#E09100"/>
<stop offset="1" stop-color="#E08900"/>
</linearGradient>
<linearGradient id="paint7_linear_232_4828" x1="35.7742" y1="20.0015" x2="11.6657" y2="20.0015" gradientUnits="userSpaceOnUse">
<stop stop-color="#FFE840"/>
<stop offset="0.4087" stop-color="#FFCE40"/>
<stop offset="0.7754" stop-color="#FFBC40"/>
<stop offset="1" stop-color="#FFB540"/>
</linearGradient>
<linearGradient id="paint8_linear_232_4828" x1="13.6343" y1="8.72678" x2="4.58955" y2="17.3758" gradientUnits="userSpaceOnUse">
<stop stop-color="#40B8FF"/>
<stop offset="0.00657" stop-color="#40B9FF"/>
<stop offset="0.2601" stop-color="#40CEFF"/>
<stop offset="0.5122" stop-color="#40DDFF"/>
<stop offset="0.7604" stop-color="#40E7FF"/>
<stop offset="1" stop-color="#40EAFF"/>
</linearGradient>
<linearGradient id="paint9_linear_232_4828" x1="9.33518" y1="8.39469" x2="15.7952" y2="14.852" gradientUnits="userSpaceOnUse">
<stop stop-color="#65B895"/>
<stop offset="0.0685" stop-color="#62BD95"/>
<stop offset="0.4762" stop-color="#50DB97"/>
<stop offset="0.8009" stop-color="#44ED98"/>
<stop offset="1" stop-color="#40F498"/>
</linearGradient>
</defs>
</svg>
