<svg width="186" height="306" viewBox="0 0 186 306" fill="none" xmlns="http://www.w3.org/2000/svg">
<g opacity="0.7">
<rect x="1.5" y="1.5" width="183" height="303" rx="21.5" fill="#1D1D1D" stroke="#FCFCFD" stroke-width="3"/>
<rect x="15" y="42" width="156" height="222" fill="#2F333F"/>
<rect x="75" y="20" width="36" height="4" rx="2" fill="#FCFCFD"/>
<circle cx="93" cy="282" r="11" fill="#FCFCFD"/>
<circle cx="152" cy="235" r="11" fill="#8A8779"/>
<path d="M147.938 236.414H151.18V239.414H153.172V236.414H156.422V234.422H153.172V231.414H151.18V234.422H147.938V236.414Z" fill="#FCFCFD"/>
<rect x="45" y="193" width="118" height="20" rx="5" fill="#8A8779"/>
<path fill-rule="evenodd" clip-rule="evenodd" d="M61.226 200.403L61.9141 199.715C62.5353 199.094 62.5353 198.087 61.9141 197.466C61.293 196.845 60.2859 196.845 59.6648 197.466L58.9627 198.168C59.4871 199.109 60.2712 199.887 61.226 200.403ZM57.5075 199.623L54.3355 202.795C53.9104 203.22 53.6979 203.433 53.5582 203.694C53.4184 203.955 53.3595 204.25 53.2416 204.839L53.0639 205.728C52.9973 206.06 52.9641 206.227 53.0587 206.321C53.1533 206.416 53.3196 206.383 53.6522 206.316L54.5409 206.138C55.1303 206.021 55.425 205.962 55.6861 205.822C55.9472 205.682 56.1598 205.47 56.5848 205.045L59.767 201.862C58.8639 201.28 58.0948 200.516 57.5075 199.623Z" fill="white"/>
<rect width="10" height="1" rx="0.5" transform="matrix(1 0 0 -1 53 208)" fill="#FCFCFD"/>
<path d="M69.1992 207H74.4375V206.051H70.2539V203.145H74.2207V202.207H70.2539V199.494H74.4375V198.545H69.1992V207ZM75.6738 207H76.6934V203.414C76.6934 202.377 77.3203 201.691 78.2812 201.691C79.2188 201.691 79.6816 202.236 79.6816 203.227V207H80.7012V203.045C80.7012 201.656 79.9277 200.789 78.5918 200.789C77.666 200.789 77.0449 201.205 76.7168 201.773H76.6934V200.906H75.6738V207ZM83.9824 207.117C84.1816 207.117 84.3984 207.094 84.5273 207.076V206.25C84.4395 206.256 84.3223 206.273 84.1992 206.273C83.6543 206.273 83.3672 206.092 83.3672 205.441V201.75H84.5273V200.906H83.3672V199.26H82.3125V200.906H81.4219V201.75H82.3125V205.447C82.3125 206.613 82.8633 207.117 83.9824 207.117ZM87.9551 207.117C89.2852 207.117 90.2812 206.32 90.4805 205.312L90.4922 205.254H89.4902L89.4727 205.307C89.2969 205.828 88.752 206.215 87.9785 206.215C86.8945 206.215 86.2031 205.482 86.1797 204.229H90.5684V203.854C90.5684 202.025 89.5547 200.789 87.8906 200.789C86.2266 200.789 85.1484 202.084 85.1484 203.971V203.977C85.1484 205.893 86.2031 207.117 87.9551 207.117ZM87.8848 201.691C88.7754 201.691 89.4316 202.248 89.5312 203.432H86.1973C86.3086 202.295 87 201.691 87.8848 201.691ZM91.5996 207H92.6191V203.238C92.6191 202.312 93.1348 201.762 93.9258 201.762C94.1719 201.762 94.3887 201.791 94.4707 201.82V200.83C94.3887 200.818 94.2363 200.789 94.0605 200.789C93.375 200.789 92.8477 201.234 92.6426 201.938H92.6191V200.906H91.5996V207ZM99.5449 207.117C100.359 207.117 101.092 206.678 101.449 206.01H101.473V207H102.492V202.787C102.492 201.568 101.59 200.789 100.148 200.789C98.7129 200.789 97.8398 201.598 97.752 202.6L97.7461 202.664H98.7305L98.7422 202.611C98.8594 202.066 99.3516 201.691 100.137 201.691C100.986 201.691 101.473 202.143 101.473 202.887V203.396L99.7266 203.496C98.3262 203.578 97.5176 204.229 97.5176 205.266V205.277C97.5176 206.385 98.332 207.117 99.5449 207.117ZM98.5605 205.277V205.266C98.5605 204.697 99.0293 204.334 99.8438 204.287L101.473 204.188V204.686C101.473 205.57 100.734 206.232 99.7734 206.232C99.041 206.232 98.5605 205.863 98.5605 205.277ZM108.41 207.117C109.77 207.117 110.777 206.367 110.777 205.301V205.295C110.777 204.428 110.332 203.941 109.102 203.643L108.135 203.408C107.461 203.244 107.186 202.957 107.186 202.541V202.535C107.186 201.996 107.643 201.639 108.381 201.639C109.137 201.639 109.588 202.031 109.67 202.623L109.676 202.664H110.648L110.643 202.588C110.566 201.568 109.717 200.789 108.381 200.789C107.062 200.789 106.143 201.533 106.143 202.582V202.588C106.143 203.467 106.699 204 107.848 204.275L108.814 204.51C109.506 204.68 109.734 204.926 109.734 205.365V205.371C109.734 205.922 109.242 206.268 108.416 206.268C107.584 206.268 107.133 205.91 107.01 205.301L106.998 205.242H105.979L105.984 205.295C106.107 206.385 106.975 207.117 108.41 207.117ZM114.346 207.117C115.676 207.117 116.672 206.32 116.871 205.312L116.883 205.254H115.881L115.863 205.307C115.688 205.828 115.143 206.215 114.369 206.215C113.285 206.215 112.594 205.482 112.57 204.229H116.959V203.854C116.959 202.025 115.945 200.789 114.281 200.789C112.617 200.789 111.539 202.084 111.539 203.971V203.977C111.539 205.893 112.594 207.117 114.346 207.117ZM114.275 201.691C115.166 201.691 115.822 202.248 115.922 203.432H112.588C112.699 202.295 113.391 201.691 114.275 201.691ZM119.971 207.117C120.17 207.117 120.387 207.094 120.516 207.076V206.25C120.428 206.256 120.311 206.273 120.188 206.273C119.643 206.273 119.355 206.092 119.355 205.441V201.75H120.516V200.906H119.355V199.26H118.301V200.906H117.41V201.75H118.301V205.447C118.301 206.613 118.852 207.117 119.971 207.117ZM123.691 207.117C124.617 207.117 125.238 206.701 125.566 206.133H125.59V207H126.609V200.906H125.59V204.492C125.59 205.529 124.963 206.215 124.002 206.215C123.064 206.215 122.602 205.67 122.602 204.68V200.906H121.582V204.861C121.582 206.25 122.355 207.117 123.691 207.117ZM127.939 209.051H128.959V205.98H128.982C129.363 206.684 130.072 207.117 130.934 207.117C132.463 207.117 133.506 205.881 133.506 203.959V203.953C133.506 202.031 132.475 200.789 130.916 200.789C130.043 200.789 129.363 201.229 128.982 201.938H128.959V200.906H127.939V209.051ZM130.717 206.215C129.691 206.215 128.953 205.318 128.953 203.959V203.953C128.953 202.588 129.686 201.691 130.717 201.691C131.795 201.691 132.463 202.553 132.463 203.953V203.959C132.463 205.348 131.795 206.215 130.717 206.215ZM137.08 207H138.1V204.703L138.668 204.158L140.93 207H142.113L139.389 203.537L142.031 200.906H140.795L138.123 203.596H138.1V198.545H137.08V207ZM145.037 207.117C146.367 207.117 147.363 206.32 147.562 205.312L147.574 205.254H146.572L146.555 205.307C146.379 205.828 145.834 206.215 145.061 206.215C143.977 206.215 143.285 205.482 143.262 204.229H147.65V203.854C147.65 202.025 146.637 200.789 144.973 200.789C143.309 200.789 142.23 202.084 142.23 203.971V203.977C142.23 205.893 143.285 207.117 145.037 207.117ZM144.967 201.691C145.857 201.691 146.514 202.248 146.613 203.432H143.279C143.391 202.295 144.082 201.691 144.967 201.691ZM149.033 209.051C150.135 209.051 150.668 208.547 151.102 207.381L153.48 200.906H152.408L150.721 205.98H150.697L149.016 200.906H147.926L150.188 207.006L150.064 207.352C149.818 208.043 149.461 208.207 148.816 208.207C148.693 208.207 148.576 208.189 148.488 208.172V209.004C148.617 209.027 148.834 209.051 149.033 209.051Z" fill="#E7E7E7"/>
</g>
</svg>
