<svg width="186" height="306" viewBox="0 0 186 306" fill="none" xmlns="http://www.w3.org/2000/svg">
<g opacity="0.7">
<rect x="1.5" y="1.5" width="183" height="303" rx="21.5" fill="#1D1D1D" stroke="#FCFCFD" stroke-width="3"/>
<rect x="15" y="42" width="156" height="222" fill="#2F333F"/>
<rect x="75" y="20" width="36" height="4" rx="2" fill="#FCFCFD"/>
<circle cx="93" cy="282" r="11" fill="#FCFCFD"/>
<line x1="34" y1="84.5" x2="151" y2="84.5" stroke="#8A8779"/>
<line x1="34" y1="122.5" x2="151" y2="122.5" stroke="#8A8779"/>
<path d="M34.1709 78H35.4629L36.4609 75.1768H40.4326L41.4307 78H42.7227L39.0586 68.1357H37.8418L34.1709 78ZM38.4365 69.6123H38.4639L40.0635 74.1309H36.8369L38.4365 69.6123ZM46.4824 78.1367C48.0889 78.1367 49.2578 77.0908 49.4492 75.7373L49.4561 75.6895H48.2871L48.2734 75.7441C48.0752 76.5371 47.4531 77.084 46.4824 77.084C45.252 77.084 44.4043 76.1064 44.4043 74.4521V74.4453C44.4043 72.832 45.2314 71.8066 46.4688 71.8066C47.5146 71.8066 48.0889 72.4355 48.2666 73.1465L48.2803 73.2012H49.4424L49.4355 73.1465C49.2852 71.9297 48.2393 70.7539 46.4688 70.7539C44.4932 70.7539 43.1875 72.1895 43.1875 74.4316V74.4385C43.1875 76.7012 44.4658 78.1367 46.4824 78.1367ZM53.4961 78.1367C55.1025 78.1367 56.2715 77.0908 56.4629 75.7373L56.4697 75.6895H55.3008L55.2871 75.7441C55.0889 76.5371 54.4668 77.084 53.4961 77.084C52.2656 77.084 51.418 76.1064 51.418 74.4521V74.4453C51.418 72.832 52.2451 71.8066 53.4824 71.8066C54.5283 71.8066 55.1025 72.4355 55.2803 73.1465L55.2939 73.2012H56.4561L56.4492 73.1465C56.2988 71.9297 55.2529 70.7539 53.4824 70.7539C51.5068 70.7539 50.2012 72.1895 50.2012 74.4316V74.4385C50.2012 76.7012 51.4795 78.1367 53.4961 78.1367ZM60.5098 78.1367C62.4717 78.1367 63.7979 76.7148 63.7979 74.4453V74.4316C63.7979 72.1621 62.4648 70.7539 60.5029 70.7539C58.541 70.7539 57.2148 72.1689 57.2148 74.4316V74.4453C57.2148 76.708 58.5342 78.1367 60.5098 78.1367ZM60.5166 77.084C59.2588 77.084 58.4316 76.1201 58.4316 74.4453V74.4316C58.4316 72.7705 59.2656 71.8066 60.5029 71.8066C61.7607 71.8066 62.5811 72.7637 62.5811 74.4316V74.4453C62.5811 76.1133 61.7676 77.084 60.5166 77.084ZM67.4277 78.1367C68.5078 78.1367 69.2324 77.6514 69.6152 76.9883H69.6426V78H70.832V70.8906H69.6426V75.0742C69.6426 76.2842 68.9111 77.084 67.79 77.084C66.6963 77.084 66.1562 76.4482 66.1562 75.293V70.8906H64.9668V75.5049C64.9668 77.125 65.8691 78.1367 67.4277 78.1367ZM72.3838 78H73.5732V73.8164C73.5732 72.6064 74.3047 71.8066 75.4258 71.8066C76.5195 71.8066 77.0596 72.4424 77.0596 73.5977V78H78.249V73.3857C78.249 71.7656 77.3467 70.7539 75.7881 70.7539C74.708 70.7539 73.9834 71.2393 73.6006 71.9023H73.5732V70.8906H72.3838V78ZM82.0771 78.1367C82.3096 78.1367 82.5625 78.1094 82.7129 78.0889V77.125C82.6104 77.1318 82.4736 77.1523 82.3301 77.1523C81.6943 77.1523 81.3594 76.9404 81.3594 76.1816V71.875H82.7129V70.8906H81.3594V68.9697H80.1289V70.8906H79.0898V71.875H80.1289V76.1885C80.1289 77.5488 80.7715 78.1367 82.0771 78.1367Z" fill="white"/>
<path d="M37.3154 114H38.5049V104.136H37.3018L34.6768 106.022V107.26L37.2881 105.441H37.3154V114ZM44.5752 114.164C46.5918 114.164 48.0684 112.756 48.0684 110.814V110.801C48.0684 108.928 46.6738 107.54 44.7939 107.54C43.4541 107.54 42.4424 108.251 42.0459 109.126H42.0186C42.0186 109.051 42.0186 108.982 42.0254 108.914C42.0801 106.843 42.8047 105.059 44.6436 105.059C45.6553 105.059 46.3594 105.564 46.6533 106.378L46.6807 106.453H47.9316L47.9111 106.364C47.583 104.929 46.332 103.972 44.6572 103.972C42.2441 103.972 40.8291 105.913 40.8291 109.235V109.249C40.8291 112.906 42.7568 114.164 44.5752 114.164ZM42.3125 110.801V110.794C42.3125 109.536 43.29 108.62 44.582 108.62C45.8809 108.62 46.8174 109.543 46.8174 110.828V110.842C46.8174 112.086 45.8193 113.07 44.5615 113.07C43.2969 113.07 42.3125 112.065 42.3125 110.801ZM49.6611 110.555H54.0361V109.447H49.6611V110.555ZM58.2949 114.137C59.3135 114.137 60.1064 113.624 60.5508 112.797H60.5781V114H61.7676V104.136H60.5781V108.08H60.5508C60.1064 107.26 59.2793 106.754 58.2744 106.754C56.4902 106.754 55.2734 108.196 55.2734 110.438V110.445C55.2734 112.688 56.4766 114.137 58.2949 114.137ZM58.5273 113.084C57.2695 113.084 56.4902 112.079 56.4902 110.445V110.438C56.4902 108.818 57.2695 107.807 58.5273 107.807C59.7236 107.807 60.585 108.853 60.585 110.438V110.445C60.585 112.038 59.7305 113.084 58.5273 113.084ZM64.0439 105.688C64.4609 105.688 64.7891 105.353 64.7891 104.942C64.7891 104.525 64.4609 104.197 64.0439 104.197C63.6338 104.197 63.2988 104.525 63.2988 104.942C63.2988 105.353 63.6338 105.688 64.0439 105.688ZM63.4492 114H64.6387V106.891H63.4492V114ZM69.2666 116.529C71.1943 116.529 72.4043 115.449 72.4043 113.802V106.891H71.2148V108.094H71.1875C70.75 107.301 69.957 106.754 68.9521 106.754C67.1475 106.754 65.9102 108.189 65.9102 110.397V110.404C65.9102 112.626 67.1338 114.068 68.9248 114.068C69.9434 114.068 70.7637 113.562 71.1875 112.776H71.2148V113.686C71.2148 114.786 70.5039 115.477 69.2529 115.477C68.2822 115.477 67.6055 115.162 67.3799 114.649L67.3525 114.588H66.1562L66.1699 114.649C66.4023 115.702 67.5098 116.529 69.2666 116.529ZM69.1846 113.016C67.9199 113.016 67.127 112.018 67.127 110.404V110.397C67.127 108.818 67.9199 107.807 69.1846 107.807C70.3877 107.807 71.2148 108.832 71.2148 110.397V110.404C71.2148 111.983 70.3945 113.016 69.1846 113.016ZM74.6123 105.688C75.0293 105.688 75.3574 105.353 75.3574 104.942C75.3574 104.525 75.0293 104.197 74.6123 104.197C74.2021 104.197 73.8672 104.525 73.8672 104.942C73.8672 105.353 74.2021 105.688 74.6123 105.688ZM74.0176 114H75.207V106.891H74.0176V114ZM79.1377 114.137C79.3701 114.137 79.623 114.109 79.7734 114.089V113.125C79.6709 113.132 79.5342 113.152 79.3906 113.152C78.7549 113.152 78.4199 112.94 78.4199 112.182V107.875H79.7734V106.891H78.4199V104.97H77.1895V106.891H76.1504V107.875H77.1895V112.188C77.1895 113.549 77.832 114.137 79.1377 114.137ZM84.0186 114H85.208V111.32L85.8711 110.685L88.5098 114H89.8906L86.7119 109.96L89.7949 106.891H88.3525L85.2354 110.028H85.208V104.136H84.0186V114ZM93.3018 114.137C94.8535 114.137 96.0156 113.207 96.248 112.031L96.2617 111.963H95.0928L95.0723 112.024C94.8672 112.633 94.2314 113.084 93.3291 113.084C92.0645 113.084 91.2578 112.229 91.2305 110.767H96.3506V110.329C96.3506 108.196 95.168 106.754 93.2266 106.754C91.2852 106.754 90.0273 108.265 90.0273 110.466V110.473C90.0273 112.708 91.2578 114.137 93.3018 114.137ZM93.2197 107.807C94.2588 107.807 95.0244 108.456 95.1406 109.837H91.251C91.3809 108.511 92.1875 107.807 93.2197 107.807ZM97.9639 116.393C99.249 116.393 99.8711 115.805 100.377 114.444L103.152 106.891H101.901L99.9326 112.811H99.9053L97.9434 106.891H96.6719L99.3105 114.007L99.167 114.41C98.8799 115.217 98.4629 115.408 97.7109 115.408C97.5674 115.408 97.4307 115.388 97.3281 115.367V116.338C97.4785 116.365 97.7314 116.393 97.9639 116.393Z" fill="white"/>
</g>
</svg>
