<svg width="186" height="306" viewBox="0 0 186 306" fill="none" xmlns="http://www.w3.org/2000/svg">
<g opacity="0.7">
<rect x="1.5" y="1.5" width="183" height="303" rx="21.5" fill="#1D1D1D" stroke="#FCFCFD" stroke-width="3"/>
<rect x="15" y="42" width="156" height="222" fill="#2F333F"/>
<rect x="75" y="20" width="36" height="4" rx="2" fill="#FCFCFD"/>
<circle cx="93" cy="282" r="11" fill="#FCFCFD"/>
<path d="M29.1924 111H31.1172V98.3174H29.1748L25.835 100.69V102.554L29.1484 100.269H29.1924V111ZM34.3909 111H43.0657V109.339H37.0277V109.26L39.9105 106.43C42.1868 104.18 42.8636 103.151 42.8636 101.701V101.684C42.8636 99.6357 41.1234 98.1064 38.6888 98.1064C36.2103 98.1064 34.2855 99.75 34.2855 102.018V102.07H36.1488V102.018C36.1663 100.734 37.2298 99.7324 38.7152 99.7324C39.9984 99.7324 40.9124 100.594 40.9212 101.798V101.815C40.9212 102.8 40.5433 103.468 38.8558 105.155L34.3909 109.646V111ZM49.4245 111.211C52.1139 111.211 54.0211 109.664 54.0211 107.493V107.476C54.0211 105.7 52.7731 104.575 50.9098 104.408V104.364C52.4567 104.039 53.5817 102.984 53.5817 101.411V101.394C53.5817 99.4424 51.9293 98.1064 49.4069 98.1064C46.9284 98.1064 45.2409 99.5039 45.0475 101.622L45.0387 101.71H46.8844L46.8932 101.631C47.0163 100.453 48.0006 99.7148 49.4069 99.7148C50.8395 99.7148 51.6657 100.427 51.6657 101.648V101.666C51.6657 102.844 50.6813 103.696 49.2311 103.696H47.7457V105.226H49.2838C50.9801 105.226 52.0172 106.025 52.0172 107.458V107.476C52.0172 108.706 50.9713 109.567 49.4245 109.567C47.8512 109.567 46.7877 108.776 46.6647 107.651L46.6559 107.555H44.7663L44.775 107.669C44.9508 109.734 46.7174 111.211 49.4245 111.211ZM65.9388 111H67.8284V108.478H69.5774V106.825H67.8284V98.3174H64.9807L59.593 106.764V108.478H65.9388V111ZM61.4212 106.852V106.799L65.9036 99.873H65.9563V106.852H61.4212ZM75.7867 111.211C78.5201 111.211 80.4449 109.427 80.4449 106.852V106.834C80.4449 104.408 78.6959 102.659 76.2701 102.659C75.0221 102.659 73.9674 103.143 73.3961 103.995H73.3521L73.7389 99.9785H79.7066V98.3174H72.148L71.524 105.63H73.2467C73.4137 105.349 73.6158 105.103 73.8531 104.9C74.3629 104.443 75.0396 104.215 75.8219 104.215C77.3951 104.215 78.5113 105.313 78.5201 106.869V106.887C78.5201 108.46 77.4039 109.567 75.8043 109.567C74.3893 109.567 73.3521 108.688 73.1852 107.546L73.1764 107.476H71.2955L71.3043 107.581C71.4801 109.673 73.2467 111.211 75.7867 111.211ZM86.997 111.211C89.6689 111.211 91.6288 109.392 91.6288 106.86V106.843C91.6288 104.443 89.8798 102.677 87.454 102.677C85.7314 102.677 84.4482 103.573 83.9472 104.716H83.9032C83.9032 104.602 83.9032 104.487 83.912 104.373C83.9911 101.859 84.8788 99.7588 87.0585 99.7588C88.2714 99.7588 89.0976 100.356 89.4579 101.306L89.4843 101.394H91.4618L91.4355 101.288C91.0312 99.3984 89.3349 98.1064 87.0761 98.1064C83.9032 98.1064 82.0136 100.603 82.0136 104.83V104.848C82.0136 109.409 84.4042 111.211 86.997 111.211ZM84.29 106.869V106.86C84.29 105.357 85.4589 104.276 86.997 104.276C88.5439 104.276 89.6689 105.366 89.6689 106.896V106.913C89.6689 108.39 88.4736 109.559 86.9706 109.559C85.4677 109.559 84.29 108.372 84.29 106.869Z" fill="#FFBC0F"/>
<path d="M27.7422 129.117C28.668 129.117 29.2891 128.701 29.6172 128.133H29.6406V129H30.6602V122.906H29.6406V126.492C29.6406 127.529 29.0137 128.215 28.0527 128.215C27.1152 128.215 26.6523 127.67 26.6523 126.68V122.906H25.6328V126.861C25.6328 128.25 26.4062 129.117 27.7422 129.117ZM34.2723 129.117C35.6317 129.117 36.6395 128.367 36.6395 127.301V127.295C36.6395 126.428 36.1942 125.941 34.9637 125.643L33.997 125.408C33.3231 125.244 33.0477 124.957 33.0477 124.541V124.535C33.0477 123.996 33.5048 123.639 34.243 123.639C34.9989 123.639 35.4501 124.031 35.5321 124.623L35.538 124.664H36.5106L36.5048 124.588C36.4286 123.568 35.579 122.789 34.243 122.789C32.9247 122.789 32.0048 123.533 32.0048 124.582V124.588C32.0048 125.467 32.5614 126 33.7098 126.275L34.6766 126.51C35.368 126.68 35.5966 126.926 35.5966 127.365V127.371C35.5966 127.922 35.1044 128.268 34.2782 128.268C33.4462 128.268 32.995 127.91 32.872 127.301L32.8602 127.242H31.8407L31.8466 127.295C31.9696 128.385 32.8368 129.117 34.2723 129.117ZM40.3279 129.117C41.658 129.117 42.6541 128.32 42.8533 127.312L42.865 127.254H41.863L41.8455 127.307C41.6697 127.828 41.1248 128.215 40.3513 128.215C39.2673 128.215 38.5759 127.482 38.5525 126.229H42.9412V125.854C42.9412 124.025 41.9275 122.789 40.2634 122.789C38.5994 122.789 37.5212 124.084 37.5212 125.971V125.977C37.5212 127.893 38.5759 129.117 40.3279 129.117ZM40.2576 123.691C41.1482 123.691 41.8045 124.248 41.9041 125.432H38.5701C38.6814 124.295 39.3728 123.691 40.2576 123.691ZM44.0924 129H45.112V125.238C45.112 124.312 45.6276 123.762 46.4186 123.762C46.6647 123.762 46.8815 123.791 46.9635 123.82V122.83C46.8815 122.818 46.7291 122.789 46.5534 122.789C45.8678 122.789 45.3405 123.234 45.1354 123.938H45.112V122.906H44.0924V129ZM47.9155 129H48.9351V125.414C48.9351 124.377 49.562 123.691 50.523 123.691C51.4605 123.691 51.9234 124.236 51.9234 125.227V129H52.9429V125.045C52.9429 123.656 52.1695 122.789 50.8335 122.789C49.9077 122.789 49.2866 123.205 48.9585 123.773H48.9351V122.906H47.9155V129ZM56.1449 129.117C56.9594 129.117 57.6918 128.678 58.0492 128.01H58.0727V129H59.0922V124.787C59.0922 123.568 58.1898 122.789 56.7484 122.789C55.3129 122.789 54.4398 123.598 54.352 124.6L54.3461 124.664H55.3305L55.3422 124.611C55.4594 124.066 55.9516 123.691 56.7367 123.691C57.5863 123.691 58.0727 124.143 58.0727 124.887V125.396L56.3266 125.496C54.9262 125.578 54.1176 126.229 54.1176 127.266V127.277C54.1176 128.385 54.932 129.117 56.1449 129.117ZM55.1605 127.277V127.266C55.1605 126.697 55.6293 126.334 56.4438 126.287L58.0727 126.188V126.686C58.0727 127.57 57.3344 128.232 56.3734 128.232C55.641 128.232 55.1605 127.863 55.1605 127.277ZM60.5071 129H61.5266V125.18C61.5266 124.33 62.1126 123.691 62.9212 123.691C63.677 123.691 64.1692 124.178 64.1692 124.916V129H65.1888V125.127C65.1888 124.295 65.7571 123.691 66.5657 123.691C67.3684 123.691 67.8313 124.189 67.8313 125.027V129H68.8509V124.793C68.8509 123.58 68.0716 122.789 66.8645 122.789C66.0091 122.789 65.2942 123.229 64.9544 123.961H64.9309C64.6673 123.217 64.052 122.789 63.22 122.789C62.4348 122.789 61.8255 123.193 61.5501 123.797H61.5266V122.906H60.5071V129ZM72.7795 129.117C74.1095 129.117 75.1056 128.32 75.3048 127.312L75.3166 127.254H74.3146L74.297 127.307C74.1213 127.828 73.5763 128.215 72.8029 128.215C71.7189 128.215 71.0275 127.482 71.0041 126.229H75.3927V125.854C75.3927 124.025 74.3791 122.789 72.715 122.789C71.0509 122.789 69.9728 124.084 69.9728 125.971V125.977C69.9728 127.893 71.0275 129.117 72.7795 129.117ZM72.7091 123.691C73.5998 123.691 74.256 124.248 74.3556 125.432H71.0216C71.133 124.295 71.8244 123.691 72.7091 123.691ZM81.3955 130.377C82.1514 130.377 82.8604 130.271 83.376 130.09V129.293C82.9952 129.463 82.1924 129.574 81.4073 129.574C79.087 129.574 77.3467 128.133 77.3467 125.502V125.496C77.3467 123.088 78.9756 121.395 81.2256 121.395C83.5401 121.395 85.1162 122.812 85.1162 125.08V125.086C85.1162 126.516 84.6944 127.236 84.0791 127.236C83.6162 127.236 83.2998 126.844 83.2998 126.035V123.182H82.4151V123.896H82.3682C82.1455 123.398 81.5772 123.07 80.9502 123.07C79.7491 123.07 78.9112 124.061 78.9112 125.496V125.502C78.9112 126.984 79.7315 127.98 80.9502 127.98C81.7002 127.98 82.3037 127.635 82.5791 126.926H82.6319L82.6495 126.979C82.8428 127.564 83.3291 128.033 84.0674 128.033C85.1573 128.033 86.001 127.02 86.001 125.08V125.074C86.001 122.32 84.0205 120.598 81.3018 120.598C78.4541 120.598 76.462 122.59 76.462 125.49V125.496C76.462 128.643 78.542 130.377 81.3955 130.377ZM81.085 127.154C80.3174 127.154 79.8487 126.533 79.8487 125.508V125.502C79.8487 124.482 80.3116 123.879 81.0967 123.879C81.8877 123.879 82.4034 124.506 82.4034 125.508V125.514C82.4034 126.516 81.8877 127.154 81.085 127.154ZM89.7421 131.168C91.3945 131.168 92.4316 130.242 92.4316 128.83V122.906H91.412V123.938H91.3886C91.0136 123.258 90.3339 122.789 89.4726 122.789C87.9257 122.789 86.8652 124.02 86.8652 125.912V125.918C86.8652 127.822 87.914 129.059 89.4491 129.059C90.3222 129.059 91.0253 128.625 91.3886 127.951H91.412V128.73C91.412 129.674 90.8027 130.266 89.7304 130.266C88.8984 130.266 88.3183 129.996 88.1249 129.557L88.1015 129.504H87.0761L87.0878 129.557C87.287 130.459 88.2363 131.168 89.7421 131.168ZM89.6718 128.156C88.5878 128.156 87.9081 127.301 87.9081 125.918V125.912C87.9081 124.559 88.5878 123.691 89.6718 123.691C90.703 123.691 91.412 124.57 91.412 125.912V125.918C91.412 127.271 90.7089 128.156 89.6718 128.156ZM93.8699 129H94.8895V125.18C94.8895 124.33 95.4754 123.691 96.284 123.691C97.0398 123.691 97.532 124.178 97.532 124.916V129H98.5516V125.127C98.5516 124.295 99.1199 123.691 99.9285 123.691C100.731 123.691 101.194 124.189 101.194 125.027V129H102.214V124.793C102.214 123.58 101.434 122.789 100.227 122.789C99.3719 122.789 98.657 123.229 98.3172 123.961H98.2937C98.0301 123.217 97.4148 122.789 96.5828 122.789C95.7977 122.789 95.1883 123.193 94.9129 123.797H94.8895V122.906H93.8699V129ZM105.416 129.117C106.23 129.117 106.963 128.678 107.32 128.01H107.343V129H108.363V124.787C108.363 123.568 107.461 122.789 106.019 122.789C104.584 122.789 103.711 123.598 103.623 124.6L103.617 124.664H104.601L104.613 124.611C104.73 124.066 105.222 123.691 106.007 123.691C106.857 123.691 107.343 124.143 107.343 124.887V125.396L105.597 125.496C104.197 125.578 103.388 126.229 103.388 127.266V127.277C103.388 128.385 104.203 129.117 105.416 129.117ZM104.431 127.277V127.266C104.431 126.697 104.9 126.334 105.715 126.287L107.343 126.188V126.686C107.343 127.57 106.605 128.232 105.644 128.232C104.912 128.232 104.431 127.863 104.431 127.277ZM110.352 121.875C110.71 121.875 110.991 121.588 110.991 121.236C110.991 120.879 110.71 120.598 110.352 120.598C110.001 120.598 109.713 120.879 109.713 121.236C109.713 121.588 110.001 121.875 110.352 121.875ZM109.842 129H110.862V122.906H109.842V129ZM112.423 129H113.443V120.545H112.423V129ZM115.567 129.082C115.942 129.082 116.235 128.789 116.235 128.414C116.235 128.039 115.942 127.746 115.567 127.746C115.192 127.746 114.899 128.039 114.899 128.414C114.899 128.789 115.192 129.082 115.567 129.082ZM119.812 129.117C121.189 129.117 122.191 128.221 122.355 127.061L122.361 127.02H121.359L121.347 127.066C121.177 127.746 120.644 128.215 119.812 128.215C118.757 128.215 118.03 127.377 118.03 125.959V125.953C118.03 124.57 118.739 123.691 119.8 123.691C120.696 123.691 121.189 124.23 121.341 124.84L121.353 124.887H122.349L122.343 124.84C122.214 123.797 121.318 122.789 119.8 122.789C118.107 122.789 116.988 124.02 116.988 125.941V125.947C116.988 127.887 118.083 129.117 119.812 129.117ZM125.943 129.117C127.625 129.117 128.762 127.898 128.762 125.953V125.941C128.762 123.996 127.619 122.789 125.938 122.789C124.256 122.789 123.119 124.002 123.119 125.941V125.953C123.119 127.893 124.25 129.117 125.943 129.117ZM125.949 128.215C124.871 128.215 124.162 127.389 124.162 125.953V125.941C124.162 124.518 124.877 123.691 125.938 123.691C127.016 123.691 127.719 124.512 127.719 125.941V125.953C127.719 127.383 127.022 128.215 125.949 128.215ZM129.913 129H130.933V125.18C130.933 124.33 131.519 123.691 132.327 123.691C133.083 123.691 133.575 124.178 133.575 124.916V129H134.595V125.127C134.595 124.295 135.163 123.691 135.972 123.691C136.774 123.691 137.237 124.189 137.237 125.027V129H138.257V124.793C138.257 123.58 137.478 122.789 136.27 122.789C135.415 122.789 134.7 123.229 134.36 123.961H134.337C134.073 123.217 133.458 122.789 132.626 122.789C131.841 122.789 131.231 123.193 130.956 123.797H130.933V122.906H129.913V129Z" fill="#8A8779"/>
<path d="M25.7793 87H26.9746V80.7598H27.0156L29.5645 87H30.5371L33.0859 80.7598H33.127V87H34.3223V78.5449H32.8105L30.0684 85.2949H30.0332L27.2969 78.5449H25.7793V87ZM39.0653 80.1387C39.6864 80.1387 40.0614 79.6113 40.0614 78.5625V78.4863H39.2645V78.5332C39.2645 79.0195 39.1591 79.248 38.9305 79.248C38.7548 79.248 38.579 79.125 38.3856 78.9668L38.1571 78.791C37.9403 78.6094 37.6825 78.4805 37.3485 78.4805C36.7333 78.4805 36.3524 79.002 36.3524 80.0566V80.1328H37.1493V80.0859C37.1493 79.5996 37.2548 79.3711 37.4833 79.3711C37.6532 79.3711 37.8173 79.5 38.0048 79.6523L38.2333 79.834C38.4501 80.0098 38.7255 80.1387 39.0653 80.1387ZM37.495 87.1113C38.3095 87.1113 39.0243 86.6895 39.3817 86.0273H39.4052V87H40.6766V82.752C40.6766 81.5156 39.7216 80.7188 38.2157 80.7188C36.6981 80.7188 35.7782 81.5332 35.6903 82.5938L35.6845 82.6582H36.8798L36.8915 82.6055C36.997 82.1133 37.4481 81.7676 38.1805 81.7676C38.9657 81.7676 39.4052 82.1777 39.4052 82.8574V83.3203L37.7294 83.4199C36.2704 83.5078 35.4384 84.1641 35.4384 85.2363V85.248C35.4384 86.3555 36.2645 87.1113 37.495 87.1113ZM36.7157 85.2188V85.207C36.7157 84.6855 37.1376 84.3516 37.8993 84.3047L39.4052 84.2109V84.6914C39.4052 85.4941 38.7313 86.0977 37.8407 86.0977C37.161 86.0977 36.7157 85.7578 36.7157 85.2188ZM44.1217 87H45.4928L46.858 84.7324H46.8873L48.2526 87H49.6471L47.6432 83.8828L49.6705 80.8359H48.2702L46.9459 83.0684H46.9166L45.5748 80.8359H44.151L46.1608 83.9238L44.1217 87ZM53.3296 80.1387L54.6714 78.293H53.4409L52.4155 80.1387H53.3296ZM52.2925 87.1113C53.107 87.1113 53.8218 86.6895 54.1792 86.0273H54.2027V87H55.4741V82.752C55.4741 81.5156 54.5191 80.7188 53.0132 80.7188C51.4956 80.7188 50.5757 81.5332 50.4878 82.5938L50.482 82.6582H51.6773L51.689 82.6055C51.7945 82.1133 52.2456 81.7676 52.978 81.7676C53.7632 81.7676 54.2027 82.1777 54.2027 82.8574V83.3203L52.5269 83.4199C51.0679 83.5078 50.2359 84.1641 50.2359 85.2363V85.248C50.2359 86.3555 51.062 87.1113 52.2925 87.1113ZM51.5132 85.2188V85.207C51.5132 84.6855 51.9351 84.3516 52.6968 84.3047L54.2027 84.2109V84.6914C54.2027 85.4941 53.5288 86.0977 52.6382 86.0977C51.9585 86.0977 51.5132 85.7578 51.5132 85.2188ZM59.473 87.123C60.9555 87.123 61.9867 86.1738 62.1215 84.9375L62.1273 84.8965H60.9086L60.9027 84.9434C60.7504 85.6113 60.2523 86.0625 59.473 86.0625C58.4945 86.0625 57.8441 85.2715 57.8441 83.9238V83.918C57.8441 82.5996 58.4828 81.7793 59.4672 81.7793C60.2934 81.7793 60.7621 82.2891 60.8969 82.8926L60.9086 82.9395H62.1156L62.1098 82.8984C62.0043 81.7383 61.0434 80.7188 59.4555 80.7188C57.6977 80.7188 56.5492 81.9551 56.5492 83.9062V83.9121C56.5492 85.8867 57.6742 87.123 59.473 87.123ZM65.7013 87H66.967V83.1914C66.967 82.3945 67.5002 81.8027 68.2502 81.8027C68.965 81.8027 69.4162 82.2598 69.4162 82.9746V87H70.6584V83.1445C70.6584 82.3652 71.1798 81.8027 71.9298 81.8027C72.6798 81.8027 73.1076 82.2656 73.1076 83.0684V87H74.3791V82.7637C74.3791 81.5273 73.5822 80.7188 72.3634 80.7188C71.4845 80.7188 70.758 81.1816 70.4416 81.9316H70.4123C70.1662 81.1582 69.5451 80.7188 68.6955 80.7188C67.8869 80.7188 67.2599 81.1465 66.9963 81.791H66.967V80.8359H65.7013V87ZM76.4092 79.8867C76.8252 79.8867 77.1475 79.5586 77.1475 79.1602C77.1475 78.7559 76.8252 78.4277 76.4092 78.4277C75.9991 78.4277 75.6709 78.7559 75.6709 79.1602C75.6709 79.5586 75.9991 79.8867 76.4092 79.8867ZM75.7764 87H77.042V80.8359H75.7764V87ZM78.4687 87H79.7343V83.4082C79.7343 82.4473 80.3085 81.8027 81.1991 81.8027C82.078 81.8027 82.5116 82.3242 82.5116 83.25V87H83.7831V83.0098C83.7831 81.5918 83.0038 80.7188 81.6503 80.7188C80.7187 80.7188 80.0859 81.1406 79.7636 81.7676H79.7343V80.8359H78.4687V87ZM85.1746 87H86.4402V83.4316C86.4402 82.4707 87.0203 81.8027 87.8934 81.8027C88.784 81.8027 89.2996 82.4121 89.2996 83.4316V87H90.5652V83.1914C90.5652 81.7031 89.698 80.7188 88.3797 80.7188C87.4598 80.7188 86.7977 81.1348 86.4695 81.8496H86.4402V78.5449H85.1746V87Z" fill="white"/>
<path d="M155 102C150.582 102 147 106.029 147 111H155V102Z" fill="#C4C4C4"/>
</g>
</svg>
