<svg width="64" height="64" viewBox="0 0 64 64" fill="none" xmlns="http://www.w3.org/2000/svg">
<path d="M28.5669 2.86979C33.1713 2.33104 37.905 2.88354 42.25 4.50979C46.1719 5.97667 49.7869 8.28542 52.7325 11.2654C50.2131 13.7635 47.7169 16.2848 45.2006 18.786C43.5788 17.1954 41.6888 15.8704 39.6087 14.9504C36.845 13.7117 33.7719 13.1667 30.7513 13.3754C27.3388 13.5954 23.9944 14.781 21.2119 16.7692C17.7594 19.2035 15.1737 22.8454 14.0369 26.916C13.1844 29.9023 13.1137 33.1017 13.8019 36.1285C14.355 38.6042 15.4325 40.9592 16.93 43.0054C18.32 44.9085 20.0738 46.5454 22.0688 47.7998C24.3681 49.2523 26.9913 50.1885 29.6913 50.5173C32.005 50.8079 34.3725 50.6567 36.6319 50.0798C36.88 49.9604 37.0219 50.2429 37.1775 50.3835C39.7238 52.9429 42.2825 55.4898 44.8294 58.0479C40.2475 60.2729 35.08 61.2892 29.9981 60.9304C25.745 60.6485 21.5562 59.4254 17.8287 57.3567C16.2744 56.5067 14.8144 55.4929 13.4331 54.3854C12.3419 53.4598 11.2637 52.5098 10.3256 51.426C8.7375 49.7142 7.375 47.7942 6.2525 45.7467C6.0025 45.2642 5.7125 44.8017 5.50875 44.2967C5.22937 43.731 4.98562 43.1492 4.74312 42.5673C4.43312 41.7379 4.10187 40.9148 3.87562 40.0579C3.84875 39.9448 3.78 39.8498 3.71812 39.7548C3.19937 37.9635 2.90875 36.1092 2.75312 34.2523C2.58937 31.9173 2.67 29.5617 3.05187 27.2504C3.81312 22.5329 5.765 18.0167 8.66812 14.2229C10.5506 11.7542 12.8262 9.58479 15.3844 7.82604C19.2869 5.13167 23.855 3.40792 28.5669 2.86979ZM31.6406 6.02479C31.2844 6.08667 30.9556 6.25979 30.6794 6.48917C30.0294 7.04729 29.7956 8.03979 30.1688 8.81917C30.5644 9.75792 31.7413 10.2629 32.6913 9.88167C33.6556 9.55417 34.24 8.41229 33.925 7.44042C33.6688 6.47604 32.6175 5.82854 31.6406 6.02479ZM14.8931 13.0242C14.56 13.0417 14.2312 13.1442 13.9456 13.3167C13.2287 13.756 12.8281 14.6754 13.0481 15.4954C13.2412 16.3754 14.0969 17.0617 15.0019 17.0335C15.9412 17.0592 16.8194 16.3217 16.9731 15.3979C17.1131 14.7523 16.8725 14.051 16.4019 13.5948C16.0119 13.1992 15.4456 12.9935 14.8931 13.0242ZM7.64562 30.0242C7.23187 30.101 6.84312 30.3104 6.54937 30.6117C5.95875 31.2192 5.81687 32.2098 6.23562 32.9504C6.68312 33.8229 7.82812 34.2542 8.73437 33.8642C9.67312 33.5198 10.2337 32.4004 9.92562 31.4448C9.67312 30.4817 8.62187 29.8223 7.64562 30.0242ZM14.6444 47.0273C13.9262 47.1492 13.3019 47.6973 13.0919 48.3948C12.85 49.1217 13.0837 49.9673 13.6481 50.4798C14.0325 50.8223 14.5481 51.0235 15.065 50.9998C15.7625 50.9842 16.4387 50.5704 16.76 49.9498C17.0681 49.3979 17.0819 48.6985 16.8044 48.131C16.4406 47.3323 15.5037 46.8604 14.6444 47.0273ZM31.6481 54.0292C30.9131 54.1554 30.2781 54.721 30.08 55.4417C29.8381 56.2273 30.1506 57.1448 30.8244 57.616C31.3156 57.9779 31.9756 58.0954 32.56 57.9198C33.1606 57.7467 33.6663 57.2798 33.8769 56.6898C34.1875 55.8935 33.8994 54.9198 33.2156 54.411C32.7769 54.0704 32.1938 53.9317 31.6481 54.0292Z" fill="#A0A0A0"/>
<path d="M31.6411 6.02461C32.618 5.82836 33.6692 6.47586 33.9255 7.44024C34.2405 8.41211 33.6561 9.55399 32.6917 9.88149C31.7417 10.2627 30.5649 9.75774 30.1693 8.81899C29.7961 8.03961 30.0299 7.04711 30.6799 6.48899C30.9561 6.25961 31.2849 6.08649 31.6411 6.02461Z" fill="#C1C1C1"/>
<path d="M7.64588 30.0239C8.62213 29.822 9.67338 30.4814 9.92588 31.4445C10.234 32.4001 9.67338 33.5195 8.73463 33.8639C7.82838 34.2539 6.68338 33.8226 6.23588 32.9501C5.81713 32.2095 5.95901 31.2189 6.54963 30.6114C6.84338 30.3101 7.23213 30.1007 7.64588 30.0239Z" fill="#C1C1C1"/>
<path d="M52.7325 11.2655L52.7393 11.2587C54.2794 12.8287 55.6743 14.5462 56.84 16.413C59.0906 19.9855 60.5512 24.0518 61.0818 28.2412C61.4362 31.0462 61.4112 33.9037 60.9537 36.6955C60.16 41.6962 58.02 46.4712 54.835 50.4055C52.1912 53.6855 48.8431 56.408 45.0593 58.2655L45.02 58.2493C44.9568 58.1805 44.8931 58.1143 44.8293 58.048C42.2825 55.4899 39.7237 52.943 37.1775 50.3837C37.0219 50.243 36.88 49.9605 36.6318 50.0799C34.3725 50.6568 32.005 50.808 29.6912 50.5174C26.9912 50.1887 24.3681 49.2524 22.0687 47.7999C20.0737 46.5455 18.32 44.9087 16.93 43.0055C15.4325 40.9593 14.355 38.6043 13.8019 36.1287C13.1137 33.1018 13.1844 29.9024 14.0369 26.9162C15.1737 22.8455 17.7594 19.2037 21.2119 16.7693C23.9944 14.7812 27.3387 13.5955 30.7512 13.3755C33.7719 13.1668 36.845 13.7118 39.6087 14.9505C41.6887 15.8705 43.5787 17.1955 45.2006 18.7862C47.7169 16.2849 50.2131 13.7637 52.7325 11.2655ZM30.7481 22.7637C29.4212 22.9418 28.13 23.4062 27.0056 24.1349C25.5631 25.038 24.3956 26.3587 23.6369 27.8793C22.7256 29.7043 22.4719 31.8299 22.8556 33.8274C23.1012 35.068 23.6075 36.2574 24.3281 37.2968C24.8237 38.0168 25.4312 38.6505 26.0562 39.258C29.6394 42.8462 33.2194 46.4368 36.8056 50.0212C39.8737 49.2043 42.7225 47.5874 44.9962 45.3712C47.8156 42.6624 49.725 39.0312 50.3906 35.1799C50.4056 35.1149 50.4043 34.998 50.5062 35.0174C52.3581 35.0199 54.21 35.0168 56.0625 35.0205C57.2525 35.0018 58.3668 34.0974 58.61 32.9293C58.6237 32.8537 58.61 32.7843 58.5681 32.7199C58.6443 32.363 58.6981 31.9962 58.6543 31.6305L58.6393 31.6555C58.5112 30.3843 57.3368 29.3355 56.0612 29.3324C51.0212 29.328 45.9812 29.3318 40.9406 29.328C40.5381 27.948 39.7844 26.6824 38.8137 25.6262C37.2012 23.9074 34.9225 22.813 32.5625 22.6999C31.9575 22.7012 31.3475 22.6662 30.7481 22.7637ZM48.6462 47.033C47.8562 47.1618 47.1856 47.8199 47.04 48.6068C46.9475 49.1155 47.0312 49.6705 47.3356 50.0974C47.6956 50.6724 48.3856 51.0199 49.0612 50.988C49.5812 50.9899 50.0787 50.7412 50.4462 50.3843C50.7506 50.0343 50.9743 49.5924 50.9881 49.1218C51.0418 48.4112 50.6718 47.678 50.0587 47.3118C49.6512 47.033 49.1281 46.9524 48.6462 47.033Z" fill="#686868"/>
<path d="M14.8936 13.0246C15.4461 12.994 16.0123 13.1996 16.4023 13.5952C16.873 14.0515 17.1136 14.7527 16.9736 15.3983C16.8198 16.3221 15.9417 17.0596 15.0023 17.034C14.0973 17.0621 13.2417 16.3758 13.0486 15.4958C12.8286 14.6758 13.2292 13.7565 13.9461 13.3171C14.2317 13.1446 14.5605 13.0421 14.8936 13.0246Z" fill="#C3C3C3"/>
<path d="M30.7478 22.7634C31.3472 22.6659 31.9572 22.7009 32.5622 22.6997C34.9222 22.8128 37.201 23.9072 38.8135 25.6259C39.7841 26.6822 40.5378 27.9478 40.9403 29.3278C37.961 29.3272 34.981 29.3272 32.001 29.3272C31.2391 29.3203 30.4866 29.6659 29.9878 30.2403C29.6122 30.6684 29.3791 31.2184 29.3353 31.7866C29.261 32.6722 29.6703 33.5803 30.3785 34.1166C30.8547 34.4859 31.4585 34.6791 32.061 34.6666C39.9791 34.6641 47.8978 34.6628 55.816 34.6684C56.1135 34.6709 56.4153 34.6591 56.7035 34.5759C57.5916 34.3372 58.3297 33.6091 58.5678 32.7197C58.6097 32.7841 58.6235 32.8534 58.6097 32.9291C58.3666 34.0972 57.2522 35.0016 56.0622 35.0203C54.2097 35.0166 52.3578 35.0197 50.506 35.0172C50.4041 34.9978 50.4053 35.1147 50.3903 35.1797C49.7247 39.0309 47.8153 42.6622 44.996 45.3709C42.7222 47.5872 39.8735 49.2041 36.8053 50.0209C33.2191 46.4366 29.6391 42.8459 26.056 39.2578C25.431 38.6503 24.8235 38.0166 24.3278 37.2966C23.6072 36.2572 23.101 35.0678 22.8553 33.8272C22.4716 31.8297 22.7253 29.7041 23.6366 27.8791C24.3953 26.3584 25.5628 25.0378 27.0053 24.1347C28.1297 23.4059 29.421 22.9416 30.7478 22.7634Z" fill="#474747"/>
<path d="M29.9884 30.2405C30.4872 29.6661 31.2397 29.3205 32.0016 29.3274C34.9816 29.3274 37.9616 29.3274 40.9409 29.328C45.9816 29.3317 51.0216 29.328 56.0616 29.3324C57.3372 29.3355 58.5116 30.3842 58.6397 31.6555C58.6278 31.6761 58.6034 31.7161 58.5909 31.7361C58.3609 30.5792 57.2428 29.6636 56.0616 29.6705C48.2509 29.6767 40.4403 29.678 32.6297 29.6811C32.1466 29.6892 31.6459 29.6311 31.1828 29.8036C30.6166 29.9811 30.1372 30.3724 29.7909 30.8474C29.5822 31.1317 29.5166 31.4874 29.3359 31.7867C29.3797 31.2186 29.6128 30.6686 29.9884 30.2405Z" fill="#BFBFBF"/>
<path d="M14.6444 47.0276C15.5037 46.8607 16.4406 47.3326 16.8044 48.1313C17.0819 48.6988 17.0681 49.3982 16.76 49.9501C16.4387 50.5707 15.7625 50.9844 15.065 51.0001C14.5481 51.0238 14.0325 50.8226 13.6481 50.4801C13.0837 49.9676 12.85 49.1219 13.0919 48.3951C13.3019 47.6976 13.9262 47.1494 14.6444 47.0276Z" fill="#BFBFBF"/>
<path d="M31.1827 29.8038C31.6458 29.6313 32.1464 29.6894 32.6296 29.6813C40.4402 29.6782 48.2508 29.6769 56.0614 29.6707C57.2427 29.6638 58.3608 30.5794 58.5908 31.7363C58.6033 31.7163 58.6277 31.6763 58.6396 31.6557L58.6546 31.6307C58.6983 31.9963 58.6446 32.3632 58.5683 32.7201C58.3302 33.6094 57.5921 34.3376 56.7039 34.5763C56.4158 34.6594 56.1139 34.6713 55.8164 34.6688C47.8983 34.6632 39.9796 34.6644 32.0614 34.6669C31.4589 34.6794 30.8552 34.4863 30.3789 34.1169C29.6708 33.5807 29.2614 32.6726 29.3358 31.7869C29.5164 31.4876 29.5821 31.1319 29.7908 30.8476C30.1371 30.3726 30.6164 29.9813 31.1827 29.8038Z" fill="#B0B0B0"/>
<path d="M3.71777 39.755C3.77965 39.85 3.8484 39.945 3.87527 40.0581C4.10152 40.915 4.43277 41.7381 4.74277 42.5675C4.98527 43.1494 5.22902 43.7313 5.5084 44.2969C5.71215 44.8019 6.00215 45.2644 6.25215 45.7469C7.37465 47.7944 8.73715 49.7144 10.3253 51.4263C11.2634 52.51 12.3415 53.46 13.4328 54.3856C14.814 55.4931 16.274 56.5069 17.8284 57.3569C21.5559 59.4256 25.7446 60.6488 29.9978 60.9306C35.0796 61.2894 40.2471 60.2731 44.829 58.0481C44.8928 58.1144 44.9565 58.1806 45.0196 58.2494L45.0215 58.2875C42.3765 59.6019 39.529 60.5081 36.6115 60.9694C33.0546 61.5256 29.3953 61.4375 25.8728 60.6881C21.6296 59.7913 17.5965 57.925 14.159 55.2813C10.189 52.2419 7.01402 48.1731 5.04277 43.5769C4.51652 42.335 4.04715 41.0631 3.71777 39.755Z" fill="#939393"/>
<path d="M48.6458 47.0329C49.1277 46.9522 49.6508 47.0329 50.0583 47.3116C50.6714 47.6779 51.0414 48.411 50.9877 49.1216C50.9739 49.5922 50.7502 50.0341 50.4458 50.3841C50.0783 50.741 49.5808 50.9897 49.0608 50.9879C48.3852 51.0197 47.6952 50.6722 47.3352 50.0972C47.0308 49.6704 46.9471 49.1154 47.0396 48.6066C47.1852 47.8197 47.8558 47.1616 48.6458 47.0329Z" fill="#767676"/>
<path d="M31.6484 54.0293C32.194 53.9318 32.7772 54.0705 33.2159 54.4111C33.8997 54.9199 34.1878 55.8936 33.8772 56.6899C33.6666 57.2799 33.1609 57.7468 32.5603 57.9199C31.9759 58.0955 31.3159 57.978 30.8247 57.6161C30.1509 57.1449 29.8384 56.2274 30.0803 55.4418C30.2784 54.7211 30.9134 54.1555 31.6484 54.0293Z" fill="#BEBEBE"/>
</svg>
