<svg width="32" height="32" viewBox="0 0 32 32" fill="none" xmlns="http://www.w3.org/2000/svg">
<path fill-rule="evenodd" clip-rule="evenodd" d="M16 6.75C13.6528 6.75 11.75 8.65279 11.75 11C11.75 13.3472 13.6528 15.25 16 15.25C18.3472 15.25 20.25 13.3472 20.25 11C20.25 8.65279 18.3472 6.75 16 6.75ZM10.25 11C10.25 7.82436 12.8244 5.25 16 5.25C19.1756 5.25 21.75 7.82436 21.75 11C21.75 14.1756 19.1756 16.75 16 16.75C12.8244 16.75 10.25 14.1756 10.25 11Z" fill="#E7E7E7"/>
<path fill-rule="evenodd" clip-rule="evenodd" d="M16 19.75C11.5229 19.75 8.15997 22.6809 8.15997 26C8.15997 26.4142 7.82419 26.75 7.40997 26.75C6.99576 26.75 6.65997 26.4142 6.65997 26C6.65997 21.5791 10.9971 18.25 16 18.25C16.4142 18.25 16.75 18.5858 16.75 19C16.75 19.4142 16.4142 19.75 16 19.75Z" fill="#E7E7E7"/>
<path fill-rule="evenodd" clip-rule="evenodd" d="M22.2 19.75C20.8469 19.75 19.75 20.8469 19.75 22.2C19.75 23.5531 20.8469 24.65 22.2 24.65C23.5531 24.65 24.65 23.5531 24.65 22.2C24.65 20.8469 23.5531 19.75 22.2 19.75ZM18.25 22.2C18.25 20.0185 20.0185 18.25 22.2 18.25C24.3815 18.25 26.15 20.0185 26.15 22.2C26.15 24.3815 24.3815 26.15 22.2 26.15C20.0185 26.15 18.25 24.3815 18.25 22.2Z" fill="white"/>
<path fill-rule="evenodd" clip-rule="evenodd" d="M24.4697 24.4697C24.7626 24.1768 25.2374 24.1768 25.5303 24.4697L26.5303 25.4697C26.8232 25.7626 26.8232 26.2374 26.5303 26.5303C26.2374 26.8232 25.7626 26.8232 25.4697 26.5303L24.4697 25.5303C24.1768 25.2374 24.1768 24.7626 24.4697 24.4697Z" fill="white"/>
</svg>
