<svg width="16" height="16" viewBox="0 0 16 16" fill="none" xmlns="http://www.w3.org/2000/svg">
<path fill-rule="evenodd" clip-rule="evenodd" d="M7.452 3.11661C7.77902 2.97309 8.13432 2.96205 8.46569 3.08349L8.548 3.11661L12.7638 4.96676C12.9597 5.05275 13.0521 5.28898 12.9701 5.49441C12.8939 5.68516 12.6942 5.78227 12.5092 5.72632L12.4668 5.71066L8.25098 3.86051C8.10727 3.79744 7.95649 3.78956 7.81101 3.83686L7.74902 3.86051L3.53322 5.71066C3.33728 5.79665 3.11195 5.69983 3.02993 5.49441C2.95377 5.30366 3.02796 5.08634 3.19582 4.98742L3.2362 4.96676L7.452 3.11661ZM12.6153 12.1936C12.8277 12.1936 12.9999 12.3741 12.9999 12.5968C12.9999 12.8036 12.8514 12.974 12.6602 12.9973L12.6153 13H3.38473C3.17232 13 3.00012 12.8195 3.00012 12.5968C3.00012 12.39 3.1486 12.2196 3.33988 12.1963L3.38473 12.1936H12.6153ZM5.61291 6.74335C5.5907 6.54281 5.42813 6.38715 5.23089 6.38715C5.01848 6.38715 4.84628 6.56768 4.84628 6.79037V10.6613L4.84887 10.7084C4.87109 10.9089 5.03365 11.0646 5.23089 11.0646C5.4433 11.0646 5.6155 10.884 5.6155 10.6613V6.79037L5.61291 6.74335ZM7.99991 6.38715C8.19715 6.38715 8.35971 6.54281 8.38193 6.74335L8.38452 6.79037V10.6613C8.38452 10.884 8.21232 11.0646 7.99991 11.0646C7.80267 11.0646 7.64011 10.9089 7.61789 10.7084L7.6153 10.6613V6.79037C7.6153 6.56768 7.7875 6.38715 7.99991 6.38715ZM11.1513 6.74335C11.1291 6.54281 10.9665 6.38715 10.7693 6.38715C10.5569 6.38715 10.3847 6.56768 10.3847 6.79037V10.6613L10.3873 10.7084C10.4095 10.9089 10.572 11.0646 10.7693 11.0646C10.9817 11.0646 11.1539 10.884 11.1539 10.6613V6.79037L11.1513 6.74335Z" fill="#FFBC0F"/>
</svg>
