<svg width="30" height="30" viewBox="0 0 30 30" fill="none" xmlns="http://www.w3.org/2000/svg">
<rect width="30" height="30" rx="3" fill="#FFBC0F"/>
<path d="M7.66634 14.5418V18.2085C7.66634 18.9693 8.28051 19.5835 9.04134 19.5835C9.80217 19.5835 10.4163 18.9693 10.4163 18.2085V14.5418C10.4163 13.781 9.80217 13.1668 9.04134 13.1668C8.28051 13.1668 7.66634 13.781 7.66634 14.5418ZM13.1663 14.5418V18.2085C13.1663 18.9693 13.7805 19.5835 14.5413 19.5835C15.3022 19.5835 15.9163 18.9693 15.9163 18.2085V14.5418C15.9163 13.781 15.3022 13.1668 14.5413 13.1668C13.7805 13.1668 13.1663 13.781 13.1663 14.5418ZM7.20801 24.1668H21.8747C22.6355 24.1668 23.2497 23.5526 23.2497 22.7918C23.2497 22.031 22.6355 21.4168 21.8747 21.4168H7.20801C6.44717 21.4168 5.83301 22.031 5.83301 22.7918C5.83301 23.5526 6.44717 24.1668 7.20801 24.1668ZM18.6663 14.5418V18.2085C18.6663 18.9693 19.2805 19.5835 20.0413 19.5835C20.8022 19.5835 21.4163 18.9693 21.4163 18.2085V14.5418C21.4163 13.781 20.8022 13.1668 20.0413 13.1668C19.2805 13.1668 18.6663 13.781 18.6663 14.5418ZM13.6888 5.36596L6.44717 9.17929C6.07134 9.37179 5.83301 9.76596 5.83301 10.1876C5.83301 10.8201 6.34634 11.3335 6.97884 11.3335H22.113C22.7363 11.3335 23.2497 10.8201 23.2497 10.1876C23.2497 9.76596 23.0113 9.37179 22.6355 9.17929L15.3938 5.36596C14.8622 5.08179 14.2205 5.08179 13.6888 5.36596Z" fill="#FCFCFD"/>
</svg>
