<svg width="17" height="16" viewBox="0 0 17 16" fill="none" xmlns="http://www.w3.org/2000/svg">
<g opacity="0.7">
<path fill-rule="evenodd" clip-rule="evenodd" d="M13.3988 7.33329C13.3988 5.46068 13.3988 4.52437 12.9481 3.85177C12.7529 3.5606 12.5022 3.3106 12.2102 3.11604C11.5356 2.66663 10.5966 2.66663 8.71847 2.66663H7.38124C5.50315 2.66663 4.5641 2.66663 3.88954 3.11604C3.59751 3.3106 3.34678 3.5606 3.15166 3.85177C2.70093 4.52437 2.70093 5.46068 2.70093 7.33329C2.70093 9.20591 2.70093 10.1422 3.15166 10.8148C3.34678 11.106 3.59751 11.356 3.88954 11.5505C4.47882 11.9431 5.26995 11.9928 6.71262 11.9991V12L7.45183 13.4741C7.69823 13.9654 8.40148 13.9654 8.64788 13.4741L9.38709 12V11.9991C10.8298 11.9928 11.6209 11.9431 12.2102 11.5505C12.5022 11.356 12.7529 11.106 12.9481 10.8148C13.3988 10.1422 13.3988 9.20591 13.3988 7.33329ZM6.04401 4.99996C5.49172 4.99996 5.04401 5.44767 5.04401 5.99996C5.04401 6.55224 5.49172 6.99996 6.04401 6.99996H10.0557C10.608 6.99996 11.0557 6.55224 11.0557 5.99996C11.0557 5.44767 10.608 4.99996 10.0557 4.99996H6.04401ZM6.04401 7.66663C5.49172 7.66663 5.04401 8.11434 5.04401 8.66663C5.04401 9.21891 5.49172 9.66663 6.04401 9.66663H8.04986C8.60214 9.66663 9.04986 9.21891 9.04986 8.66663C9.04986 8.11434 8.60214 7.66663 8.04986 7.66663H6.04401Z" fill="#FCFCFD"/>
</g>
</svg>
