<svg width="32" height="32" viewBox="0 0 32 32" fill="none" xmlns="http://www.w3.org/2000/svg">
<path fill-rule="evenodd" clip-rule="evenodd" d="M12.75 10.9C12.75 9.22397 13.0898 8.24586 13.6678 7.66783C14.2459 7.0898 15.224 6.75 16.9 6.75H21.1C22.776 6.75 23.7541 7.0898 24.3322 7.66783C24.9102 8.24586 25.25 9.22397 25.25 10.9V15.1C25.25 16.776 24.9102 17.7541 24.3322 18.3322C23.7541 18.9102 22.776 19.25 21.1 19.25H20.75V16.9C20.75 16.786 20.7486 16.6734 20.7457 16.5622C20.7025 14.8939 20.3275 13.5418 19.3928 12.6072C19.2682 12.4825 19.1362 12.3679 18.9969 12.2626C18.0224 11.5258 16.696 11.25 15.1 11.25H12.75V10.9ZM11.25 11.25V10.9C11.25 9.07603 11.6102 7.60414 12.6072 6.60717C13.6041 5.6102 15.076 5.25 16.9 5.25H21.1C22.924 5.25 24.3959 5.6102 25.3928 6.60717C26.3898 7.60414 26.75 9.07603 26.75 10.9V15.1C26.75 16.924 26.3898 18.3959 25.3928 19.3928C24.3959 20.3898 22.924 20.75 21.1 20.75H20.75V21.1C20.75 22.924 20.3898 24.3959 19.3928 25.3928C18.3959 26.3898 16.924 26.75 15.1 26.75H10.9C9.07603 26.75 7.60414 26.3898 6.60717 25.3928C5.6102 24.3959 5.25 22.924 5.25 21.1V16.9C5.25 15.076 5.6102 13.6041 6.60717 12.6072C7.60414 11.6102 9.07603 11.25 10.9 11.25H11.25ZM11.9988 12.75H10.9C9.22397 12.75 8.24586 13.0898 7.66783 13.6678C7.0898 14.2459 6.75 15.224 6.75 16.9V21.1C6.75 22.776 7.0898 23.7541 7.66783 24.3322C8.24586 24.9102 9.22397 25.25 10.9 25.25H15.1C16.776 25.25 17.7541 24.9102 18.3322 24.3322C18.9102 23.7541 19.25 22.776 19.25 21.1V20V16.9C19.25 15.224 18.9102 14.2459 18.3322 13.6678C17.7541 13.0898 16.776 12.75 15.1 12.75H12C11.9996 12.75 11.9992 12.75 11.9988 12.75Z" fill="#FFBC0F"/>
</svg>
