<svg width="30" height="32" viewBox="0 0 30 32" fill="none" xmlns="http://www.w3.org/2000/svg">
<path fill-rule="evenodd" clip-rule="evenodd" d="M8.89036 8.75425C9.26805 8.33769 9.89315 8.35176 10.2866 8.78567L21.6841 21.3565C22.0775 21.7904 22.0902 22.4798 21.7126 22.8964C21.3349 23.3129 20.7098 23.2989 20.3164 22.865L8.91885 10.2942C8.52544 9.86026 8.51268 9.17081 8.89036 8.75425Z" fill="#FFBC0F"/>
<path fill-rule="evenodd" clip-rule="evenodd" d="M8.4446 22.7543C8.06691 22.3377 8.07967 21.6482 8.47309 21.2143L19.8706 8.64354C20.264 8.20962 20.8891 8.19555 21.2668 8.61212C21.6445 9.02868 21.6317 9.71813 21.2383 10.152L9.8408 22.7228C9.44738 23.1567 8.82228 23.1708 8.4446 22.7543Z" fill="#FFBC0F"/>
</svg>
