<svg width="32" height="32" viewBox="0 0 32 32" fill="none" xmlns="http://www.w3.org/2000/svg">
<path fill-rule="evenodd" clip-rule="evenodd" d="M7.88534 9.2371C7.20538 9.86848 6.75 10.893 6.75 12.5V19.5C6.75 21.107 7.20538 22.1315 7.88534 22.7629C8.57535 23.4036 9.61497 23.75 11 23.75H21C22.385 23.75 23.4246 23.4036 24.1147 22.7629C24.7946 22.1315 25.25 21.107 25.25 19.5V12.5C25.25 10.893 24.7946 9.86848 24.1147 9.2371C23.4246 8.59637 22.385 8.25 21 8.25H11C9.61497 8.25 8.57535 8.59637 7.88534 9.2371ZM6.86466 8.1379C7.92465 7.15363 9.38503 6.75 11 6.75H21C22.615 6.75 24.0754 7.15363 25.1353 8.1379C26.2054 9.13152 26.75 10.6071 26.75 12.5V19.5C26.75 21.393 26.2054 22.8685 25.1353 23.8621C24.0754 24.8464 22.615 25.25 21 25.25H11C9.38503 25.25 7.92465 24.8464 6.86466 23.8621C5.79462 22.8685 5.25 21.393 5.25 19.5V12.5C5.25 10.6071 5.79462 9.13152 6.86466 8.1379Z" fill="#E7E7E7"/>
<path fill-rule="evenodd" clip-rule="evenodd" d="M21.586 12.532C21.8445 12.8556 21.7917 13.3275 21.4681 13.586L18.3372 16.0868C17.0338 17.1244 14.9563 17.1244 13.6529 16.0868L13.651 16.0853L10.531 13.5853C10.2078 13.3263 10.1557 12.8543 10.4147 12.531C10.6738 12.2078 11.1458 12.1557 11.469 12.4147L14.588 14.914C15.3446 15.5155 16.6462 15.5154 17.4025 14.9135C17.4027 14.9135 17.4024 14.9136 17.4025 14.9135L20.532 12.414C20.8556 12.1555 21.3275 12.2083 21.586 12.532Z" fill="#E7E7E7"/>
</svg>
