<svg width="18" height="18" viewBox="0 0 18 18" fill="none" xmlns="http://www.w3.org/2000/svg">
<path fill-rule="evenodd" clip-rule="evenodd" d="M2.1494 2.3391C3.16176 1.32675 4.67664 0.939697 6.6293 0.939697H8.14654C8.46077 0.939697 8.71551 1.19443 8.71551 1.50866C8.71551 1.82289 8.46077 2.07763 8.14654 2.07763H6.6293C4.78887 2.07763 3.64858 2.4492 2.95404 3.14374C2.2595 3.83828 1.88793 4.97857 1.88793 6.819V11.3707C1.88793 13.2111 2.2595 14.3514 2.95404 15.046C3.64858 15.7405 4.78887 16.1121 6.6293 16.1121H11.181C13.0215 16.1121 14.1617 15.7405 14.8563 15.046C15.5508 14.3514 15.9224 13.2111 15.9224 11.3707V9.85348C15.9224 9.53925 16.1771 9.28451 16.4914 9.28451C16.8056 9.28451 17.0603 9.53925 17.0603 9.85348V11.3707C17.0603 13.3234 16.6733 14.8383 15.6609 15.8506C14.6486 16.863 13.1337 17.25 11.181 17.25H6.6293C4.67664 17.25 3.16176 16.863 2.1494 15.8506C1.13705 14.8383 0.75 13.3234 0.75 11.3707V6.819C0.75 4.86633 1.13705 3.35145 2.1494 2.3391Z" fill="#FFBC0F"/>
<path fill-rule="evenodd" clip-rule="evenodd" d="M13.6061 0.760377C14.4507 0.677471 15.2881 1.04839 16.1198 1.88016C16.9516 2.71194 17.3225 3.54931 17.2396 4.39392C17.1596 5.20869 16.6683 5.88395 16.1198 6.43238L10.1353 12.4169C9.96449 12.5822 9.74118 12.7267 9.52572 12.835C9.31152 12.9426 9.05922 13.0376 8.81869 13.0719L6.53235 13.3985C5.96939 13.476 5.43075 13.3223 5.05285 12.9459C4.67414 12.5688 4.51923 12.0299 4.60203 11.4637C4.60208 11.4634 4.60214 11.463 4.60219 11.4626L4.92783 9.18315C4.92787 9.18282 4.92792 9.18248 4.92797 9.18215C4.96213 8.93844 5.0566 8.68434 5.16504 8.4686C5.2737 8.2524 5.42001 8.02778 5.5897 7.85808L11.5676 1.88016C12.1161 1.33173 12.7913 0.840354 13.6061 0.760377ZM13.7172 1.89286C13.2955 1.93427 12.8556 2.20151 12.3723 2.6848L6.39434 8.66272C6.33645 8.72062 6.25517 8.83358 6.18177 8.97962C6.10828 9.12582 6.06631 9.25821 6.05484 9.34041L6.05458 9.34225L5.72837 11.6257L5.72806 11.6279C5.68985 11.8881 5.76637 12.0506 5.85585 12.1397C5.94624 12.2297 6.11271 12.3073 6.37586 12.2714C6.37631 12.2714 6.37676 12.2713 6.37721 12.2712L8.65776 11.9454C8.73585 11.9343 8.86665 11.8926 9.01469 11.8182C9.1594 11.7455 9.27625 11.6637 9.34117 11.6018L15.3152 5.62774C15.7985 5.14445 16.0657 4.70454 16.1071 4.28276C16.1456 3.89082 16.0007 3.37027 15.3152 2.6848C14.6297 1.99934 14.1092 1.85439 13.7172 1.89286Z" fill="#FFBC0F"/>
<path fill-rule="evenodd" clip-rule="evenodd" d="M10.9591 2.59182C11.2617 2.507 11.5757 2.68352 11.6605 2.98609C12.115 4.60734 13.3841 5.87762 15.0154 6.33983C15.3177 6.42549 15.4933 6.74002 15.4077 7.04235C15.322 7.34468 15.0075 7.52032 14.7052 7.43466C12.6951 6.86515 11.1269 5.29819 10.5648 3.29325C10.48 2.99068 10.6565 2.67664 10.9591 2.59182Z" fill="#FFBC0F"/>
</svg>
