<svg width="23" height="23" viewBox="0 0 23 23" fill="none" xmlns="http://www.w3.org/2000/svg">
<path fill-rule="evenodd" clip-rule="evenodd" d="M16.5175 10.3155L18.2081 8.62494C18.6755 8.15757 18.9092 7.92389 19.0454 7.67826C19.38 7.07489 19.38 6.34166 19.0454 5.73829C18.9092 5.49267 18.6755 5.25898 18.2081 4.79161C17.7407 4.32424 17.507 4.09055 17.2614 3.95433C16.6581 3.61971 15.9248 3.61971 15.3215 3.95433C15.0758 4.09055 14.8421 4.32424 14.3748 4.79161L12.6624 6.50402C13.5845 8.08701 14.9133 9.40562 16.5175 10.3155ZM11.2079 7.9585L4.68948 14.4769C4.26442 14.902 4.05189 15.1145 3.91216 15.3756C3.77242 15.6367 3.71348 15.9314 3.59559 16.5209L3.02186 19.3895C2.95534 19.7221 2.92208 19.8884 3.01668 19.983C3.11129 20.0776 3.2776 20.0444 3.61021 19.9779L6.47886 19.4041C7.06831 19.2862 7.36303 19.2273 7.62413 19.0876C7.88522 18.9478 8.09775 18.7353 8.5228 18.3103L8.52281 18.3102L8.52282 18.3102L15.0593 11.7738C13.5061 10.7994 12.1917 9.49403 11.2079 7.9585Z" fill="white"/>
<rect x="3" y="21" width="17" height="1" rx="0.5" fill="#FCFCFD"/>
</svg>
