<svg width="32" height="32" viewBox="0 0 32 32" fill="none" xmlns="http://www.w3.org/2000/svg">
<path fill-rule="evenodd" clip-rule="evenodd" d="M6.67972 5.29415C6.76106 5.26494 6.84683 5.25 6.93325 5.25H25.0667C25.1532 5.25 25.2389 5.26494 25.3203 5.29415C25.631 5.40576 25.9111 5.58818 26.1398 5.82603C26.3684 6.06381 26.5396 6.35072 26.6416 6.6642C26.7436 6.97763 26.7741 7.31029 26.731 7.63706C26.688 7.96384 26.5724 8.27727 26.3919 8.55325C26.3718 8.58401 26.3495 8.61326 26.3251 8.64074L19.5398 16.2849V26C19.5398 26.2856 19.3775 26.5465 19.1213 26.6727C18.8651 26.799 18.5594 26.7688 18.3329 26.5948L12.7534 22.3091C12.5686 22.1671 12.4602 21.9473 12.4602 21.7143V16.2849L5.67491 8.64074C5.65051 8.61326 5.62816 8.58401 5.60805 8.55325C5.42763 8.27727 5.312 7.96384 5.26895 7.63706C5.2259 7.31029 5.25639 6.97763 5.3584 6.6642C5.46043 6.35072 5.63164 6.06381 5.86023 5.82603C6.08889 5.58818 6.36898 5.40576 6.67972 5.29415ZM7.09039 6.75C7.03633 6.78049 6.98612 6.81926 6.94159 6.86558C6.87146 6.93853 6.81737 7.02824 6.78476 7.12844C6.75213 7.22868 6.74222 7.33576 6.7561 7.44113C6.76796 7.53113 6.79678 7.61694 6.84012 7.69388L13.7711 15.5021C13.893 15.6394 13.9602 15.8165 13.9602 16V21.3447L18.0398 24.4782V16C18.0398 15.8165 18.107 15.6394 18.2289 15.5021L25.1599 7.69387C25.2032 7.61694 25.232 7.53112 25.2439 7.44113C25.2578 7.33576 25.2479 7.22868 25.2152 7.12844C25.1826 7.02824 25.1285 6.93853 25.0584 6.86558C25.0139 6.81926 24.9637 6.78049 24.9096 6.75H7.09039Z" fill="#FFBC0F"/>
</svg>
