<svg width="32" height="32" viewBox="0 0 32 32" fill="none" xmlns="http://www.w3.org/2000/svg">
<path fill-rule="evenodd" clip-rule="evenodd" d="M12.75 8.25C12.75 7.42421 13.4242 6.75 14.25 6.75H17.75C18.1628 6.75 18.5344 6.91505 18.8097 7.19033C19.085 7.46561 19.25 7.83714 19.25 8.25C19.25 9.07579 18.5758 9.75 17.75 9.75H14.25C13.8372 9.75 13.4656 9.58495 13.1903 9.30967C12.915 9.03439 12.75 8.66286 12.75 8.25ZM11.3391 7.52296C11.6649 6.21888 12.8464 5.25 14.25 5.25H17.75C18.5772 5.25 19.3256 5.58496 19.8704 6.12967C20.25 6.50928 20.5277 6.98782 20.6612 7.52297C21.6113 7.59251 22.5531 7.83506 23.3044 8.45141C24.2612 9.23631 24.75 10.4905 24.75 12.25V22C24.75 23.6535 24.2509 24.8879 23.3189 25.6926C22.4076 26.4797 21.2029 26.75 20 26.75H12C10.7971 26.75 9.59244 26.4797 8.68106 25.6926C7.74912 24.8879 7.25 23.6535 7.25 22V12.25C7.25 10.4905 7.7388 9.23631 8.69556 8.45141C9.44692 7.83501 10.3889 7.59247 11.3391 7.52296ZM11.3517 9.02685C10.6231 9.09167 10.0547 9.27659 9.64694 9.61109C9.1562 10.0137 8.75 10.7595 8.75 12.25V22C8.75 23.3465 9.14588 24.1121 9.66144 24.5574C10.1976 25.0203 10.9929 25.25 12 25.25H20C21.0071 25.25 21.8024 25.0203 22.3386 24.5574C22.8541 24.1121 23.25 23.3465 23.25 22V12.25C23.25 10.7595 22.8438 10.0137 22.3531 9.61109C21.9453 9.27655 21.3767 9.09163 20.648 9.02683C20.3049 10.3057 19.1357 11.25 17.75 11.25H14.25C13.4228 11.25 12.6744 10.915 12.1296 10.3703C11.7892 10.0299 11.5307 9.60984 11.3847 9.14075C11.373 9.10309 11.362 9.06512 11.3517 9.02685ZM11.25 17C11.25 16.5858 11.5858 16.25 12 16.25H16C16.4142 16.25 16.75 16.5858 16.75 17C16.75 17.4142 16.4142 17.75 16 17.75H12C11.5858 17.75 11.25 17.4142 11.25 17ZM12 20.25C11.5858 20.25 11.25 20.5858 11.25 21C11.25 21.4142 11.5858 21.75 12 21.75H20C20.4142 21.75 20.75 21.4142 20.75 21C20.75 20.5858 20.4142 20.25 20 20.25H12Z" fill="#E7E7E7"/>
</svg>
