<svg width="32" height="32" viewBox="0 0 32 32" fill="none" xmlns="http://www.w3.org/2000/svg">
<path fill-rule="evenodd" clip-rule="evenodd" d="M11.7091 8.22924C11.0003 9.10912 10.75 10.3899 10.75 12V14C10.75 14.4142 10.4142 14.75 10 14.75C9.58579 14.75 9.25 14.4142 9.25 14V12C9.25 10.3001 9.49969 8.58088 10.5409 7.28826C11.6104 5.96061 13.3716 5.25 16 5.25C18.6284 5.25 20.3896 5.96061 21.4591 7.28826C22.5003 8.58088 22.75 10.3001 22.75 12V14C22.75 14.4142 22.4142 14.75 22 14.75C21.5858 14.75 21.25 14.4142 21.25 14V12C21.25 10.3899 20.9997 9.10912 20.2909 8.22924C19.6104 7.38439 18.3716 6.75 16 6.75C13.6284 6.75 12.3896 7.38439 11.7091 8.22924Z" fill="#E7E7E7"/>
<path fill-rule="evenodd" clip-rule="evenodd" d="M7.53033 15.5303C7.01884 16.0418 6.75 16.9946 6.75 19V21C6.75 23.0054 7.01884 23.9582 7.53033 24.4697C8.04182 24.9812 8.99464 25.25 11 25.25H21C23.0054 25.25 23.9582 24.9812 24.4697 24.4697C24.9812 23.9582 25.25 23.0054 25.25 21V19C25.25 16.9946 24.9812 16.0418 24.4697 15.5303C23.9582 15.0188 23.0054 14.75 21 14.75H11C8.99464 14.75 8.04182 15.0188 7.53033 15.5303ZM6.46967 14.4697C7.45818 13.4812 9.00536 13.25 11 13.25H21C22.9946 13.25 24.5418 13.4812 25.5303 14.4697C26.5188 15.4582 26.75 17.0054 26.75 19V21C26.75 22.9946 26.5188 24.5418 25.5303 25.5303C24.5418 26.5188 22.9946 26.75 21 26.75H11C9.00536 26.75 7.45818 26.5188 6.46967 25.5303C5.48116 24.5418 5.25 22.9946 5.25 21V19C5.25 17.0054 5.48116 15.4582 6.46967 14.4697Z" fill="#E7E7E7"/>
<path fill-rule="evenodd" clip-rule="evenodd" d="M18.9961 20C18.9961 19.4477 19.4438 19 19.9961 19H20.0051C20.5574 19 21.0051 19.4477 21.0051 20C21.0051 20.5523 20.5574 21 20.0051 21H19.9961C19.4438 21 18.9961 20.5523 18.9961 20Z" fill="#E7E7E7"/>
<path fill-rule="evenodd" clip-rule="evenodd" d="M14.9951 20C14.9951 19.4477 15.4428 19 15.9951 19H16.0041C16.5564 19 17.0041 19.4477 17.0041 20C17.0041 20.5523 16.5564 21 16.0041 21H15.9951C15.4428 21 14.9951 20.5523 14.9951 20Z" fill="#E7E7E7"/>
<path fill-rule="evenodd" clip-rule="evenodd" d="M10.9941 20C10.9941 19.4477 11.4419 19 11.9941 19H12.0031C12.5554 19 13.0031 19.4477 13.0031 20C13.0031 20.5523 12.5554 21 12.0031 21H11.9941C11.4419 21 10.9941 20.5523 10.9941 20Z" fill="#E7E7E7"/>
</svg>
