<svg width="32" height="32" viewBox="0 0 32 32" fill="none" xmlns="http://www.w3.org/2000/svg">
<path fill-rule="evenodd" clip-rule="evenodd" d="M14.5059 7.79035C15.8222 7.96156 16.8538 9.00964 17.4556 10.5364L20.822 19.0769C21.4223 20.5999 21.3824 22.0691 20.5385 23.0929C19.6943 24.117 18.2595 24.4363 16.648 24.1354C16.6479 24.1354 16.648 24.1355 16.648 24.1354L13.2701 23.5055C13.0266 23.4675 12.7826 23.4926 12.5767 23.5738L11.2463 24.0982C10.2084 24.5073 9.19937 24.6047 8.30408 24.2157C7.40878 23.8266 6.79149 23.0225 6.38238 21.9846L4.91554 18.2633C4.50644 17.2254 4.40904 16.2163 4.79809 15.321C5.18713 14.4257 5.99125 13.8084 7.02914 13.3993L8.35952 12.8749C8.56543 12.7938 8.7609 12.6457 8.913 12.4517L10.9525 9.68651C10.9526 9.68647 10.9525 9.68655 10.9525 9.68651C11.9246 8.36812 13.1899 7.61921 14.5059 7.79035ZM14.3124 9.27782C13.742 9.20364 12.9528 9.50107 12.1599 10.5766L10.1036 13.3646C9.80031 13.7557 9.38987 14.0811 8.90958 14.2704L7.5792 14.7948C6.75642 15.1192 6.34839 15.5171 6.17381 15.9188C5.99923 16.3206 5.98673 16.8904 6.31105 17.7132L7.77789 21.4345C8.1022 22.2573 8.50014 22.6654 8.90189 22.8399C9.30364 23.0145 9.87346 23.027 10.6962 22.7027L12.0266 22.1783C12.5069 21.989 13.029 21.947 13.5176 22.0261L13.5353 22.0289L16.923 22.6609C18.2352 22.9058 19.0145 22.5835 19.381 22.1388C19.7478 21.6939 19.9153 20.867 19.4265 19.6269L16.0601 11.0865C15.5691 9.84082 14.8824 9.35196 14.3124 9.27782Z" fill="#E7E7E7"/>
<path fill-rule="evenodd" clip-rule="evenodd" d="M11.7911 22.8756C12.4657 22.6521 13.1949 23.0144 13.4198 23.6848L14.2782 26.2439C14.503 26.9144 14.1384 27.639 13.4638 27.8625C12.7892 28.0859 12.0601 27.7236 11.8352 27.0532L10.9768 24.4941C10.752 23.8237 11.1165 23.0991 11.7911 22.8756Z" fill="#E7E7E7"/>
<path fill-rule="evenodd" clip-rule="evenodd" d="M22.3947 6.48737C22.7757 6.64976 22.953 7.0903 22.7906 7.47136L21.0374 11.5855C20.875 11.9666 20.4344 12.1438 20.0534 11.9814C19.6723 11.8191 19.495 11.3785 19.6574 10.9974L21.4107 6.88331C21.573 6.50225 22.0136 6.32498 22.3947 6.48737ZM26.0839 11.6802C26.2526 12.0585 26.0828 12.502 25.7045 12.6707L21.803 14.411C21.4247 14.5798 20.9813 14.4099 20.8125 14.0316C20.6438 13.6533 20.8137 13.2099 21.192 13.0411L25.0934 11.3008C25.4717 11.1321 25.9151 11.302 26.0839 11.6802ZM21.9306 15.9405C22.0522 15.5445 22.4717 15.3221 22.8677 15.4437L26.9515 16.6979C27.3474 16.8195 27.5698 17.2391 27.4482 17.635C27.3266 18.031 26.9071 18.2534 26.5111 18.1318L22.4273 16.8776C22.0314 16.756 21.809 16.3365 21.9306 15.9405Z" fill="#E7E7E7"/>
</svg>
