<svg width="25" height="24" viewBox="0 0 25 24" fill="none" xmlns="http://www.w3.org/2000/svg">
<path fill-rule="evenodd" clip-rule="evenodd" d="M11.3794 5.84282C12.3667 5.97123 13.1404 6.75729 13.5917 7.90236L16.1165 14.3077C16.5668 15.45 16.5368 16.5519 15.9039 17.3197C15.2707 18.0878 14.1947 18.3273 12.986 18.1016C12.986 18.1016 12.986 18.1017 12.986 18.1016L10.4526 17.6292C10.2699 17.6007 10.0869 17.6195 9.93251 17.6804L8.93473 18.0737C8.15631 18.3805 7.39953 18.4536 6.72806 18.1618C6.05658 17.87 5.59361 17.2669 5.28679 16.4885L4.18666 13.6975C3.87983 12.9191 3.80678 12.1623 4.09856 11.4908C4.39035 10.8194 4.99343 10.3564 5.77185 10.0496L6.76964 9.65627C6.92407 9.5954 7.07068 9.4843 7.18475 9.33884L8.71439 7.26494C8.71441 7.26491 8.71437 7.26497 8.71439 7.26494C9.44343 6.27615 10.3924 5.71447 11.3794 5.84282ZM11.2343 6.95843C10.8065 6.90279 10.2146 7.12586 9.61989 7.93254L8.07768 10.0235C7.85023 10.3168 7.5424 10.5609 7.18219 10.7029L6.1844 11.0962C5.56732 11.3394 5.26129 11.6379 5.13036 11.9392C4.99942 12.2405 4.99005 12.6679 5.23328 13.285L6.33341 16.076C6.57665 16.693 6.87511 16.9991 7.17642 17.13C7.47773 17.2609 7.90509 17.2703 8.52218 17.0271L9.51996 16.6338C9.88018 16.4918 10.2717 16.4603 10.6382 16.5196L10.6515 16.5218L13.1922 16.9957C14.1764 17.1794 14.7608 16.9377 15.0358 16.6042C15.3108 16.2705 15.4365 15.6503 15.0699 14.7203L12.5451 8.31491C12.1768 7.38068 11.6618 7.01403 11.2343 6.95843Z" fill="#52504A"/>
<path fill-rule="evenodd" clip-rule="evenodd" d="M9.34342 17.1567C9.84937 16.9891 10.3962 17.2608 10.5649 17.7636L11.2087 19.683C11.3773 20.1858 11.1039 20.7292 10.5979 20.8968C10.092 21.0645 9.54511 20.7927 9.37645 20.2899L8.73268 18.3706C8.56403 17.8678 8.83746 17.3243 9.34342 17.1567Z" fill="#52504A"/>
<path fill-rule="evenodd" clip-rule="evenodd" d="M17.2959 4.86547C17.5817 4.98726 17.7147 5.31767 17.5929 5.60346L16.278 8.68906C16.1562 8.97486 15.8258 9.10781 15.54 8.98602C15.2542 8.86423 15.1212 8.53382 15.243 8.24803L16.5579 5.16242C16.6797 4.87663 17.0101 4.74368 17.2959 4.86547ZM20.0629 8.76012C20.1894 9.04384 20.062 9.37643 19.7783 9.50298L16.8522 10.8082C16.5685 10.9348 16.2359 10.8074 16.1093 10.5236C15.9828 10.2399 16.1102 9.90734 16.3939 9.78079L19.32 8.47556C19.6037 8.34901 19.9363 8.47641 20.0629 8.76012ZM16.9479 11.9553C17.0391 11.6583 17.3538 11.4915 17.6507 11.5827L20.7135 12.5233C21.0105 12.6146 21.1773 12.9292 21.0861 13.2262C20.9949 13.5232 20.6802 13.69 20.3833 13.5988L17.3205 12.6582C17.0235 12.567 16.8567 12.2523 16.9479 11.9553Z" fill="#52504A"/>
</svg>
