<svg width="15" height="14" viewBox="0 0 15 14" fill="none" xmlns="http://www.w3.org/2000/svg">
<g clip-path="url(#clip0_761_5622)">
<path d="M7.06712 14C8.46477 14 9.83104 13.5895 10.9931 12.8203C12.1553 12.0511 13.061 10.9579 13.5959 9.67878C14.1307 8.3997 14.2707 6.99223 13.998 5.63437C13.7253 4.2765 13.0523 3.02922 12.064 2.05025C11.0757 1.07128 9.81656 0.404599 8.44576 0.134502C7.07496 -0.135594 5.65409 0.00302982 4.36282 0.532843C3.07156 1.06266 1.9679 1.95986 1.1914 3.11101C0.414906 4.26215 0.000452042 5.61553 0.000452042 7C0.0024786 8.8559 0.747651 10.6352 2.07247 11.9475C3.39729 13.2599 5.19354 13.998 7.06712 14V14ZM7.06712 1.16667C8.23183 1.16667 9.37039 1.50879 10.3388 2.14976C11.3072 2.79074 12.062 3.70178 12.5077 4.76768C12.9535 5.83358 13.0701 7.00647 12.8429 8.13803C12.6156 9.26958 12.0548 10.309 11.2312 11.1248C10.4076 11.9406 9.35832 12.4962 8.21598 12.7212C7.07365 12.9463 5.88959 12.8308 4.81354 12.3893C3.73748 11.9478 2.81777 11.2001 2.17069 10.2408C1.52361 9.28154 1.17823 8.15372 1.17823 7C1.17994 5.45342 1.80093 3.97068 2.90494 2.87709C4.00895 1.78349 5.50581 1.16836 7.06712 1.16667Z" fill="#8A8779"/>
<path d="M7.06736 11.083C7.22354 11.083 7.37333 11.0215 7.48377 10.9122C7.59421 10.8028 7.65625 10.6544 7.65625 10.4997L7.65625 5.83301C7.65625 5.6783 7.59421 5.52992 7.48377 5.42053C7.37333 5.31113 7.22354 5.24967 7.06736 5.24967C6.91117 5.24967 6.76139 5.31113 6.65095 5.42053C6.54051 5.52992 6.47847 5.6783 6.47847 5.83301L6.47847 10.4997C6.47847 10.6544 6.54051 10.8028 6.65095 10.9122C6.76139 11.0215 6.91117 11.083 7.06736 11.083Z" fill="#8A8779"/>
<path d="M6.47847 3.49967C6.47847 3.82184 6.74212 4.08301 7.06736 4.08301C7.39259 4.08301 7.65625 3.82184 7.65625 3.49967C7.65625 3.1775 7.39259 2.91634 7.06736 2.91634C6.74212 2.91634 6.47847 3.1775 6.47847 3.49967Z" fill="#8A8779"/>
</g>
<defs>
<clipPath id="clip0_761_5622">
<rect width="14.1333" height="14" fill="white" transform="translate(14.1338 14) rotate(-180)"/>
</clipPath>
</defs>
</svg>
