<svg width="24" height="24" viewBox="0 0 24 24" fill="none" xmlns="http://www.w3.org/2000/svg">
<path fill-rule="evenodd" clip-rule="evenodd" d="M5.0625 11.625C5.0625 8.00063 8.00063 5.0625 11.625 5.0625C15.2494 5.0625 18.1875 8.00063 18.1875 11.625C18.1875 15.2494 15.2494 18.1875 11.625 18.1875C8.00063 18.1875 5.0625 15.2494 5.0625 11.625ZM11.625 3.9375C7.37931 3.9375 3.9375 7.37931 3.9375 11.625C3.9375 15.8707 7.37931 19.3125 11.625 19.3125C15.8707 19.3125 19.3125 15.8707 19.3125 11.625C19.3125 7.37931 15.8707 3.9375 11.625 3.9375ZM18.3977 17.6023C18.1781 17.3826 17.8219 17.3826 17.6023 17.6023C17.3826 17.8219 17.3826 18.1781 17.6023 18.3977L19.1023 19.8977C19.3219 20.1174 19.6781 20.1174 19.8977 19.8977C20.1174 19.6781 20.1174 19.3219 19.8977 19.1023L18.3977 17.6023Z" fill="#FFBC0F"/>
</svg>
