<svg width="24" height="24" viewBox="0 0 24 24" fill="none" xmlns="http://www.w3.org/2000/svg">
<path fill-rule="evenodd" clip-rule="evenodd" d="M9.75 3.9375C9.43934 3.9375 9.1875 4.18934 9.1875 4.5C9.1875 4.81066 9.43934 5.0625 9.75 5.0625H14.25C14.5607 5.0625 14.8125 4.81066 14.8125 4.5C14.8125 4.18934 14.5607 3.9375 14.25 3.9375H9.75ZM12 6.93764C8.68816 6.93764 6 9.6258 6 12.9376C6 16.2495 8.68816 18.9376 12 18.9376C15.3118 18.9376 18 16.2495 18 12.9376C18 9.6258 15.3118 6.93764 12 6.93764ZM4.875 12.9376C4.875 9.00448 8.06684 5.81264 12 5.81264C15.9332 5.81264 19.125 9.00448 19.125 12.9376C19.125 16.8708 15.9332 20.0626 12 20.0626C8.06684 20.0626 4.875 16.8708 4.875 12.9376ZM12 8.4375C12.3107 8.4375 12.5625 8.68934 12.5625 9V12.75C12.5625 13.0607 12.3107 13.3125 12 13.3125C11.6893 13.3125 11.4375 13.0607 11.4375 12.75V9C11.4375 8.68934 11.6893 8.4375 12 8.4375Z" fill="#FFBC0F"/>
</svg>
