<svg width="30" height="30" viewBox="0 0 30 30" fill="none" xmlns="http://www.w3.org/2000/svg">
<rect width="30" height="30" rx="3" fill="#EE0033"/>
<path d="M25.5497 8.31136C25.3483 8.02172 25.0699 7.79423 24.7459 7.65466C24.4219 7.51509 24.0654 7.46901 23.7165 7.52163L5.65435 10.0601C5.3008 10.1094 4.96799 10.2562 4.69333 10.4842C4.41866 10.7122 4.21304 11.0123 4.09956 11.3508C3.98608 11.6892 3.96924 12.0526 4.05094 12.4001C4.13264 12.7475 4.30964 13.0654 4.56204 13.3178L15.5931 24.3889C15.7699 24.568 15.9806 24.7103 16.2128 24.8074C16.4451 24.9045 16.6943 24.9545 16.9461 24.9545C17.0465 24.9544 17.1469 24.9466 17.2462 24.9313C17.5452 24.8862 17.8292 24.7705 18.0745 24.5936C18.3199 24.4168 18.5195 24.184 18.6568 23.9145L25.6894 10.3025C25.8545 9.99068 25.9289 9.63888 25.9042 9.28695C25.8795 8.93502 25.7567 8.59705 25.5497 8.31136ZM25.5122 10.2112L18.4811 23.8212C18.3579 24.0627 18.1789 24.2713 17.9588 24.4296C17.7388 24.5879 17.4841 24.6914 17.216 24.7314C17.1269 24.745 17.0368 24.7519 16.9465 24.7521C16.7211 24.7521 16.498 24.7073 16.29 24.6203C16.0821 24.5332 15.8935 24.4058 15.7353 24.2452L4.70321 13.1727C4.47778 12.9464 4.31982 12.6618 4.24705 12.3508C4.17427 12.0398 4.18955 11.7147 4.29116 11.4119C4.39278 11.109 4.57673 10.8405 4.82238 10.6364C5.06804 10.4322 5.36569 10.3006 5.68199 10.2561L23.7447 7.71857C23.8281 7.70698 23.9122 7.7012 23.9964 7.70129C24.2905 7.70353 24.579 7.7811 24.8346 7.92659C25.0901 8.07208 25.3041 8.28064 25.4561 8.53236C25.6082 8.78408 25.6931 9.07056 25.7029 9.36446C25.7128 9.65835 25.6471 9.94986 25.5122 10.2112Z" fill="white"/>
<path d="M23.4509 8.09492L6.08069 10.5372C5.7925 10.5774 5.52122 10.6971 5.29729 10.8829C5.07337 11.0688 4.90566 11.3133 4.81298 11.5891C4.7203 11.865 4.70633 12.1612 4.77262 12.4445C4.83891 12.7278 4.98285 12.9871 5.18829 13.1931L15.8003 23.8392C15.9444 23.9856 16.1163 24.1018 16.3057 24.181C16.4952 24.2602 16.6986 24.3009 16.904 24.3007C16.9866 24.3008 17.0691 24.2945 17.1508 24.282C17.3949 24.2457 17.6269 24.1515 17.8273 24.0073C18.0277 23.8632 18.1907 23.6732 18.3028 23.4533L25.0649 10.3649C25.197 10.1097 25.2562 9.823 25.2362 9.5363C25.2163 9.24961 25.1178 8.97395 24.9516 8.73949C24.7854 8.50504 24.5578 8.32084 24.2939 8.20707C24.03 8.09329 23.7399 8.05432 23.4553 8.09443L23.4509 8.09492ZM24.8823 10.2726L18.1202 23.3615C18.0214 23.5526 17.8789 23.7177 17.7042 23.8434C17.5296 23.969 17.3277 24.0516 17.115 24.0845C16.9024 24.1174 16.685 24.0995 16.4806 24.0325C16.2761 23.9654 16.0904 23.851 15.9385 23.6986L5.33044 13.052C5.15131 12.8723 5.02576 12.6463 4.96784 12.3993C4.90993 12.1522 4.92195 11.894 5.00255 11.6534C5.08316 11.4128 5.22916 11.1994 5.4242 11.0371C5.61924 10.8749 5.85562 10.7701 6.10685 10.7346L23.478 8.29236C23.5434 8.28298 23.6094 8.2782 23.6755 8.27804C23.9091 8.27987 24.1383 8.34153 24.3413 8.45713C24.5443 8.57273 24.7143 8.73842 24.8351 8.93839C24.9559 9.13836 25.0234 9.36595 25.0312 9.59943C25.039 9.83292 24.9869 10.0645 24.8798 10.2721L24.8823 10.2726Z" fill="white"/>
<path d="M23.1132 8.67805L6.5806 11.0009C6.35008 11.0326 6.13302 11.1282 5.95388 11.2767C5.77474 11.4252 5.64064 11.6208 5.5667 11.8415C5.49276 12.0621 5.48191 12.299 5.53538 12.5255C5.58886 12.752 5.70453 12.959 5.86935 13.1233L15.9661 23.2565C16.0811 23.3733 16.2181 23.466 16.3693 23.5292C16.5205 23.5924 16.6828 23.6249 16.8466 23.6247C16.9128 23.6247 16.9788 23.6196 17.0441 23.6094C17.2388 23.5799 17.4237 23.5042 17.5833 23.3887C17.743 23.2733 17.8727 23.1213 17.9616 22.9456L24.3975 10.4895C24.5027 10.2859 24.5499 10.0573 24.5339 9.82872C24.518 9.60012 24.4395 9.3803 24.307 9.19331C24.1745 9.00632 23.9932 8.85936 23.7828 8.76848C23.5724 8.67761 23.3411 8.64632 23.1142 8.67805H23.1132ZM24.2198 10.3977L17.7845 22.8572C17.7086 23.0044 17.5991 23.1316 17.4647 23.2284C17.3303 23.3252 17.175 23.3888 17.0113 23.4141C16.8477 23.4393 16.6804 23.4255 16.5231 23.3738C16.3658 23.3221 16.223 23.2338 16.1063 23.1164L6.01101 12.9816C5.87262 12.8436 5.77547 12.6698 5.73051 12.4796C5.68556 12.2895 5.69456 12.0905 5.75653 11.9052C5.81849 11.7199 5.93095 11.5555 6.08125 11.4306C6.23155 11.3057 6.41372 11.2253 6.60726 11.1983L23.1393 8.87845C23.1902 8.87114 23.2415 8.86751 23.2928 8.86759C23.4724 8.86903 23.6485 8.91644 23.8045 9.0053C23.9605 9.09416 24.0912 9.2215 24.184 9.37519C24.2768 9.52887 24.3287 9.70377 24.3347 9.8832C24.3407 10.0626 24.3006 10.2406 24.2183 10.4002L24.2198 10.3977Z" fill="white"/>
<path d="M22.8467 9.25197L7.00814 11.479C6.84326 11.5021 6.68806 11.5706 6.55997 11.677C6.43187 11.7833 6.33594 11.9232 6.28294 12.081C6.22994 12.2389 6.22196 12.4083 6.25991 12.5704C6.29786 12.7325 6.38023 12.8809 6.49777 12.9988L16.172 22.709C16.2545 22.7926 16.3528 22.859 16.4612 22.9042C16.5696 22.9495 16.6859 22.9727 16.8033 22.9726C16.8502 22.9726 16.8971 22.969 16.9435 22.9617C17.0835 22.9408 17.2164 22.8868 17.3313 22.8041C17.4462 22.7215 17.5396 22.6125 17.6039 22.4864L23.7678 10.5506C23.8433 10.4046 23.8772 10.2406 23.8657 10.0766C23.8543 9.91255 23.7979 9.75486 23.7028 9.62076C23.6077 9.48666 23.4775 9.38131 23.3265 9.31627C23.1755 9.25122 23.0095 9.22897 22.8467 9.25197ZM23.5896 10.4578L17.4227 22.3951C17.3724 22.4925 17.2998 22.5767 17.2109 22.6407C17.1219 22.7048 17.019 22.7469 16.9106 22.7636C16.8023 22.7803 16.6915 22.7713 16.5874 22.7371C16.4832 22.7029 16.3886 22.6446 16.3112 22.5669L6.63696 12.8566C6.5459 12.7649 6.48217 12.6496 6.45292 12.5238C6.42367 12.3979 6.43005 12.2663 6.47135 12.1438C6.51265 12.0214 6.58724 11.9128 6.68676 11.8304C6.78627 11.7479 6.90679 11.6948 7.03479 11.6769L22.8754 9.4499C23.0018 9.43179 23.1308 9.44885 23.2483 9.4992C23.3657 9.54955 23.467 9.63124 23.541 9.73534C23.6151 9.83943 23.6591 9.96191 23.6682 10.0893C23.6773 10.2168 23.6511 10.3442 23.5925 10.4578H23.5896Z" fill="white"/>
<path d="M22.5815 9.82633L7.43143 11.9561C7.33168 11.9703 7.23783 12.012 7.1604 12.0764C7.08297 12.1409 7.025 12.2256 6.99298 12.3212C6.96097 12.4167 6.95617 12.5193 6.97912 12.6174C7.00207 12.7155 7.05187 12.8053 7.12294 12.8767L16.3752 22.1615C16.4252 22.2121 16.4847 22.2523 16.5504 22.2798C16.616 22.3073 16.6865 22.3214 16.7577 22.3214C16.7859 22.3213 16.8142 22.3192 16.8421 22.315C16.9265 22.3025 17.0067 22.2701 17.0761 22.2204C17.1455 22.1707 17.202 22.1051 17.2409 22.0292L23.1387 10.6136C23.184 10.5252 23.2041 10.4261 23.197 10.3271C23.1898 10.2281 23.1557 10.1329 23.0982 10.052C23.0408 9.97101 22.9622 9.90735 22.8711 9.86792C22.78 9.82848 22.6798 9.81478 22.5815 9.8283V9.82633ZM22.961 10.5203L17.0637 21.9359C17.039 21.9838 17.0033 22.0252 16.9596 22.0567C16.9158 22.0881 16.8652 22.1088 16.812 22.1171C16.7587 22.1253 16.7043 22.1208 16.653 22.104C16.6018 22.0872 16.5553 22.0585 16.5173 22.0203L7.2646 12.7345C7.2197 12.6894 7.18824 12.6328 7.17375 12.5708C7.15926 12.5089 7.1623 12.4441 7.18254 12.3838C7.20278 12.3235 7.23942 12.27 7.28835 12.2293C7.33728 12.1887 7.39657 12.1624 7.45956 12.1536L22.6091 10.0238C22.6713 10.0151 22.7346 10.0236 22.7922 10.0485C22.8499 10.0734 22.8996 10.1136 22.9359 10.1648C22.9722 10.216 22.9937 10.2762 22.9982 10.3388C23.0026 10.4014 22.9898 10.464 22.961 10.5198V10.5203Z" fill="white"/>
<path d="M21.9758 10.4478L8.20675 12.3832C8.13944 12.3925 8.07607 12.4204 8.02375 12.4638C7.97144 12.5071 7.93226 12.5642 7.91062 12.6286C7.88898 12.693 7.88574 12.7622 7.90125 12.8284C7.91677 12.8945 7.95043 12.955 7.99845 13.0031L16.4076 21.4434C16.4413 21.4773 16.4814 21.5043 16.5255 21.5226C16.5696 21.541 16.617 21.5505 16.6648 21.5505C16.684 21.5504 16.7031 21.5489 16.722 21.546C16.7791 21.5376 16.8332 21.5156 16.88 21.482C16.9268 21.4483 16.9649 21.4039 16.9911 21.3526L22.3499 10.9774C22.3805 10.9179 22.3942 10.851 22.3895 10.7842C22.3848 10.7174 22.3618 10.6531 22.323 10.5985C22.2843 10.5439 22.2312 10.5009 22.1697 10.4743C22.1082 10.4478 22.0406 10.4386 21.9743 10.4478H21.9758ZM22.1732 10.8856L16.8143 21.2603C16.8024 21.2834 16.7852 21.3034 16.764 21.3186C16.7429 21.3339 16.7185 21.3439 16.6927 21.3479C16.667 21.3519 16.6407 21.3497 16.6159 21.3416C16.5912 21.3335 16.5687 21.3197 16.5503 21.3012L8.14307 12.8619C8.12146 12.8401 8.10633 12.8127 8.09938 12.7828C8.09243 12.7529 8.09392 12.7216 8.1037 12.6925C8.11347 12.6634 8.13114 12.6375 8.15474 12.6179C8.17834 12.5982 8.20694 12.5855 8.23735 12.5811L22.0039 10.6458C22.0119 10.6452 22.02 10.6452 22.0281 10.6458C22.0566 10.6456 22.0846 10.6529 22.1095 10.6667C22.1344 10.6806 22.1553 10.7007 22.1702 10.725C22.1851 10.7493 22.1934 10.777 22.1945 10.8055C22.1955 10.834 22.1892 10.8623 22.1761 10.8876L22.1732 10.8856Z" fill="white"/>
<path d="M24.1532 12.5513C23.915 12.17 23.5847 11.8548 23.1927 11.6347L18.2618 8.8484L11.9725 5.2946C10.3881 4.39924 8.45377 5.66479 8.63935 7.47476L8.91477 10.1618L9.86196 19.4047L10.1862 22.571C10.4128 24.7842 13.0688 25.7877 14.702 24.2778L14.7099 24.2704L21.1946 18.2793L23.6966 15.9669C24.1588 15.54 24.4575 14.965 24.5408 14.3414C24.6242 13.7177 24.4871 13.0846 24.1532 12.5513Z" fill="white"/>
<path d="M18.1567 13.5923C18.0832 13.5923 18.0128 13.6215 17.9609 13.6734C17.9089 13.7253 17.8798 13.7957 17.8798 13.8692V14.1105C17.6229 13.8603 17.298 13.6914 16.9456 13.6249C16.5933 13.5584 16.2291 13.5973 15.8987 13.7367C15.5683 13.8761 15.2864 14.1098 15.0882 14.4086C14.8899 14.7074 14.7842 15.058 14.7842 15.4166C14.7842 15.7752 14.8899 16.1258 15.0882 16.4246C15.2864 16.7234 15.5683 16.9571 15.8987 17.0965C16.2291 17.2359 16.5933 17.2747 16.9456 17.2082C17.298 17.1417 17.6229 16.9728 17.8798 16.7226V16.9625C17.8798 17.036 17.909 17.1065 17.9609 17.1584C18.0129 17.2104 18.0834 17.2396 18.1569 17.2396C18.2304 17.2396 18.3009 17.2104 18.3529 17.1584C18.4049 17.1065 18.4341 17.036 18.4341 16.9625V13.8697C18.4341 13.7962 18.4049 13.7258 18.353 13.6739C18.301 13.622 18.2306 13.5928 18.1572 13.5928L18.1567 13.5923ZM16.6108 16.6841C16.3169 16.6844 16.032 16.5828 15.8047 16.3966C15.5773 16.2104 15.4216 15.9511 15.364 15.6629C15.3064 15.3748 15.3506 15.0755 15.4889 14.8163C15.6272 14.557 15.8512 14.3537 16.1226 14.2411C16.3941 14.1285 16.6961 14.1134 16.9774 14.1986C17.2587 14.2838 17.5017 14.4638 17.6651 14.7081C17.8284 14.9524 17.902 15.2457 17.8733 15.5382C17.8446 15.8306 17.7154 16.1041 17.5076 16.3119C17.3899 16.4298 17.2501 16.5234 17.0962 16.5872C16.9423 16.6511 16.7774 16.684 16.6108 16.6841Z" fill="#EE0033"/>
<path d="M12.586 13.5923C12.1112 13.5924 11.6553 13.7784 11.316 14.1105V13.8712C11.316 13.7977 11.2868 13.7272 11.2348 13.6752C11.1829 13.6232 11.1124 13.594 11.0389 13.594C10.9654 13.594 10.8949 13.6232 10.8429 13.6752C10.7909 13.7272 10.7617 13.7977 10.7617 13.8712V18.2172C10.7617 18.2907 10.7909 18.3612 10.8429 18.4131C10.8949 18.4651 10.9654 18.4943 11.0389 18.4943C11.1124 18.4943 11.1829 18.4651 11.2348 18.4131C11.2868 18.3612 11.316 18.2907 11.316 18.2172V16.7211C11.5301 16.9285 11.7919 17.0801 12.0783 17.1627C12.3647 17.2452 12.667 17.2563 12.9586 17.1947C13.2502 17.1332 13.5223 17.001 13.751 16.8098C13.9796 16.6185 14.1578 16.3741 14.2699 16.0979C14.382 15.8217 14.4246 15.5223 14.3939 15.2258C14.3632 14.9293 14.2602 14.6449 14.094 14.3975C13.9277 14.1501 13.7033 13.9473 13.4404 13.8069C13.1774 13.6665 12.8841 13.5928 12.586 13.5923ZM12.586 16.6841C12.2921 16.6842 12.0074 16.5824 11.7802 16.396C11.553 16.2096 11.3974 15.9502 11.3401 15.662C11.2827 15.3738 11.327 15.0747 11.4656 14.8155C11.6041 14.5563 11.8282 14.3532 12.0996 14.2408C12.3711 14.1283 12.6732 14.1135 12.9544 14.1988C13.2356 14.2842 13.4785 14.4644 13.6417 14.7087C13.8049 14.9531 13.8783 15.2465 13.8495 15.5389C13.8206 15.8313 13.6912 16.1047 13.4833 16.3124C13.3655 16.4303 13.2256 16.5237 13.0716 16.5875C12.9177 16.6513 12.7527 16.6841 12.586 16.6841Z" fill="#EE0033"/>
<path d="M22.2203 13.6296C22.1888 13.6114 22.1541 13.5995 22.118 13.5947C22.0819 13.59 22.0452 13.5923 22.0101 13.6017C21.9749 13.6111 21.9419 13.6274 21.9131 13.6495C21.8842 13.6717 21.8599 13.6993 21.8418 13.7308L20.5619 15.9485L19.2786 13.7308C19.2604 13.6993 19.2362 13.6717 19.2073 13.6495C19.1785 13.6274 19.1455 13.6112 19.1104 13.6017C19.0753 13.5923 19.0386 13.5899 19.0026 13.5946C18.9665 13.5994 18.9317 13.6112 18.9002 13.6294C18.8687 13.6476 18.8411 13.6718 18.819 13.7006C18.7968 13.7295 18.7806 13.7624 18.7712 13.7975C18.7617 13.8327 18.7593 13.8693 18.7641 13.9054C18.7688 13.9414 18.7806 13.9762 18.7988 14.0077L20.2396 16.5023L19.3299 18.0783C19.2958 18.1419 19.2878 18.2163 19.3076 18.2856C19.3275 18.355 19.3735 18.4139 19.4361 18.4499C19.4986 18.4858 19.5727 18.496 19.6427 18.4783C19.7126 18.4605 19.7729 18.4162 19.8107 18.3547L22.32 14.0072C22.3567 13.9437 22.3666 13.8683 22.3477 13.7974C22.3383 13.7624 22.3221 13.7295 22.3 13.7007C22.2779 13.6719 22.2503 13.6478 22.2188 13.6296H22.2203Z" fill="#EE0033"/>
<path d="M17.2345 15.3894C16.9956 15.3055 16.7207 15.0306 16.6388 14.7917C16.6366 14.787 16.6331 14.783 16.6287 14.7802C16.6244 14.7774 16.6193 14.7759 16.6141 14.7759C16.6089 14.7759 16.6038 14.7774 16.5994 14.7802C16.595 14.783 16.5916 14.787 16.5894 14.7917C16.5055 15.0316 16.2325 15.3055 15.9922 15.3894C15.9873 15.3914 15.9831 15.3949 15.9801 15.3993C15.9772 15.4037 15.9756 15.4088 15.9756 15.4141C15.9756 15.4194 15.9772 15.4246 15.9801 15.429C15.9831 15.4334 15.9873 15.4368 15.9922 15.4388C16.2321 15.5227 16.5055 15.7957 16.5894 16.0365C16.5914 16.0414 16.5948 16.0456 16.5992 16.0486C16.6036 16.0515 16.6088 16.0531 16.6141 16.0531C16.6194 16.0531 16.6246 16.0515 16.629 16.0486C16.6333 16.0456 16.6368 16.0414 16.6388 16.0365C16.7227 15.7967 16.9956 15.5227 17.2365 15.4388C17.2414 15.4368 17.2456 15.4334 17.2486 15.429C17.2515 15.4246 17.2531 15.4194 17.2531 15.4141C17.2531 15.4088 17.2515 15.4037 17.2486 15.3993C17.2456 15.3949 17.2414 15.3914 17.2365 15.3894H17.2345Z" fill="#EE0033"/>
<path d="M12.7424 11.7905H12.6007C12.5735 11.7905 12.5474 11.8013 12.5281 11.8206C12.5089 11.8399 12.498 11.866 12.498 11.8932V12.945C12.498 12.9722 12.5089 12.9984 12.5281 13.0176C12.5474 13.0369 12.5735 13.0477 12.6007 13.0477H12.7424C12.7696 13.0477 12.7957 13.0369 12.815 13.0176C12.8342 12.9984 12.845 12.9722 12.845 12.945V11.8927C12.8449 11.8656 12.834 11.8396 12.8148 11.8204C12.7956 11.8013 12.7695 11.7905 12.7424 11.7905Z" fill="#EE0033"/>
<path d="M11.6116 13.0615C11.6975 13.0615 11.7982 13.0566 11.852 12.95L12.4507 11.7905H12.232C12.1895 11.7909 12.1479 11.8033 12.1122 11.8265C12.0765 11.8497 12.0482 11.8826 12.0306 11.9213L11.6535 12.7229C11.6447 12.7417 11.6269 12.7723 11.6116 12.7723C11.5963 12.7723 11.579 12.7417 11.5701 12.7229L11.1901 11.9213C11.1725 11.8826 11.1443 11.8498 11.1087 11.8266C11.0731 11.8034 11.0317 11.7909 10.9892 11.7905H10.7695L11.3682 12.95C11.428 13.0635 11.5489 13.0615 11.6116 13.0615Z" fill="#EE0033"/>
<path d="M19.1925 13.0474C19.2197 13.0473 19.2456 13.0364 19.2648 13.0172C19.2839 12.9979 19.2947 12.9719 19.2947 12.9448V12.8337H19.2088C19.1461 12.8337 19.0158 12.8312 18.9388 12.7789C18.8401 12.7123 18.847 12.5938 18.847 12.5084V11.5978C18.8465 11.5708 18.8355 11.5452 18.8163 11.5263C18.7971 11.5074 18.7713 11.4967 18.7443 11.4966H18.6017C18.5745 11.4966 18.5483 11.5074 18.5291 11.5267C18.5098 11.5459 18.499 11.572 18.499 11.5992V12.6392C18.499 12.7982 18.5553 12.889 18.656 12.9571C18.7567 13.0252 18.8667 13.0494 19.077 13.0494L19.1925 13.0474Z" fill="#EE0033"/>
<path d="M14.849 12.6387C14.849 12.7977 14.9053 12.8885 15.006 12.9566C15.1067 13.0247 15.2167 13.0489 15.427 13.0489H15.541C15.5682 13.0488 15.5941 13.0379 15.6133 13.0187C15.6324 12.9994 15.6432 12.9734 15.6432 12.9462V12.8352H15.5573C15.4946 12.8352 15.3643 12.8327 15.2873 12.7804C15.1886 12.7138 15.1955 12.5953 15.1955 12.5099V12.004H15.9186V12.6392C15.9186 12.7982 15.9749 12.889 16.0761 12.9571C16.1772 13.0252 16.2863 13.0494 16.4971 13.0494H16.6111C16.6383 13.0494 16.6644 13.0386 16.6837 13.0193C16.703 13.0001 16.7138 12.974 16.7138 12.9467V12.8357H16.6279C16.5657 12.8357 16.4349 12.8332 16.3579 12.7809C16.2592 12.7143 16.2661 12.5958 16.2661 12.5104V12.004H16.6032C16.6167 12.004 16.63 12.0013 16.6425 11.9962C16.655 11.991 16.6663 11.9835 16.6758 11.9739C16.6853 11.9644 16.6929 11.9531 16.6981 11.9406C16.7032 11.9282 16.7059 11.9148 16.7059 11.9013V11.7908H16.2666V11.5983C16.2666 11.571 16.2558 11.5449 16.2365 11.5257C16.2173 11.5064 16.1911 11.4956 16.1639 11.4956H16.0213C15.994 11.4956 15.9679 11.5064 15.9487 11.5257C15.9294 11.5449 15.9186 11.571 15.9186 11.5983V11.7908H15.196V11.5983C15.196 11.571 15.1852 11.5449 15.1659 11.5257C15.1467 11.5064 15.1206 11.4956 15.0933 11.4956H14.9507C14.9235 11.4956 14.8973 11.5064 14.8781 11.5257C14.8588 11.5449 14.848 11.571 14.848 11.5983V11.7908H14.6318V11.9018C14.6318 11.9291 14.6427 11.9552 14.6619 11.9744C14.6812 11.9937 14.7073 12.0045 14.7345 12.0045H14.8485L14.849 12.6387Z" fill="#EE0033"/>
<path d="M14.4818 12.4638C14.5082 12.4402 14.5287 12.4107 14.5416 12.3777C14.5544 12.3447 14.5593 12.3091 14.5558 12.2738C14.5558 12.1149 14.5173 11.9584 14.3332 11.8661C14.1881 11.7926 13.9986 11.7856 13.8145 11.7856C13.6664 11.7856 13.3999 11.7856 13.2281 11.9041C13.0563 12.0226 13.041 12.1958 13.041 12.4308C13.041 12.5966 13.0499 12.7698 13.154 12.8883C13.2844 13.0364 13.4754 13.0472 13.6343 13.0472H14.4033C14.4305 13.0472 14.4566 13.0364 14.4759 13.0172C14.4952 12.9979 14.506 12.9718 14.506 12.9446V12.8335H13.738C13.6106 12.8335 13.465 12.8192 13.4206 12.6854C13.4069 12.6287 13.4 12.5706 13.3998 12.5122H14.3135C14.3735 12.5159 14.4329 12.4988 14.4818 12.4638ZM14.12 12.298H13.6264C13.501 12.298 13.3994 12.3552 13.3994 12.4263V12.298C13.4023 12.2146 13.3994 12.1465 13.4709 12.0838C13.5657 11.9984 13.7083 12.0008 13.8001 12.0008C13.892 12.0008 14.0104 12.0053 14.0963 12.0576C14.1255 12.0751 14.1499 12.0997 14.1672 12.1292C14.1844 12.1586 14.194 12.1918 14.195 12.2259C14.197 12.2575 14.1881 12.298 14.12 12.298Z" fill="#EE0033"/>
<path d="M17.3833 13.0473H18.1523C18.1795 13.0473 18.2057 13.0364 18.2249 13.0172C18.2442 12.9979 18.255 12.9718 18.255 12.9446V12.8335H17.487C17.3596 12.8335 17.214 12.8192 17.1696 12.6855C17.1559 12.6287 17.149 12.5706 17.1489 12.5122H18.062C18.1224 12.5159 18.1823 12.4984 18.2313 12.4629C18.2577 12.4392 18.2782 12.4097 18.2911 12.3767C18.3039 12.3437 18.3088 12.3081 18.3053 12.2728C18.3053 12.1139 18.2668 11.9574 18.0827 11.8651C17.9376 11.7916 17.7481 11.7847 17.5645 11.7847C17.4164 11.7847 17.1494 11.7847 16.9776 11.9031C16.8058 12.0216 16.791 12.1948 16.791 12.4298C16.791 12.5956 16.7994 12.7689 16.9036 12.8873C17.0334 13.0354 17.2254 13.0473 17.3833 13.0473ZM17.1494 12.2975C17.1523 12.2141 17.1494 12.146 17.2209 12.0833C17.3157 11.9979 17.4583 12.0004 17.5501 12.0004C17.642 12.0004 17.7609 12.0048 17.8463 12.0571C17.8755 12.0747 17.8999 12.0993 17.9172 12.1287C17.9344 12.1581 17.944 12.1914 17.945 12.2254C17.945 12.2585 17.9361 12.299 17.868 12.299H17.3744C17.2491 12.299 17.1474 12.3562 17.1474 12.4273L17.1494 12.2975Z" fill="#EE0033"/>
<path d="M12.6723 11.6719H12.7439C12.7573 11.6719 12.7706 11.6693 12.7831 11.6641C12.7955 11.659 12.8068 11.6514 12.8163 11.6418C12.8258 11.6323 12.8333 11.621 12.8384 11.6085C12.8435 11.5961 12.8461 11.5827 12.846 11.5693V11.5411C12.846 11.514 12.8353 11.488 12.8161 11.4687C12.797 11.4495 12.771 11.4386 12.7439 11.4385H12.6007C12.5735 11.4385 12.5474 11.4493 12.5281 11.4685C12.5089 11.4878 12.498 11.5139 12.498 11.5411V11.7909C12.5094 11.7543 12.5328 11.7227 12.5644 11.7011C12.5961 11.6795 12.6341 11.6692 12.6723 11.6719Z" fill="#EE0033"/>
</svg>
