<svg width="40" height="40" viewBox="0 0 40 40" fill="none" xmlns="http://www.w3.org/2000/svg">
<path fill-rule="evenodd" clip-rule="evenodd" d="M8.70727 8.70703C10.345 7.06927 12.7958 6.44312 15.9547 6.44312H23.3184C26.4773 6.44312 28.9281 7.06927 30.5658 8.70703C32.2036 10.3448 32.8297 12.7955 32.8297 15.9545V23.3181C32.8297 26.4771 32.2036 28.9278 30.5658 30.5656C28.9281 32.2033 26.4773 32.8295 23.3184 32.8295H15.9547C12.7958 32.8295 10.345 32.2033 8.70727 30.5656C7.06952 28.9278 6.44336 26.4771 6.44336 23.3181V15.9545C6.44336 12.7955 7.06952 10.3448 8.70727 8.70703ZM10.009 10.0087C8.88539 11.1324 8.28427 12.9771 8.28427 15.9545V23.3181C8.28427 26.2955 8.88539 28.1402 10.009 29.2638C11.1326 30.3875 12.9773 30.9886 15.9547 30.9886H23.3184C26.2958 30.9886 28.1405 30.3875 29.2641 29.2638C30.3877 28.1402 30.9888 26.2955 30.9888 23.3181V15.9545C30.9888 12.9771 30.3877 11.1324 29.2641 10.0087C28.1405 8.88514 26.2958 8.28402 23.3184 8.28402H15.9547C12.9773 8.28402 11.1326 8.88514 10.009 10.0087Z" fill="#8A8779"/>
<path fill-rule="evenodd" clip-rule="evenodd" d="M15.9551 13.1932C15.1078 13.1932 14.421 13.88 14.421 14.7273C14.421 15.5746 15.1078 16.2614 15.9551 16.2614C16.8023 16.2614 17.4892 15.5746 17.4892 14.7273C17.4892 13.88 16.8023 13.1932 15.9551 13.1932ZM12.5801 14.7273C12.5801 12.8633 14.0911 11.3523 15.9551 11.3523C17.819 11.3523 19.3301 12.8633 19.3301 14.7273C19.3301 16.5913 17.819 18.1023 15.9551 18.1023C14.0911 18.1023 12.5801 16.5913 12.5801 14.7273Z" fill="#8A8779"/>
<path fill-rule="evenodd" clip-rule="evenodd" d="M29.3091 20.9481C28.6968 20.4222 27.6601 20.4222 27.0478 20.9481L21.9423 25.3295C21.9422 25.3296 21.9424 25.3294 21.9423 25.3295C20.6401 26.4478 18.584 26.448 17.2819 25.3295L17.274 25.3227L16.8734 24.9706C16.323 24.5009 15.3825 24.4432 14.7494 24.8679L8.69925 28.93C8.2772 29.2134 7.70535 29.101 7.42198 28.6789C7.13862 28.2568 7.25105 27.685 7.6731 27.4016L13.7236 23.3394C15.0282 22.4641 16.8836 22.5523 18.0765 23.5772L18.0843 23.5839L18.4848 23.936C19.0976 24.459 20.1316 24.458 20.7428 23.933L25.8482 19.5517C25.8483 19.5516 25.8481 19.5518 25.8482 19.5517C27.1505 18.4334 29.2065 18.4332 30.5086 19.5517C30.5086 19.5517 30.5086 19.5516 30.5086 19.5517L32.5091 21.2698C32.8947 21.6011 32.9388 22.1822 32.6076 22.5678C32.2764 22.9535 31.6953 22.9976 31.3096 22.6663L29.3091 20.9481Z" fill="#8A8779"/>
</svg>
