<svg width="201" height="49" viewBox="0 0 201 49" fill="none" xmlns="http://www.w3.org/2000/svg">
<path d="M174.203 33.2287H163.875L173.964 20.4614L179.007 26.7259L174.203 33.2287Z" fill="#FFBC0F"/>
<path d="M198.401 0.665854L186.851 15.6873L186.533 16.0996L186.857 16.5058L199.611 32.5627H190.994L166.422 0.665854H174.261L181.912 10.2871L182.436 10.9438L182.96 10.2871L190.611 0.665854H198.401ZM199.757 0H190.287L182.433 9.87479L174.582 0H165.065L190.67 33.2285H200.998L187.387 16.0904L199.757 0Z" fill="#FFBC0F"/>
<path d="M16.986 33.705L0.852539 0H8.34824L24.5889 33.705H24.099H16.986ZM29.2462 24.3434L25.3911 16.6066L33.3492 0H40.8112L29.2462 24.3434Z" fill="#FFBC0F"/>
<path d="M45.9551 0H52.7037L81.2106 33.2285H72.043L52.7067 10.3482V33.2285H45.9551V0ZM74.4804 0H81.2106V22.9719L74.4804 15.1405V0Z" fill="#FFBC0F"/>
<path d="M106.73 0.665854C117.979 0.760539 123.102 8.99819 123.102 16.6127C123.102 24.2273 117.979 32.468 106.733 32.5596H88.3179V27.2511H106.696C109.596 27.2023 112.293 26.0019 114.286 23.8699C116.151 21.8724 117.223 19.2303 117.223 16.6158C117.223 13.9677 116.136 11.3042 114.241 9.30362C112.21 7.15945 109.458 5.98046 106.494 5.98046H88.3148V0.665854H106.73ZM106.733 0H87.6504V6.64632H106.497C112.446 6.64632 116.555 11.6311 116.555 16.6158C116.555 21.5517 112.492 26.4906 106.687 26.5853H87.6504V33.2316H106.733C118.108 33.1369 123.769 24.8779 123.769 16.6158C123.769 8.35371 118.105 0.0946856 106.733 0Z" fill="#FFBC0F"/>
<path d="M157.943 0.665854V6.02628H129.538V0.665854H157.943ZM150.417 13.9585V19.2731H129.538V13.9585H150.417ZM157.943 27.2023V32.5627H129.678V27.2023H157.943ZM158.614 0H128.87V6.69213H158.614V0ZM151.085 13.2926H128.87V19.939H151.085V13.2926ZM158.614 26.5364H129.014V33.2285H158.614V26.5364Z" fill="#FFBC0F"/>
<path d="M26.5148 43.4067H24.7783V42.9575H28.7724V43.4067H27.036V47.8831H26.5148V43.4067Z" fill="#FFBC0F"/>
<path d="M34.2957 42.9575V47.8831H33.7806V45.6095H30.6902V47.8831H30.1689V42.9575H30.6902V45.1542H33.7806V42.9575H34.2957Z" fill="#FFBC0F"/>
<path d="M39.9621 47.434V47.8831H36.4707V42.9575H39.8572V43.4067H36.9919V45.1604H39.5457V45.6034H36.9919V47.434H39.9621Z" fill="#FFBC0F"/>
<path d="M44.6902 43.4067V45.3419H47.2439V45.7911H44.6902V47.8831H44.1689V42.9575H47.5554V43.4067H44.6902Z" fill="#FFBC0F"/>
<path d="M49.6929 47.3784C49.3351 47.0123 49.1562 46.4801 49.1562 45.7817V42.9604H49.6775V45.7632C49.6775 46.3355 49.807 46.7631 50.0661 47.0431C50.3252 47.3231 50.6984 47.4646 51.1888 47.4646C51.6822 47.4646 52.0585 47.3231 52.3176 47.0431C52.5767 46.7601 52.7062 46.3355 52.7062 45.7632V42.9604H53.2151V45.7817C53.2151 46.4801 53.0362 47.0123 52.6815 47.3784C52.3269 47.7446 51.8303 47.9261 51.1888 47.9261C50.5472 47.9261 50.0507 47.7415 49.6929 47.3784Z" fill="#FFBC0F"/>
<path d="M56.213 43.4067H54.4766V42.9575H58.4707V43.4067H56.7342V47.8831H56.213V43.4067Z" fill="#FFBC0F"/>
<path d="M60.2622 47.3784C59.9045 47.0123 59.7256 46.4801 59.7256 45.7817V42.9604H60.2468V45.7632C60.2468 46.3355 60.3764 46.7631 60.6354 47.0431C60.8945 47.3231 61.2677 47.4646 61.7581 47.4646C62.2516 47.4646 62.6279 47.3231 62.8869 47.0431C63.146 46.7601 63.2755 46.3355 63.2755 45.7632V42.9604H63.7845V45.7817C63.7845 46.4801 63.6056 47.0123 63.2509 47.3784C62.8962 47.7446 62.3996 47.9261 61.7581 47.9261C61.1166 47.9261 60.62 47.7415 60.2622 47.3784Z" fill="#FFBC0F"/>
<path d="M69.2939 47.8831L68.1651 46.2987C68.0386 46.3141 67.906 46.3202 67.7703 46.3202H66.4441V47.8831H65.9229V42.9575H67.7703C68.3995 42.9575 68.893 43.1083 69.2508 43.4067C69.6085 43.7051 69.7874 44.1205 69.7874 44.6466C69.7874 45.0311 69.6887 45.3573 69.4944 45.6219C69.3001 45.8864 69.0194 46.0803 68.6586 46.1941L69.8645 47.8831H69.2939ZM68.8776 45.5542C69.1366 45.3388 69.2662 45.0373 69.2662 44.6466C69.2662 44.2466 69.1366 43.942 68.8776 43.7267C68.6185 43.5144 68.2453 43.4067 67.7549 43.4067H66.4441V45.8772H67.758C68.2453 45.8772 68.6185 45.7695 68.8776 45.5542Z" fill="#FFBC0F"/>
<path d="M75.0793 47.434V47.8831H71.5879V42.9575H74.9744V43.4067H72.1091V45.1604H74.6629V45.6034H72.1091V47.434H75.0793Z" fill="#FFBC0F"/>
<path d="M80.1124 47.6002C79.7145 47.3818 79.4061 47.0833 79.1809 46.7018C78.9588 46.3234 78.8447 45.8958 78.8447 45.422C78.8447 44.9482 78.9558 44.5205 79.1809 44.1421C79.403 43.7637 79.7145 43.4622 80.1124 43.2437C80.5102 43.0253 80.9544 42.9146 81.4417 42.9146C81.929 42.9146 82.3731 43.0222 82.7648 43.2376C83.1565 43.453 83.468 43.7514 83.6932 44.136C83.9183 44.5175 84.0324 44.9482 84.0324 45.4189C84.0324 45.8927 83.9183 46.3204 83.6932 46.7049C83.468 47.0864 83.1596 47.3849 82.7648 47.6033C82.3731 47.8187 81.9321 47.9263 81.4417 47.9263C80.9513 47.9263 80.5102 47.8187 80.1124 47.6002ZM82.4996 47.1972C82.8142 47.0218 83.0609 46.7788 83.2398 46.4649C83.4187 46.1511 83.5081 45.8035 83.5081 45.4189C83.5081 45.0343 83.4187 44.6867 83.2398 44.3729C83.0609 44.0621 82.8142 43.816 82.4996 43.6406C82.185 43.4653 81.8334 43.376 81.4417 43.376C81.05 43.376 80.6984 43.4653 80.3807 43.6406C80.063 43.816 79.8132 44.059 79.6343 44.3729C79.4523 44.6836 79.3629 45.0343 79.3629 45.4189C79.3629 45.8035 79.4523 46.1511 79.6343 46.4649C79.8163 46.7757 80.0661 47.0218 80.3807 47.1972C80.6984 47.3725 81.0531 47.4618 81.4417 47.4618C81.8303 47.4618 82.185 47.3725 82.4996 47.1972Z" fill="#FFBC0F"/>
<path d="M86.2908 43.4067V45.3419H88.8445V45.7911H86.2908V47.8831H85.7695V42.9575H89.156V43.4067H86.2908Z" fill="#FFBC0F"/>
<path d="M93.7332 43.4067V45.3419H96.2869V45.7911H93.7332V47.8831H93.2119V42.9575H96.5984V43.4067H93.7332Z" fill="#FFBC0F"/>
<path d="M98.2422 42.9575H98.7635V47.8831H98.2422V42.9575Z" fill="#FFBC0F"/>
<path d="M105.064 42.9575V47.8831H104.636L101.459 43.8867V47.8831H100.938V42.9575H101.369L104.552 46.954V42.9575H105.064Z" fill="#FFBC0F"/>
<path d="M110.335 46.5664H107.584L106.992 47.8831H106.449L108.707 42.9575H109.222L111.48 47.8831H110.931L110.335 46.5664ZM110.147 46.1449L108.963 43.499L107.779 46.1449H110.147Z" fill="#FFBC0F"/>
<path d="M116.988 42.9575V47.8831H116.559L113.383 43.8867V47.8831H112.861V42.9575H113.293L116.476 46.954V42.9575H116.988Z" fill="#FFBC0F"/>
<path d="M119.986 47.6033C119.594 47.3879 119.286 47.0895 119.061 46.7049C118.839 46.3234 118.725 45.8927 118.725 45.4189C118.725 44.9451 118.836 44.5175 119.061 44.136C119.283 43.7545 119.594 43.456 119.989 43.2376C120.384 43.0222 120.825 42.9146 121.315 42.9146C121.682 42.9146 122.022 42.9761 122.33 43.0991C122.642 43.2222 122.904 43.4007 123.12 43.6345L122.787 43.9667C122.401 43.576 121.914 43.3822 121.328 43.3822C120.936 43.3822 120.581 43.4714 120.264 43.6499C119.943 43.8283 119.693 44.0714 119.511 44.3821C119.329 44.6928 119.24 45.0405 119.24 45.4251C119.24 45.8096 119.329 46.1573 119.511 46.468C119.693 46.7788 119.943 47.0218 120.264 47.2003C120.584 47.3787 120.939 47.4679 121.328 47.4679C121.92 47.4679 122.407 47.271 122.787 46.8772L123.12 47.2095C122.904 47.4433 122.639 47.6217 122.327 47.7479C122.016 47.871 121.673 47.9356 121.309 47.9356C120.819 47.9263 120.378 47.8187 119.986 47.6033Z" fill="#FFBC0F"/>
<path d="M124.8 42.9575H125.321V47.8831H124.8V42.9575Z" fill="#FFBC0F"/>
<path d="M130.593 46.5664H127.842L127.25 47.8831H126.707L128.965 42.9575H129.48L131.737 47.8831H131.188L130.593 46.5664ZM130.402 46.1449L129.218 43.499L128.033 46.1449H130.402Z" fill="#FFBC0F"/>
<path d="M133.119 42.9575H133.64V47.434H136.407V47.8831H133.119V42.9575Z" fill="#FFBC0F"/>
<path d="M145.382 42.9575V47.8831H144.882V43.942L142.942 47.2586H142.695L140.756 43.9636V47.8831H140.256V42.9575H140.688L142.834 46.6094L144.956 42.9575H145.382Z" fill="#FFBC0F"/>
<path d="M150.653 46.5664H147.902L147.309 47.8831H146.767L149.024 42.9575H149.539L151.797 47.8831H151.248L150.653 46.5664ZM150.462 46.1449L149.277 43.499L148.093 46.1449H150.462Z" fill="#FFBC0F"/>
<path d="M156.553 47.8831L155.424 46.2987C155.297 46.3141 155.165 46.3202 155.029 46.3202H153.703V47.8831H153.182V42.9575H155.029C155.658 42.9575 156.152 43.1083 156.51 43.4067C156.867 43.7082 157.046 44.1205 157.046 44.6466C157.046 45.0311 156.948 45.3573 156.753 45.6219C156.559 45.8864 156.278 46.0803 155.917 46.1941L157.123 47.8831H156.553ZM156.136 45.5542C156.395 45.3388 156.525 45.0373 156.525 44.6466C156.525 44.2466 156.395 43.942 156.136 43.7267C155.877 43.5144 155.504 43.4067 155.014 43.4067H153.7V45.8772H155.014C155.504 45.8772 155.877 45.7695 156.136 45.5542Z" fill="#FFBC0F"/>
<path d="M160.375 45.5694L159.366 46.5908V47.8861H158.845V42.9604H159.366V45.9386L162.265 42.9604H162.863L160.726 45.191L163.012 47.8861H162.392L160.375 45.5694Z" fill="#FFBC0F"/>
<path d="M167.918 47.434V47.8831H164.427V42.9575H167.813V43.4067H164.948V45.1604H167.502V45.6034H164.948V47.434H167.918Z" fill="#FFBC0F"/>
<path d="M170.669 43.4067H168.933V42.9575H172.927V43.4067H171.19V47.8831H170.669V43.4067Z" fill="#FFBC0F"/>
<path d="M174.556 47.751C174.22 47.6341 173.96 47.4802 173.775 47.2864L173.979 46.8864C174.158 47.0649 174.395 47.2095 174.691 47.3202C174.987 47.431 175.293 47.4864 175.607 47.4864C176.048 47.4864 176.382 47.4064 176.604 47.2433C176.826 47.0803 176.934 46.8711 176.934 46.6126C176.934 46.4157 176.875 46.2588 176.755 46.1419C176.634 46.025 176.486 45.9358 176.314 45.8712C176.141 45.8096 175.897 45.7389 175.586 45.662C175.213 45.5697 174.917 45.4774 174.698 45.3912C174.476 45.3051 174.287 45.1728 174.13 44.9943C173.973 44.8159 173.893 44.5728 173.893 44.2683C173.893 44.019 173.957 43.7945 174.09 43.5883C174.223 43.3853 174.423 43.2222 174.698 43.0991C174.969 42.9761 175.308 42.9146 175.712 42.9146C175.993 42.9146 176.271 42.9545 176.542 43.0315C176.813 43.1084 177.048 43.2161 177.245 43.3514L177.069 43.7668C176.863 43.6314 176.641 43.5299 176.406 43.4591C176.172 43.3914 175.941 43.3576 175.715 43.3576C175.284 43.3576 174.957 43.4406 174.738 43.6068C174.519 43.7729 174.411 43.9883 174.411 44.2498C174.411 44.4467 174.469 44.6036 174.59 44.7236C174.71 44.8436 174.861 44.9359 175.04 44.9974C175.222 45.0589 175.466 45.1297 175.771 45.2035C176.132 45.2928 176.425 45.382 176.65 45.4681C176.872 45.5543 177.063 45.6866 177.217 45.8619C177.372 46.0373 177.449 46.2773 177.449 46.5757C177.449 46.8249 177.381 47.0495 177.248 47.2556C177.116 47.4587 176.909 47.6217 176.631 47.7417C176.354 47.8617 176.011 47.9202 175.607 47.9202C175.243 47.9263 174.892 47.8679 174.556 47.751Z" fill="#FFBC0F"/>
</svg>
