<svg width="32" height="32" viewBox="0 0 32 32" fill="none" xmlns="http://www.w3.org/2000/svg">
<path fill-rule="evenodd" clip-rule="evenodd" d="M22.0168 6.75C21.3176 6.75174 20.75 7.32011 20.75 8.01V14.25H23.42C24.0494 14.25 24.4903 14.054 24.7722 13.7722C25.054 13.4903 25.25 13.0494 25.25 12.42V10C25.25 9.10967 24.8867 8.29651 24.2979 7.69852C23.7158 7.11742 22.9052 6.75912 22.0168 6.75ZM19.25 8.01C19.25 6.48095 20.5006 5.25 22.02 5.25H22.0269L22.0269 5.25003C23.3161 5.26186 24.5033 5.78264 25.3603 6.63967L25.364 6.64333L25.364 6.64334C26.214 7.50518 26.75 8.69125 26.75 10V12.42C26.75 13.3706 26.446 14.2197 25.8328 14.8328C25.2197 15.446 24.3706 15.75 23.42 15.75H20C19.5858 15.75 19.25 15.4142 19.25 15V8.01Z" fill="#52504A"/>
<path fill-rule="evenodd" clip-rule="evenodd" d="M6.30736 6.68106C7.11215 5.74912 8.34646 5.25 10 5.25H22C22.4142 5.25 22.75 5.58579 22.75 6C22.75 6.41421 22.4142 6.75 22 6.75C21.3142 6.75 20.75 7.31421 20.75 8V25C20.75 26.4418 19.1035 27.2564 17.9529 26.4022L17.9506 26.4004L16.2327 25.1145C16.1465 25.0482 16.0086 25.0521 15.9203 25.1403L14.2403 26.8203C13.5574 27.5032 12.4426 27.5032 11.7597 26.8203L11.7581 26.8187L10.0997 25.1503C10.0995 25.1501 10.0999 25.1505 10.0997 25.1503C10.0004 25.0516 9.85765 25.0468 9.76 25.12L8.05289 26.3978C8.05221 26.3983 8.05153 26.3989 8.05084 26.3994C6.89266 27.2743 5.25 26.4434 5.25 25V10C5.25 8.79713 5.52033 7.59244 6.30736 6.68106ZM19.5517 6.75H10C8.65354 6.75 7.88785 7.14588 7.44264 7.66144C6.97967 8.19756 6.75 8.99287 6.75 10V25C6.75 25.2157 6.98539 25.3247 7.14711 25.2022L7.15056 25.1996L8.86 23.92C9.56217 23.3934 10.5396 23.4689 11.1603 24.0897L11.1619 24.0913L12.8203 25.7597C12.8205 25.7598 12.8202 25.7595 12.8203 25.7597C12.9175 25.8563 13.0827 25.8566 13.1797 25.7597L14.8597 24.0797C15.4701 23.4693 16.4493 23.3922 17.1428 23.9221L18.8471 25.1978C18.8473 25.198 18.8476 25.1982 18.8479 25.1984C19.0173 25.3232 19.25 25.1979 19.25 25V8C19.25 7.55044 19.3589 7.12542 19.5517 6.75Z" fill="#52504A"/>
<path fill-rule="evenodd" clip-rule="evenodd" d="M12.25 17.0098C12.25 16.5956 12.5858 16.2598 13 16.2598H16C16.4142 16.2598 16.75 16.5956 16.75 17.0098C16.75 17.424 16.4142 17.7598 16 17.7598H13C12.5858 17.7598 12.25 17.424 12.25 17.0098Z" fill="#52504A"/>
<path fill-rule="evenodd" clip-rule="evenodd" d="M12.25 13.0098C12.25 12.5956 12.5858 12.2598 13 12.2598H16C16.4142 12.2598 16.75 12.5956 16.75 13.0098C16.75 13.424 16.4142 13.7598 16 13.7598H13C12.5858 13.7598 12.25 13.424 12.25 13.0098Z" fill="#52504A"/>
<path fill-rule="evenodd" clip-rule="evenodd" d="M8.99609 17C8.99609 16.4477 9.44381 16 9.99609 16H10.0051C10.5574 16 11.0051 16.4477 11.0051 17C11.0051 17.5523 10.5574 18 10.0051 18H9.99609C9.44381 18 8.99609 17.5523 8.99609 17Z" fill="#52504A"/>
<path fill-rule="evenodd" clip-rule="evenodd" d="M8.99609 13C8.99609 12.4477 9.44381 12 9.99609 12H10.0051C10.5574 12 11.0051 12.4477 11.0051 13C11.0051 13.5523 10.5574 14 10.0051 14H9.99609C9.44381 14 8.99609 13.5523 8.99609 13Z" fill="#52504A"/>
</svg>
