<svg width="22" height="23" viewBox="0 0 22 23" fill="none" xmlns="http://www.w3.org/2000/svg">
<path fill-rule="evenodd" clip-rule="evenodd" d="M16.7668 1.5C16.0676 1.50174 15.5 2.07011 15.5 2.76V9H18.17C18.7994 9 19.2403 8.80404 19.5222 8.52217C19.804 8.2403 20 7.79943 20 7.17V4.75C20 3.85967 19.6367 3.04651 19.0479 2.44852C18.4658 1.86742 17.6552 1.50912 16.7668 1.5ZM14 2.76C14 1.23095 15.2506 0 16.77 0H16.7769L16.7769 3.15905e-05C18.0661 0.0118595 19.2533 0.532636 20.1103 1.38967L20.114 1.39333L20.114 1.39334C20.964 2.25518 21.5 3.44125 21.5 4.75V7.17C21.5 8.12056 21.196 8.9697 20.5828 9.58283C19.9697 10.196 19.1206 10.5 18.17 10.5H14.75C14.3358 10.5 14 10.1642 14 9.75V2.76Z" fill="#E7E7E7"/>
<path fill-rule="evenodd" clip-rule="evenodd" d="M1.05736 1.43106C1.86215 0.499119 3.09646 0 4.75 0H16.75C17.1642 0 17.5 0.335786 17.5 0.75C17.5 1.16421 17.1642 1.5 16.75 1.5C16.0642 1.5 15.5 2.06421 15.5 2.75V19.75C15.5 21.1918 13.8535 22.0064 12.7029 21.1522L12.7006 21.1504L10.9827 19.8645C10.8965 19.7982 10.7586 19.8021 10.6703 19.8903L8.99033 21.5703C8.30744 22.2532 7.19256 22.2532 6.50967 21.5703L6.50808 21.5687L4.84967 19.9003C4.84948 19.9001 4.84986 19.9005 4.84967 19.9003C4.75044 19.8016 4.60765 19.7968 4.51 19.87L2.80289 21.1478C2.80221 21.1483 2.80153 21.1489 2.80084 21.1494C1.64266 22.0243 0 21.1934 0 19.75V4.75C0 3.54713 0.270332 2.34244 1.05736 1.43106ZM14.3017 1.5H4.75C3.40354 1.5 2.63785 1.89588 2.19264 2.41144C1.72967 2.94756 1.5 3.74287 1.5 4.75V19.75C1.5 19.9657 1.73539 20.0747 1.89711 19.9522L1.90056 19.9496L3.61 18.67C4.31217 18.1434 5.28959 18.2189 5.91033 18.8397L5.91192 18.8413L7.57033 20.5097C7.57051 20.5098 7.57015 20.5095 7.57033 20.5097C7.66751 20.6063 7.83274 20.6066 7.92967 20.5097L9.60967 18.8297C10.2201 18.2193 11.1993 18.1422 11.8928 18.6721L13.5971 19.9478C13.5973 19.948 13.5976 19.9482 13.5979 19.9484C13.7673 20.0732 14 19.9479 14 19.75V2.75C14 2.30044 14.1089 1.87542 14.3017 1.5Z" fill="#E7E7E7"/>
<path fill-rule="evenodd" clip-rule="evenodd" d="M7 11.7598C7 11.3456 7.33579 11.0098 7.75 11.0098H10.75C11.1642 11.0098 11.5 11.3456 11.5 11.7598C11.5 12.174 11.1642 12.5098 10.75 12.5098H7.75C7.33579 12.5098 7 12.174 7 11.7598Z" fill="#E7E7E7"/>
<path fill-rule="evenodd" clip-rule="evenodd" d="M7 7.75977C7 7.34555 7.33579 7.00977 7.75 7.00977H10.75C11.1642 7.00977 11.5 7.34555 11.5 7.75977C11.5 8.17398 11.1642 8.50977 10.75 8.50977H7.75C7.33579 8.50977 7 8.17398 7 7.75977Z" fill="#E7E7E7"/>
<path fill-rule="evenodd" clip-rule="evenodd" d="M3.74609 11.75C3.74609 11.1977 4.19381 10.75 4.74609 10.75H4.75508C5.30736 10.75 5.75508 11.1977 5.75508 11.75C5.75508 12.3023 5.30736 12.75 4.75508 12.75H4.74609C4.19381 12.75 3.74609 12.3023 3.74609 11.75Z" fill="#E7E7E7"/>
<path fill-rule="evenodd" clip-rule="evenodd" d="M3.74609 7.75C3.74609 7.19772 4.19381 6.75 4.74609 6.75H4.75508C5.30736 6.75 5.75508 7.19772 5.75508 7.75C5.75508 8.30228 5.30736 8.75 4.75508 8.75H4.74609C4.19381 8.75 3.74609 8.30228 3.74609 7.75Z" fill="#E7E7E7"/>
</svg>
