<svg width="32" height="32" viewBox="0 0 32 32" fill="none" xmlns="http://www.w3.org/2000/svg">
<path fill-rule="evenodd" clip-rule="evenodd" d="M2.25 11C2.25 8.37665 4.37665 6.25 7 6.25H25C27.6234 6.25 29.75 8.37665 29.75 11V21C29.75 23.6234 27.6234 25.75 25 25.75H7C4.37665 25.75 2.25 23.6234 2.25 21V11ZM7 7.75C5.20507 7.75 3.75 9.20507 3.75 11V21C3.75 22.7949 5.20507 24.25 7 24.25H25C26.7949 24.25 28.25 22.7949 28.25 21V11C28.25 9.20507 26.7949 7.75 25 7.75H7Z" fill="#52504A"/>
<path fill-rule="evenodd" clip-rule="evenodd" d="M11.375 11.8125C10.3222 11.8125 9.46875 12.666 9.46875 13.7188C9.46875 14.7715 10.3222 15.625 11.375 15.625C12.4278 15.625 13.2812 14.7715 13.2812 13.7188C13.2812 12.666 12.4278 11.8125 11.375 11.8125ZM7.96875 13.7188C7.96875 11.8375 9.49378 10.3125 11.375 10.3125C13.2562 10.3125 14.7812 11.8375 14.7812 13.7188C14.7812 15.6 13.2562 17.125 11.375 17.125C9.49378 17.125 7.96875 15.6 7.96875 13.7188Z" fill="#52504A"/>
<path fill-rule="evenodd" clip-rule="evenodd" d="M6.06152 21.6875C6.06152 19.0807 8.59396 17.2188 11.375 17.2188C14.156 17.2188 16.6884 19.0807 16.6884 21.6875C16.6884 22.1017 16.3526 22.4375 15.9384 22.4375C15.5242 22.4375 15.1884 22.1017 15.1884 21.6875C15.1884 20.1824 13.6302 18.7188 11.375 18.7188C9.11971 18.7188 7.56152 20.1824 7.56152 21.6875C7.56152 22.1017 7.22574 22.4375 6.81152 22.4375C6.39731 22.4375 6.06152 22.1017 6.06152 21.6875Z" fill="#52504A"/>
<path fill-rule="evenodd" clip-rule="evenodd" d="M19 14.25C19 13.8358 19.3358 13.5 19.75 13.5H24.25C24.6642 13.5 25 13.8358 25 14.25C25 14.6642 24.6642 15 24.25 15H19.75C19.3358 15 19 14.6642 19 14.25Z" fill="#52504A"/>
<path fill-rule="evenodd" clip-rule="evenodd" d="M19 18.25C19 17.8358 19.3358 17.5 19.75 17.5H24.25C24.6642 17.5 25 17.8358 25 18.25C25 18.6642 24.6642 19 24.25 19H19.75C19.3358 19 19 18.6642 19 18.25Z" fill="#52504A"/>
</svg>
