<svg width="20" height="18" viewBox="0 0 20 18" fill="none" xmlns="http://www.w3.org/2000/svg">
<path d="M7.11078 7.82275C7.38177 7.88348 7.64891 7.96027 7.91078 8.05274C8.6634 8.39041 9.28994 8.95744 9.70078 9.67274C9.83069 9.8857 9.94114 10.11 10.0308 10.3428C9.60406 10.6475 9.28257 11.0773 9.11078 11.5727H3.05078C3.20586 10.6639 3.59148 9.81002 4.17078 9.09275C4.46037 8.73128 4.82096 8.43299 5.2303 8.21629C5.63964 7.99958 6.08904 7.86904 6.55078 7.83274C5.961 7.75716 5.4234 7.45611 5.05078 6.99274C4.85949 6.76678 4.7179 6.50309 4.6352 6.21882C4.5525 5.93455 4.53056 5.63606 4.57078 5.34275C4.61566 4.92082 4.77841 4.52003 5.04042 4.18627C5.30242 3.85251 5.6531 3.59926 6.05231 3.45548C6.45152 3.3117 6.88314 3.28321 7.29779 3.37327C7.71244 3.46333 8.09335 3.6683 8.39695 3.96473C8.70055 4.26116 8.91457 4.63707 9.01452 5.04945C9.11446 5.46182 9.0963 5.894 8.9621 6.29653C8.82791 6.69907 8.5831 7.05569 8.2557 7.3256C7.92829 7.59551 7.53152 7.7678 7.11078 7.82275Z" fill="#FCFCFD"/>
<path d="M10.1712 14.9326H2.01119C1.54047 14.9412 1.08182 14.7834 0.715975 14.4871C0.350135 14.1908 0.10056 13.7749 0.0111867 13.3126C-0.00372891 13.1597 -0.00372891 13.0056 0.0111867 12.8526C0.0111867 9.26597 0.0111867 5.68264 0.0111867 2.10264C-0.00317882 1.82308 0.0413035 1.5436 0.141756 1.28231C0.242209 1.02102 0.396394 0.783739 0.594338 0.585796C0.792281 0.387852 1.02957 0.233658 1.29086 0.133205C1.55215 0.0327521 1.83162 -0.0117302 2.11119 0.00263538H17.8812C18.1565 -0.00723552 18.4309 0.0398942 18.6872 0.141063C18.9435 0.242232 19.1761 0.395265 19.3705 0.590557C19.5648 0.785848 19.7167 1.01919 19.8166 1.27595C19.9166 1.53271 19.9624 1.80734 19.9512 2.08264C19.9512 4.72264 19.9512 7.37264 19.9512 10.0126V10.2326C19.6693 9.9594 19.3721 9.70232 19.0612 9.46264C18.9357 9.38271 18.8353 9.26897 18.7717 9.13452C18.708 9.00006 18.6835 8.85037 18.7012 8.70265C18.7012 6.70265 18.7012 4.61264 18.7012 2.57264C18.7162 2.40297 18.7162 2.23232 18.7012 2.06265C18.6986 1.95321 18.6742 1.84537 18.6294 1.74552C18.5845 1.64567 18.5201 1.55582 18.4399 1.48126C18.3598 1.4067 18.2655 1.34894 18.1627 1.3114C18.0598 1.27385 17.9505 1.25728 17.8412 1.26265H2.58119C2.40467 1.25248 2.22771 1.25248 2.05119 1.26265C1.94182 1.2613 1.83328 1.28185 1.73198 1.32309C1.63067 1.36432 1.53864 1.42542 1.4613 1.50276C1.38395 1.5801 1.32287 1.67213 1.28163 1.77343C1.2404 1.87474 1.21984 1.98328 1.22119 2.09265C1.22119 2.24265 1.22119 2.39264 1.22119 2.54264C1.22119 5.69598 1.22119 8.84597 1.22119 11.9926C1.20641 12.3431 1.29323 12.6904 1.47119 12.9926C1.60424 13.2115 1.79042 13.3931 2.01245 13.5207C2.23447 13.6483 2.48514 13.7178 2.74119 13.7226C3.33119 13.7226 3.93119 13.7226 4.53119 13.7226H9.73119C9.92119 13.7226 9.99119 13.7226 10.0112 13.9626C10.0473 14.2886 10.1007 14.6124 10.1712 14.9326Z" fill="#FCFCFD"/>
<path d="M15.4616 17.5527C14.6471 17.5508 13.8516 17.3074 13.1753 16.8535C12.4991 16.3996 11.9726 15.7555 11.6623 15.0025C11.352 14.2495 11.2719 13.4214 11.432 12.6228C11.5921 11.8243 11.9852 11.0911 12.5618 10.5159C13.1384 9.94075 13.8725 9.54935 14.6715 9.39118C15.4704 9.23302 16.2983 9.31519 17.0505 9.62731C17.8028 9.93944 18.4456 10.4675 18.8979 11.1448C19.3502 11.8221 19.5916 12.6183 19.5916 13.4327C19.5889 14.5263 19.1526 15.5742 18.3784 16.3466C17.6041 17.119 16.5552 17.5527 15.4616 17.5527ZM14.8916 14.1527L13.6516 13.0627C13.6272 13.0316 13.5961 13.0063 13.5606 12.989C13.5251 12.9717 13.4861 12.9627 13.4466 12.9627C13.407 12.9627 13.368 12.9717 13.3325 12.989C13.297 13.0063 13.2659 13.0316 13.2416 13.0627L12.9316 13.3327C12.7616 13.4927 12.7516 13.5727 12.9316 13.7327L14.6316 15.2527C14.8316 15.4327 14.8916 15.4327 15.1016 15.2527L16.7516 13.7827L18.1916 12.4927C18.3616 12.3527 18.3616 12.2827 18.1916 12.1327L17.8516 11.8327C17.8281 11.8035 17.7985 11.78 17.7647 11.7638C17.731 11.7476 17.694 11.7392 17.6566 11.7392C17.6191 11.7392 17.5822 11.7476 17.5484 11.7638C17.5147 11.78 17.485 11.8035 17.4616 11.8327L16.7416 12.4827L14.8916 14.1527Z" fill="#FCFCFD"/>
<path d="M14.1009 4.43261H11.6509C11.5827 4.44001 11.5137 4.4306 11.45 4.4052C11.3863 4.3798 11.3298 4.33919 11.2854 4.2869C11.241 4.23462 11.2101 4.17225 11.1953 4.10526C11.1806 4.03827 11.1825 3.9687 11.2009 3.90261C11.2154 3.81612 11.261 3.73791 11.3292 3.68267C11.3973 3.62743 11.4832 3.59896 11.5709 3.60261H16.6509C16.7047 3.6039 16.7578 3.6158 16.807 3.63761C16.8563 3.65942 16.9008 3.69072 16.9379 3.72973C16.9751 3.76873 17.0041 3.81467 17.0235 3.86492C17.0429 3.91517 17.0522 3.96876 17.0509 4.02261C17.0457 4.1349 16.9967 4.24069 16.9145 4.31733C16.8322 4.39396 16.7233 4.43534 16.6109 4.43261H14.1109H14.1009Z" fill="#FCFCFD"/>
<path d="M14.1126 6.51263H11.6526C11.5209 6.50149 11.3972 6.44493 11.3026 6.35263C11.2635 6.30387 11.2345 6.2478 11.2173 6.1877C11.2001 6.1276 11.1951 6.06468 11.2026 6.00262C11.2175 5.92088 11.2589 5.84632 11.3203 5.79033C11.3817 5.73434 11.4598 5.70001 11.5426 5.69263H16.6926C16.7854 5.70866 16.8699 5.75619 16.9318 5.82722C16.9938 5.89826 17.0293 5.98845 17.0326 6.08263C17.0312 6.18791 16.992 6.2892 16.9223 6.3681C16.8526 6.447 16.7569 6.49829 16.6526 6.51263H14.1126Z" fill="#FCFCFD"/>
<path d="M12.3709 7.7627H13.0809C13.1928 7.76715 13.2993 7.81226 13.3803 7.88959C13.4613 7.96691 13.5113 8.07113 13.5209 8.18269C13.5134 8.29506 13.4641 8.40053 13.3826 8.47829C13.3012 8.55604 13.1935 8.60044 13.0809 8.60269H11.6509C11.5399 8.60066 11.4336 8.55768 11.3524 8.48199C11.2712 8.40631 11.2208 8.30327 11.2109 8.19269C11.2229 8.07761 11.2761 7.97073 11.3606 7.89172C11.4451 7.81271 11.5553 7.76689 11.6709 7.7627H12.3709Z" fill="#FCFCFD"/>
</svg>
