<svg width="32" height="32" viewBox="0 0 32 32" fill="none" xmlns="http://www.w3.org/2000/svg">
<path d="M16 16C18.7614 16 21 13.7614 21 11C21 8.23858 18.7614 6 16 6C13.2386 6 11 8.23858 11 11C11 13.7614 13.2386 16 16 16Z" stroke="#52504A" stroke-width="1.5" stroke-linecap="round" stroke-linejoin="round"/>
<path d="M7.41016 26C7.41016 22.13 11.2602 19 16.0002 19C16.9602 19 17.8902 19.13 18.7602 19.37" stroke="#52504A" stroke-width="1.5" stroke-linecap="round" stroke-linejoin="round"/>
<path fill-rule="evenodd" clip-rule="evenodd" d="M16 6.75C13.6528 6.75 11.75 8.65279 11.75 11C11.75 13.3472 13.6528 15.25 16 15.25C18.3472 15.25 20.25 13.3472 20.25 11C20.25 8.65279 18.3472 6.75 16 6.75ZM10.25 11C10.25 7.82436 12.8244 5.25 16 5.25C19.1756 5.25 21.75 7.82436 21.75 11C21.75 14.1756 19.1756 16.75 16 16.75C12.8244 16.75 10.25 14.1756 10.25 11Z" fill="#52504A"/>
<path fill-rule="evenodd" clip-rule="evenodd" d="M16.0002 19.75C11.523 19.75 8.16016 22.6809 8.16016 26C8.16016 26.4142 7.82437 26.75 7.41016 26.75C6.99594 26.75 6.66016 26.4142 6.66016 26C6.66016 21.5791 10.9973 18.25 16.0002 18.25C17.0276 18.25 18.0247 18.3891 18.9596 18.647C19.3589 18.7572 19.5933 19.1701 19.4832 19.5694C19.373 19.9687 18.96 20.2031 18.5607 20.093C17.7556 19.8709 16.8927 19.75 16.0002 19.75Z" fill="#52504A"/>
<path d="M22.5578 18.8382C22.7454 18.4826 23.2546 18.4826 23.4422 18.8382L24.4135 20.6791C24.4859 20.8162 24.6177 20.912 24.7705 20.9385L26.8215 21.2933C27.2176 21.3619 27.375 21.8462 27.0948 22.1345L25.6441 23.6271C25.536 23.7383 25.4857 23.8933 25.5077 24.0468L25.804 26.1071C25.8613 26.505 25.4493 26.8043 25.0885 26.6269L23.2206 25.7085C23.0815 25.6401 22.9185 25.6401 22.7794 25.7085L20.9115 26.6269C20.5507 26.8043 20.1387 26.505 20.196 26.1071L20.4923 24.0468C20.5143 23.8933 20.464 23.7383 20.3559 23.6271L18.9052 22.1345C18.625 21.8462 18.7824 21.3619 19.1785 21.2933L21.2295 20.9385C21.3823 20.912 21.5141 20.8162 21.5865 20.6791L22.5578 18.8382Z" fill="#52504A"/>
</svg>
