<svg width="20" height="21" viewBox="0 0 20 21" fill="none" xmlns="http://www.w3.org/2000/svg">
<path d="M12.4316 9.51094C12.7915 9.53912 13.1263 9.70618 13.3652 9.97679C13.604 10.2474 13.7283 10.6003 13.7116 10.9609V14.3209C13.7197 14.5022 13.6919 14.6833 13.6299 14.8538C13.5679 15.0243 13.4729 15.1809 13.3502 15.3147C13.2276 15.4484 13.0799 15.5567 12.9154 15.6333C12.7509 15.7098 12.5729 15.7532 12.3916 15.7609H7.58161C7.40033 15.7532 7.22235 15.7098 7.05786 15.6333C6.89337 15.5567 6.74559 15.4484 6.62298 15.3147C6.50037 15.1809 6.40535 15.0243 6.34334 14.8538C6.28133 14.6833 6.25356 14.5022 6.26161 14.3209V10.9609C6.2453 10.5938 6.37501 10.2352 6.62237 9.96352C6.86973 9.6918 7.21461 9.52908 7.58161 9.51094H12.4316ZM9.99161 10.771C9.71743 10.7386 9.44087 10.8077 9.21415 10.9652C8.98744 11.1228 8.82625 11.3579 8.76103 11.6262C8.69581 11.8945 8.73106 12.1773 8.86013 12.4214C8.9892 12.6655 9.20316 12.8538 9.46161 12.9509V14.5009H10.5316V12.9509C10.7277 12.8618 10.8967 12.7223 11.0214 12.5466C11.1461 12.371 11.2221 12.1655 11.2416 11.9509C11.2377 11.7912 11.2022 11.6337 11.1372 11.4877C11.0721 11.3418 10.9788 11.2101 10.8626 11.1004C10.7464 10.9907 10.6095 10.9051 10.4601 10.8485C10.3106 10.792 10.1514 10.7656 9.99161 10.771ZM9.99161 7.02095C9.82201 7.00448 9.65086 7.02524 9.49013 7.0818C9.32939 7.13836 9.18295 7.22932 9.06104 7.34837C8.93913 7.46743 8.8447 7.61169 8.78434 7.77104C8.72398 7.93039 8.69916 8.10101 8.71161 8.27095V9.51094H7.50161V8.38094C7.50161 8.38094 7.50161 5.75093 10.0016 5.75093C12.5016 5.75093 12.5016 8.38094 12.5016 8.38094V9.50093H11.2616V8.26094C11.2705 8.09404 11.2439 7.92714 11.1834 7.77132C11.123 7.6155 11.0301 7.47431 10.911 7.35707C10.7918 7.23984 10.6492 7.14924 10.4924 7.09129C10.3356 7.03335 10.1683 7.00938 10.0016 7.02095H9.99161ZM17.9916 7.43092C18.3746 8.41264 18.5713 9.45716 18.5716 10.5109C18.5794 12.4228 17.9485 14.2825 16.7789 15.7949C15.6092 17.3073 13.968 18.3857 12.1156 18.859C10.2632 19.3323 8.30583 19.1733 6.55409 18.4073C4.80236 17.6413 3.35666 16.3122 2.44644 14.6308C1.53621 12.9495 1.21363 11.0124 1.52988 9.12682C1.84613 7.24126 2.78309 5.51535 4.19206 4.22301C5.60102 2.93067 7.40127 2.14595 9.30706 1.99339C11.2129 1.84084 13.115 2.32919 14.7116 3.38094L16.1416 2.66094C14.2285 1.17213 11.8398 0.428924 9.41971 0.569596C6.99966 0.710269 4.7131 1.72524 2.9854 3.42568C1.2577 5.12611 0.206499 7.39626 0.0273573 9.81377C-0.151785 12.2313 0.553328 14.6315 2.01152 16.5681C3.46972 18.5046 5.58171 19.8455 7.95459 20.3413C10.3275 20.8372 12.7997 20.4542 14.9113 19.2636C17.023 18.073 18.6302 16.156 19.4341 13.869C20.238 11.582 20.1838 9.08094 19.2816 6.83095L17.9916 7.43092Z" fill="#FCFCFD"/>
<path d="M16.0021 0.700871L17.3621 4.60086C17.3741 4.62638 17.3787 4.65479 17.3754 4.6828C17.372 4.71082 17.3608 4.73729 17.343 4.75922C17.3253 4.78115 17.3017 4.79763 17.275 4.80677C17.2483 4.8159 17.2196 4.81731 17.1921 4.81086L12.9221 4.38086C12.8976 4.37473 12.8751 4.36254 12.8566 4.3454C12.8381 4.32826 12.8243 4.30673 12.8163 4.28281C12.8083 4.25889 12.8065 4.23334 12.811 4.20853C12.8155 4.18372 12.8262 4.16045 12.8421 4.14087L15.7121 0.670872C15.7234 0.639175 15.7449 0.612172 15.7734 0.594212C15.8018 0.576251 15.8354 0.568381 15.8689 0.571842C15.9024 0.575303 15.9337 0.589884 15.9578 0.613285C15.982 0.636686 15.9976 0.667543 16.0021 0.700871Z" fill="#FCFCFD"/>
</svg>
