<svg width="32" height="32" viewBox="0 0 32 32" fill="none" xmlns="http://www.w3.org/2000/svg">
<path fill-rule="evenodd" clip-rule="evenodd" d="M13.9933 6.82693L8.42012 9.10821C8.20306 9.1956 7.96523 9.39216 7.77869 9.66965C7.59202 9.94733 7.5 10.2417 7.5 10.4725V14.8625C7.5 19.4027 10.8124 23.6953 15.3483 24.9492C15.5485 25.0036 15.7715 25.0036 15.9717 24.9492C20.5076 23.6953 23.82 19.4027 23.82 14.8625L23.82 14.8608L23.83 10.4725C23.8298 10.2445 23.7372 9.95025 23.5485 9.67108C23.3598 9.39174 23.1205 9.19413 22.9067 9.10692L17.3367 6.82693C16.2685 6.39131 15.0614 6.39123 13.9933 6.82693ZM13.4267 5.43807C14.8583 4.85398 16.4717 4.85398 17.9033 5.43807L23.4733 7.71802C24.0191 7.9409 24.4753 8.36344 24.7915 8.83136C25.1077 9.29938 25.33 9.88058 25.33 10.4725L25.33 10.4742L25.32 14.8625C25.3196 20.1014 21.5328 24.9689 16.3697 26.3954L16.3674 26.3961C15.9082 26.5213 15.4119 26.5213 14.9527 26.3961L14.9503 26.3954C9.78687 24.9688 6 20.1018 6 14.8625V10.4725C6 9.88327 6.21799 9.30261 6.53383 8.83279C6.84937 8.3634 7.30576 7.94047 7.85771 7.71762L13.4267 5.43807ZM15.6599 12.9925C14.9696 12.9925 14.4099 13.5521 14.4099 14.2425C14.4099 14.9328 14.9696 15.4925 15.6599 15.4925C16.3503 15.4925 16.9099 14.9328 16.9099 14.2425C16.9099 13.5521 16.3503 12.9925 15.6599 12.9925ZM16.4099 16.889C17.5642 16.5625 18.4099 15.5013 18.4099 14.2425C18.4099 12.7237 17.1787 11.4925 15.6599 11.4925C14.1411 11.4925 12.9099 12.7237 12.9099 14.2425C12.9099 15.5013 13.7557 16.5625 14.9099 16.889V19.2425C14.9099 19.6567 15.2457 19.9925 15.6599 19.9925C16.0741 19.9925 16.4099 19.6567 16.4099 19.2425V16.889Z" fill="#52504A"/>
</svg>
