<svg width="19" height="21" viewBox="0 0 19 21" fill="none" xmlns="http://www.w3.org/2000/svg">
<path d="M0.0202472 7.5573V4.48729C0.0103089 4.37752 0.0103089 4.26708 0.0202472 4.15731C0.100247 3.61731 0.380247 3.15731 0.920247 3.15731C3.78025 3.00731 5.71025 1.87729 8.03025 0.29729C8.24197 0.158676 8.48028 0.0657563 8.72995 0.0244322C8.97961 -0.016892 9.23515 -0.00570291 9.48025 0.0572996C9.63231 0.0949227 9.77519 0.162939 9.90025 0.257281C11.3649 1.28632 12.9764 2.08867 14.6802 2.63729C15.5899 2.91996 16.5297 3.09452 17.4802 3.15731C18.2602 3.20731 18.1502 3.67729 18.1502 4.45729V11.0073C18.1692 13.241 17.3152 15.3939 15.7702 17.0073C15.1246 17.6947 14.3878 18.2902 13.5802 18.7773C12.2118 19.5832 10.7883 20.2916 9.32025 20.8973C9.2215 20.949 9.1117 20.976 9.00025 20.976C8.88879 20.976 8.77899 20.949 8.68025 20.8973C6.81419 20.1342 5.04788 19.1469 3.42025 17.9573C2.34983 17.1575 1.48254 16.1171 0.888438 14.9202C0.294336 13.7233 -0.00992118 12.4035 0.000246711 11.0673C0.0102467 9.87728 0.0202472 8.7173 0.0202472 7.5573ZM9.02025 1.3073H8.96025C8.12025 1.8073 7.29025 2.30728 6.43025 2.78728C4.91172 3.58992 3.25671 4.10203 1.55025 4.29729C1.35025 4.29729 1.35025 4.42729 1.35025 4.57729C1.35025 6.70729 1.35025 8.84728 1.35025 10.9773C1.34307 11.5298 1.40692 12.081 1.54025 12.6173C1.69616 13.4259 2.01059 14.1957 2.46541 14.8822C2.92023 15.5687 3.50644 16.1584 4.19025 16.6173C5.70025 17.5273 7.19025 18.4073 8.76025 19.2973C8.82025 19.2973 9.05025 19.3973 9.12025 19.3573C10.5503 18.5273 11.9902 17.7073 13.4202 16.8573C13.8523 16.5534 14.2482 16.2011 14.6002 15.8073C15.2789 15.1485 15.8134 14.3558 16.1697 13.4796C16.526 12.6034 16.6965 11.6628 16.6702 10.7173C16.6702 8.8373 16.6702 6.96728 16.6702 5.09728V4.31728C13.9181 3.95653 11.2974 2.92269 9.04025 1.3073H9.02025Z" fill="#FCFCFD"/>
<path d="M8.38054 11.6172C8.4213 11.5318 8.47162 11.4513 8.53054 11.3772L12.0605 7.8272C12.1544 7.73462 12.2656 7.66144 12.3878 7.61184C12.51 7.56224 12.6408 7.53718 12.7726 7.53811C12.9045 7.53904 13.0349 7.56592 13.1563 7.61724C13.2778 7.66856 13.388 7.74332 13.4805 7.83721C13.5731 7.93111 13.6463 8.04231 13.6959 8.16448C13.7455 8.28666 13.7706 8.41742 13.7696 8.54928C13.7687 8.68114 13.7418 8.81151 13.6905 8.93298C13.6392 9.05444 13.5644 9.16461 13.4705 9.2572L10.8805 11.8472L9.11054 13.6072C9.01684 13.724 8.89811 13.8183 8.76311 13.883C8.6281 13.9478 8.48028 13.9814 8.33054 13.9814C8.18081 13.9814 8.03298 13.9478 7.89798 13.883C7.76298 13.8183 7.64425 13.724 7.55054 13.6072L5.41054 11.4872C5.29885 11.4014 5.20652 11.2931 5.13961 11.1692C5.07271 11.0452 5.03272 10.9086 5.02228 10.7682C5.01184 10.6277 5.03118 10.4867 5.07903 10.3542C5.12688 10.2218 5.20217 10.101 5.29996 9.99963C5.39775 9.8983 5.51583 9.81873 5.64649 9.7662C5.77715 9.71367 5.91742 9.68935 6.05814 9.69479C6.19886 9.70023 6.33684 9.7353 6.46305 9.79775C6.58927 9.86021 6.70087 9.94864 6.79054 10.0572C7.33054 10.5472 7.79054 11.0472 8.38054 11.6172Z" fill="#FCFCFD"/>
</svg>
