<svg width="19" height="19" viewBox="0 0 19 19" fill="none" xmlns="http://www.w3.org/2000/svg">
<path d="M18.9987 18.0119H8.29875C8.21643 18.0148 8.13549 17.9902 8.06875 17.9419L7.16875 17.2619C6.37538 16.6589 5.8281 15.7883 5.62875 14.8119C5.56875 14.5519 5.52875 14.2919 5.46875 13.9919H8.19875C7.63875 13.3619 7.03875 12.7819 6.43875 12.1619C6.54707 12.0595 6.66056 11.9627 6.77875 11.8719L7.94875 11.0419C7.96178 11.0286 7.97734 11.018 7.99451 11.0108C8.01169 11.0036 8.03012 10.9999 8.04875 10.9999C8.06738 10.9999 8.08581 11.0036 8.10299 11.0108C8.12016 11.018 8.13572 11.0286 8.14875 11.0419C8.49676 11.4123 8.89779 11.7291 9.33875 11.9819C10.1307 12.4243 11.0334 12.6292 11.9388 12.5719C13.0294 12.5178 14.0664 12.0825 14.8687 11.3419L15.2788 10.9719C16.8503 11.8336 18.0314 13.2653 18.5788 14.9719C18.7808 15.6212 18.9017 16.293 18.9388 16.9719C18.9388 16.9719 18.9388 17.0419 18.9388 17.0819L18.9987 18.0119Z" fill="#FCFCFD"/>
<path d="M0 10.8519C0.08 10.5819 0.140001 10.3119 0.220001 10.0519C0.530229 8.88055 1.19362 7.8331 2.12 7.05194C2.37 6.85194 2.63 6.68194 2.89 6.49194C3.08 6.66194 3.26 6.83195 3.45 6.97195C3.83024 7.27755 4.2673 7.50472 4.73589 7.64032C5.20449 7.77592 5.69532 7.81724 6.18 7.76193H6.61C6.67 7.76193 6.7 7.76194 6.72 7.83194C6.8 8.22194 6.89 8.61195 6.97 9.00195C6.97 9.18195 6.97 9.18195 6.85 9.28195C6.41395 9.56947 6.01144 9.90489 5.65 10.282L5.25 10.692L3.61 9.01193L3.53 9.10193C2.88 9.75193 2.24 10.4119 1.6 11.1019C1.54974 11.1527 1.48142 11.1815 1.41 11.1819H0.25C0.204216 11.1872 0.15785 11.1817 0.114494 11.1661C0.0711391 11.1505 0.0319604 11.1251 0 11.0919V10.8519Z" fill="#FCFCFD"/>
<path d="M15.8502 7.17201C15.8624 7.71077 15.7656 8.24645 15.5657 8.74687C15.3657 9.24729 15.0667 9.70213 14.6866 10.0841C14.3065 10.4661 13.8531 10.7674 13.3536 10.9698C12.8542 11.1722 12.319 11.2716 11.7802 11.262C10.6981 11.2461 9.66668 10.801 8.91279 10.0246C8.15889 9.24818 7.74429 8.20411 7.76021 7.12202C7.77612 6.03994 8.22124 5.00849 8.99764 4.25459C9.77404 3.5007 10.8181 3.08609 11.9002 3.102C12.4272 3.10851 12.9477 3.21912 13.4319 3.42744C13.916 3.63577 14.3542 3.93772 14.7213 4.31593C15.0883 4.69415 15.377 5.14116 15.5708 5.6313C15.7645 6.12145 15.8595 6.64504 15.8502 7.17201Z" fill="#FCFCFD"/>
<path d="M2.32068 3.52198C2.30846 2.68484 2.59932 1.87149 3.13963 1.23194C3.67994 0.592394 4.43326 0.16976 5.26068 0.0419718C5.84571 -0.0523867 6.44537 0.0130412 6.99631 0.231303C7.54724 0.449564 8.029 0.812577 8.39068 1.28199C8.68263 1.63107 8.90039 2.03598 9.03068 2.47199V2.59199C9.04398 2.63052 9.04206 2.67265 9.02534 2.70982C9.00861 2.74699 8.97833 2.77637 8.94068 2.79197H8.84068C7.99309 3.21933 7.31859 3.92562 6.93068 4.79197C6.61203 5.41165 6.43768 6.09538 6.42068 6.79197C6.42068 6.8238 6.40804 6.85434 6.38553 6.87684C6.36303 6.89935 6.33251 6.912 6.30068 6.912C5.44236 7.05184 4.56292 6.8614 3.83933 6.37901C3.11575 5.89662 2.60172 5.15808 2.40068 4.31199C2.35572 4.05083 2.32899 3.78685 2.32068 3.52198Z" fill="#FCFCFD"/>
<path d="M4.58992 13.3619C4.528 14.2494 4.68961 15.1382 5.05997 15.9471C5.43033 16.7559 5.99762 17.459 6.70992 17.9919L6.17992 17.8519C5.37003 17.6394 4.6115 17.2652 3.94992 16.752C3.07578 16.0565 2.45969 15.0884 2.19992 14.002L2.04992 13.442L0.419922 13.3819C1.41992 12.3819 2.41992 11.472 3.36992 10.502L6.30992 13.3619H4.58992Z" fill="#FCFCFD"/>
</svg>
