<svg width="32" height="32" viewBox="0 0 32 32" fill="none" xmlns="http://www.w3.org/2000/svg">
<path fill-rule="evenodd" clip-rule="evenodd" d="M17.6648 8.66094C17.6649 8.66097 17.6648 8.66091 17.6648 8.66094L22.3947 11.3909C22.4098 11.3996 22.4246 11.4089 22.4391 11.4186L22.4629 11.4347C22.8727 11.711 23.2152 11.942 23.4798 12.1516C23.7545 12.3691 23.9988 12.6039 24.1743 12.908C24.3541 13.2194 24.4264 13.5418 24.4593 13.8769C24.4898 14.1879 24.4898 14.5606 24.4898 14.9871V20.0238C24.4898 20.4503 24.4898 20.823 24.4593 21.1339C24.4264 21.4691 24.3541 21.7915 24.1743 22.1028C23.9988 22.4069 23.7545 22.6418 23.4798 22.8593C23.2152 23.0688 22.8727 23.2998 22.4629 23.5762L22.4391 23.5922C22.4246 23.602 22.4098 23.6113 22.3947 23.62L17.6648 26.3499C17.6648 26.3499 17.6649 26.3499 17.6648 26.3499C17.1683 26.6366 16.563 26.7579 15.9998 26.7579C15.4365 26.7579 14.8313 26.6367 14.3349 26.35C14.3348 26.35 14.3349 26.35 14.3349 26.35L9.60486 23.62C9.58972 23.6113 9.5749 23.602 9.56041 23.5922L9.53663 23.5762C9.12686 23.2999 8.7843 23.0688 8.51975 22.8593C8.24505 22.6418 8.0007 22.4069 7.8252 22.1028C7.64547 21.7915 7.57309 21.4691 7.54022 21.1339C7.50973 20.823 7.50975 20.4503 7.50977 20.0238V14.9871C7.50975 14.5606 7.50973 14.1879 7.54022 13.8769C7.57309 13.5418 7.64547 13.2194 7.8252 12.908C8.0007 12.6039 8.24505 12.3691 8.51975 12.1516C8.78431 11.942 9.12687 11.711 9.53665 11.4346L9.56041 11.4186C9.5749 11.4089 9.58972 11.3996 9.60486 11.3909L14.3347 8.66094C14.3348 8.66091 14.3347 8.66097 14.3347 8.66094C14.8312 8.37428 15.4365 8.25293 15.9998 8.25293C16.563 8.25293 17.1683 8.37428 17.6648 8.66094ZM15.9998 9.75293C15.6281 9.75293 15.2983 9.83664 15.0848 9.95992L10.3774 12.6769C9.9497 12.9654 9.66159 13.1607 9.45104 13.3274C9.24199 13.493 9.16383 13.5894 9.12433 13.6578C9.08907 13.719 9.05395 13.8103 9.03306 14.0233C9.0106 14.2524 9.00977 14.5509 9.00977 15.0204V19.9904C9.00977 20.46 9.0106 20.7585 9.03306 20.9875C9.05395 21.2005 9.08907 21.2919 9.12433 21.353C9.16383 21.4214 9.24199 21.5179 9.45104 21.6834C9.66159 21.8502 9.9497 22.0455 10.3774 22.334L15.0847 25.0509C15.2982 25.1741 15.6281 25.2579 15.9998 25.2579C16.3715 25.2579 16.7012 25.1742 16.9147 25.0509L21.6221 22.334C22.0498 22.0455 22.3379 21.8502 22.5485 21.6834C22.7575 21.5179 22.8357 21.4214 22.8752 21.353C22.9105 21.2919 22.9456 21.2005 22.9665 20.9875C22.9889 20.7585 22.9898 20.46 22.9898 19.9904V15.0204C22.9898 14.5509 22.9889 14.2524 22.9665 14.0233C22.9456 13.8103 22.9105 13.719 22.8752 13.6578C22.8357 13.5894 22.7575 13.493 22.5485 13.3274C22.3379 13.1607 22.0498 12.9654 21.6221 12.6769L16.9149 9.96C16.7014 9.83672 16.3715 9.75293 15.9998 9.75293Z" fill="#52504A"/>
<path fill-rule="evenodd" clip-rule="evenodd" d="M10.7197 6.21967C11.4099 5.52941 12.3844 5.25 13.5 5.25H18.5C19.6156 5.25 20.5901 5.52941 21.2803 6.21967C21.9706 6.90993 22.25 7.88439 22.25 9V11.63C22.25 12.0442 21.9142 12.38 21.5 12.38C21.0858 12.38 20.75 12.0442 20.75 11.63V9C20.75 8.11561 20.5294 7.59007 20.2197 7.28033C19.9099 6.97059 19.3844 6.75 18.5 6.75H13.5C12.6156 6.75 12.0901 6.97059 11.7803 7.28033C11.4706 7.59007 11.25 8.11561 11.25 9V11.56C11.25 11.9742 10.9142 12.31 10.5 12.31C10.0858 12.31 9.75 11.9742 9.75 11.56V9C9.75 7.88439 10.0294 6.90993 10.7197 6.21967Z" fill="#52504A"/>
<path d="M15.5578 13.8382C15.7454 13.4826 16.2546 13.4826 16.4422 13.8382L17.4135 15.6791C17.4859 15.8162 17.6177 15.912 17.7705 15.9385L19.8215 16.2933C20.2176 16.3619 20.375 16.8462 20.0948 17.1345L18.6441 18.6271C18.536 18.7383 18.4857 18.8933 18.5077 19.0468L18.804 21.1071C18.8613 21.505 18.4493 21.8043 18.0885 21.6269L16.2206 20.7085C16.0815 20.6401 15.9185 20.6401 15.7794 20.7085L13.9115 21.6269C13.5507 21.8043 13.1387 21.505 13.196 21.1071L13.4923 19.0468C13.5143 18.8933 13.464 18.7383 13.3559 18.6271L11.9052 17.1345C11.625 16.8462 11.7824 16.3619 12.1785 16.2933L14.2295 15.9385C14.3823 15.912 14.5141 15.8162 14.5865 15.6791L15.5578 13.8382Z" fill="#52504A"/>
</svg>
