<svg width="20" height="22" viewBox="0 0 20 22" fill="none" xmlns="http://www.w3.org/2000/svg">
<path d="M5.76072 4.07107C5.76072 3.27107 5.76072 2.51107 5.76072 1.76107C5.76264 1.4915 5.8279 1.22615 5.95123 0.986442C6.07456 0.74673 6.25251 0.539388 6.47072 0.381096C6.80519 0.123214 7.21856 -0.0110477 7.64072 0.00109078C10.2007 0.00109078 12.7707 0.00109078 15.3307 0.00109078C15.5821 -0.00763874 15.8325 0.036106 16.066 0.129539C16.2995 0.222972 16.5109 0.364047 16.6869 0.543754C16.8628 0.723462 16.9994 0.937848 17.0879 1.17327C17.1763 1.40869 17.2148 1.65999 17.2007 1.91109C17.2007 3.97109 17.2007 6.03109 17.2007 8.09109V8.55108H18.0607C18.317 8.53363 18.574 8.57092 18.8147 8.66045C19.0554 8.74999 19.2743 8.88973 19.4569 9.0704C19.6395 9.25106 19.7815 9.4685 19.8735 9.70827C19.9655 9.94805 20.0055 10.2047 19.9907 10.4611C19.9907 12.9944 19.9907 15.5278 19.9907 18.0611C20.0083 18.3169 19.9711 18.5735 19.8815 18.8138C19.7918 19.0541 19.6519 19.2724 19.4711 19.4542C19.2902 19.636 19.0726 19.777 18.8328 19.8679C18.5931 19.9588 18.3366 19.9973 18.0807 19.9811H13.9407C13.7994 19.9867 13.6633 20.0356 13.5507 20.1211C12.9207 20.6611 12.3007 21.2211 11.6807 21.7711C11.5407 21.8911 11.4007 22.0011 11.2107 21.9111C11.0207 21.8211 11.0107 21.6411 11.0107 21.4611C11.0107 21.0311 11.0107 20.6111 11.0107 20.1811C11.0107 20.0211 11.0107 19.9711 10.8007 19.9711C10.5514 19.9962 10.3001 19.9962 10.0507 19.9711C9.63961 19.9037 9.26487 19.6951 8.99106 19.3811C8.71725 19.0672 8.56153 18.6675 8.55072 18.2511C8.55072 17.4178 8.55072 16.5877 8.55072 15.7611C8.55072 15.5511 8.48072 15.5011 8.29072 15.5111H1.95072C1.53562 15.5426 1.1224 15.4294 0.781439 15.1905C0.440476 14.9517 0.192847 14.602 0.0807192 14.2011C0.0294971 14.0256 0.00257987 13.8439 0.000719224 13.6611C0.000719224 11.0811 0.000719224 8.50107 0.000719224 5.92107C-0.00624581 5.67407 0.0374385 5.42826 0.12908 5.19878C0.220721 4.96931 0.35838 4.76104 0.533573 4.58678C0.708767 4.41253 0.917785 4.27598 1.14775 4.18557C1.37772 4.09516 1.62376 4.0528 1.87072 4.06109H5.76072V4.07107ZM11.8307 20.5311L12.0607 20.3411L13.2807 19.2611C13.3484 19.1965 13.4285 19.1463 13.5162 19.1137C13.6039 19.081 13.6973 19.0665 13.7907 19.0711H17.7907C17.9482 19.0846 18.1068 19.0637 18.2554 19.0098C18.404 18.9559 18.5392 18.8704 18.6514 18.7591C18.7637 18.6478 18.8504 18.5134 18.9055 18.3652C18.9607 18.2171 18.9829 18.0587 18.9707 17.9011V10.7211C18.9811 10.5687 18.9587 10.4159 18.905 10.2729C18.8514 10.1299 18.7678 10 18.6598 9.89202C18.5518 9.78403 18.4219 9.70041 18.2789 9.64678C18.1359 9.59315 17.9831 9.57074 17.8307 9.58108H10.6907C10.5341 9.56575 10.3761 9.58514 10.2279 9.63787C10.0796 9.6906 9.94486 9.77539 9.83314 9.88616C9.72141 9.99693 9.63549 10.131 9.58149 10.2787C9.52749 10.4265 9.50674 10.5844 9.52072 10.7411C9.52072 11.3711 9.52072 12.0011 9.52072 12.6311V17.8611C9.50605 18.0202 9.52592 18.1807 9.57896 18.3314C9.63201 18.4822 9.71698 18.6197 9.82807 18.7346C9.93916 18.8494 10.0737 18.939 10.2226 18.9971C10.3715 19.0551 10.5312 19.0804 10.6907 19.0711H11.3807C11.6907 19.0711 11.7907 19.1611 11.7907 19.4811L11.8307 20.5311ZM13.5107 8.30108C13.5107 8.30108 13.5107 8.21108 13.5107 8.18108C13.5107 6.74108 13.5107 5.2911 13.5107 3.8511C13.5167 3.75019 13.501 3.64917 13.4648 3.5548C13.4286 3.46043 13.3726 3.37489 13.3007 3.30389C13.2287 3.23288 13.1424 3.17806 13.0476 3.14309C12.9528 3.10812 12.8515 3.0938 12.7507 3.1011H9.08072C8.84072 3.1011 8.70072 2.96109 8.73072 2.75109C8.76072 2.54109 8.88072 2.47109 9.14072 2.47109C10.3207 2.47109 11.5107 2.47109 12.6907 2.47109C12.8855 2.46115 13.0803 2.49201 13.2625 2.56173C13.4446 2.63145 13.6102 2.73848 13.7486 2.87594C13.8871 3.0134 13.9952 3.17827 14.0662 3.35998C14.1371 3.54168 14.1693 3.73621 14.1607 3.93108C14.1607 5.30108 14.1607 6.67107 14.1607 8.04107V8.31109H16.2307C16.2307 8.23109 16.2307 8.1711 16.2307 8.1011V2.1011C16.2414 1.94429 16.218 1.787 16.1622 1.64007C16.1064 1.49314 16.0194 1.36002 15.9074 1.24984C15.7953 1.13966 15.6607 1.05503 15.5128 1.00173C15.365 0.948437 15.2073 0.927754 15.0507 0.941093H8.05072C7.88702 0.920272 7.72079 0.93314 7.56226 0.978935C7.40372 1.02473 7.25623 1.10249 7.12885 1.20739C7.00146 1.31229 6.89688 1.44214 6.82154 1.58895C6.74619 1.73576 6.70167 1.89643 6.69072 2.06109V4.06109H9.69072C9.93183 4.0481 10.173 4.08602 10.3984 4.17239C10.6239 4.25875 10.8287 4.39163 10.9994 4.56237C11.1702 4.73311 11.303 4.93787 11.3894 5.16335C11.4758 5.38883 11.5137 5.62998 11.5007 5.87109V8.26107L13.5107 8.30108ZM6.18072 11.2211C7.02784 10.3316 7.63366 9.24042 7.94072 8.05108C8.32072 8.05108 8.67072 8.05108 9.03072 8.05108C9.12089 8.05771 9.21001 8.02824 9.27846 7.96917C9.34691 7.9101 9.38909 7.82625 9.39572 7.73608C9.40235 7.6459 9.37289 7.55679 9.31381 7.48833C9.25474 7.41988 9.17089 7.37772 9.08072 7.37109C8.99771 7.36063 8.91372 7.36063 8.83072 7.37109H6.05072V6.46108C6.0593 6.41086 6.05681 6.35937 6.04343 6.3102C6.03005 6.26104 6.00609 6.21539 5.97324 6.17645C5.94038 6.1375 5.89942 6.10621 5.85322 6.08474C5.80701 6.06327 5.75667 6.05215 5.70572 6.05215C5.65477 6.05215 5.60443 6.06327 5.55822 6.08474C5.51202 6.10621 5.47106 6.1375 5.4382 6.17645C5.40535 6.21539 5.38139 6.26104 5.36801 6.3102C5.35462 6.35937 5.35214 6.41086 5.36072 6.46108C5.36072 6.75108 5.36072 7.03109 5.36072 7.34109H2.36072C2.31473 7.34364 2.2697 7.35525 2.2282 7.37524C2.18671 7.39523 2.14957 7.4232 2.11891 7.45757C2.08826 7.49195 2.06469 7.53205 2.04955 7.57555C2.03442 7.61906 2.02802 7.6651 2.03072 7.71108C2.03327 7.75576 2.04461 7.79949 2.0641 7.83978C2.08359 7.88006 2.11084 7.91609 2.14428 7.94582C2.17773 7.97555 2.21671 7.99839 2.259 8.01302C2.30129 8.02765 2.34605 8.03379 2.39072 8.03109H7.18072C6.91498 9.04341 6.40313 9.97434 5.69072 10.7411L5.50072 10.5511L4.64072 9.45107C4.6193 9.40588 4.58844 9.36582 4.55023 9.33355C4.51202 9.30128 4.46733 9.27757 4.41918 9.26403C4.37104 9.25049 4.32055 9.24744 4.27112 9.25506C4.22169 9.26268 4.17446 9.28081 4.13263 9.30822C4.09079 9.33563 4.05532 9.37166 4.02859 9.41393C4.00187 9.45621 3.98452 9.50373 3.9777 9.55328C3.97089 9.60282 3.97477 9.65327 3.98909 9.70119C4.00341 9.74911 4.02784 9.79339 4.06072 9.83108C4.08814 9.88477 4.1217 9.9351 4.16072 9.98107L5.16072 11.2611L4.92072 11.4611C4.24248 11.9923 3.49148 12.4233 2.69072 12.7411C2.43072 12.8411 2.33072 13.0211 2.41072 13.2311C2.49072 13.4411 2.70072 13.4911 2.96072 13.3811C3.90799 13.018 4.78704 12.4973 5.56072 11.8411C5.67072 11.7411 5.74072 11.7511 5.87072 11.8411C6.46072 12.2511 7.06072 12.6511 7.68072 13.0311C7.97255 13.185 8.27305 13.3219 8.58072 13.4411C8.57005 13.3046 8.57005 13.1675 8.58072 13.0311C8.59254 12.9786 8.5939 12.9242 8.58471 12.8711C8.57553 12.8181 8.55599 12.7674 8.5272 12.7219C8.49842 12.6764 8.46095 12.637 8.41694 12.606C8.37294 12.575 8.32325 12.5529 8.27072 12.5411C7.50677 12.2179 6.80079 11.7721 6.18072 11.2211Z" fill="#FCFCFD"/>
<path d="M14.2716 15.6213H13.0816C13.0261 15.6123 12.9692 15.6249 12.9227 15.6565C12.8762 15.6881 12.8436 15.7363 12.8316 15.7912C12.6516 16.2712 12.4516 16.7912 12.2516 17.2312C12.1816 17.3912 12.0716 17.5213 11.8916 17.4713C11.7676 17.4262 11.6644 17.3372 11.6016 17.2213C11.6016 17.1513 11.6016 17.0212 11.6616 16.9212C12.1716 15.6512 12.6616 14.3813 13.2016 13.1113L13.9016 11.3713C13.9716 11.2113 14.0416 11.0713 14.2516 11.0613C14.4616 11.0513 14.5516 11.2013 14.6216 11.3713C15.3716 13.2313 16.1316 15.0813 16.8816 16.9413C16.9816 17.1913 16.8816 17.3913 16.7316 17.4613C16.5816 17.5313 16.3616 17.4613 16.2616 17.1913C16.0616 16.7213 15.8716 16.2612 15.6916 15.7912C15.6795 15.7356 15.6473 15.6865 15.6012 15.6532C15.555 15.62 15.4981 15.605 15.4416 15.6113L14.2716 15.6213ZM14.2716 12.2813L13.1916 14.9313H15.3516L14.2716 12.2813Z" fill="#FCFCFD"/>
</svg>
