<svg width="24" height="20" viewBox="0 0 24 20" fill="none" xmlns="http://www.w3.org/2000/svg">
<path d="M5.19556 17.2104C5.49556 16.3104 5.77556 15.4104 6.11556 14.5204C6.21893 14.2767 6.26025 14.0113 6.23582 13.7477C6.21139 13.4842 6.12196 13.2309 5.97556 13.0104C5.30147 11.9552 4.96607 10.7193 5.01433 9.46814C5.06259 8.21699 5.4922 7.01045 6.24556 6.01038C6.93747 4.94133 7.94806 4.11701 9.13432 3.65399C10.3206 3.19097 11.6224 3.11276 12.8556 3.43042C14.0903 3.64111 15.2311 4.22441 16.1248 5.10205C17.0186 5.97969 17.6225 7.10967 17.8556 8.34039C18.0981 9.43286 18.0514 10.5697 17.72 11.6386C17.3885 12.7075 16.7839 13.6713 15.9657 14.4349C15.1476 15.1984 14.1444 15.7353 13.0553 15.9923C11.9661 16.2493 10.8287 16.2176 9.75556 15.9004C9.42943 15.7691 9.07564 15.7213 8.72636 15.7615C8.37708 15.8016 8.04337 15.9284 7.75556 16.1304C7.00766 16.5897 6.23664 17.0102 5.44556 17.3904L5.19556 17.2104Z" fill="#FCFCFD"/>
<path d="M2.81463 12.2903L3.00463 13.2303C2.7546 13.2905 2.4919 13.2695 2.25463 13.1703C1.58465 12.9022 1.01131 12.438 0.609797 11.8384C0.208284 11.2388 -0.00266066 10.5318 0.0046258 9.81025C-0.0308977 9.09946 0.138765 8.39346 0.49338 7.77643C0.847995 7.1594 1.3726 6.6574 2.00463 6.33027C2.40076 6.08888 2.72257 5.74284 2.93463 5.33027C4.93463 1.79027 7.85463 -0.159742 11.9346 0.0102584C13.6859 0.0817943 15.3835 0.634957 16.8408 1.60883C18.2981 2.5827 19.4586 3.93958 20.1946 5.53028C20.3629 5.8259 20.6039 6.07369 20.8946 6.25025C21.5375 6.56869 22.0787 7.06046 22.457 7.67005C22.8354 8.27964 23.0358 8.98281 23.0358 9.70026C23.0358 10.4177 22.8354 11.1209 22.457 11.7305C22.0787 12.3401 21.5375 12.8318 20.8946 13.1503C20.6231 13.2951 20.3979 13.5135 20.2446 13.7803C19.589 15.1809 18.6031 16.4014 17.3716 17.3368C16.1401 18.2722 14.6998 18.8945 13.1746 19.1503C12.9026 19.2301 12.6572 19.3822 12.4646 19.5903C12.2468 19.8258 11.9468 19.9686 11.6266 19.9891C11.3064 20.0096 10.9907 19.9062 10.7446 19.7003C10.6287 19.59 10.5365 19.4574 10.4734 19.3104C10.4104 19.1635 10.3779 19.0052 10.3779 18.8453C10.3779 18.6854 10.4104 18.5271 10.4734 18.3801C10.5365 18.2332 10.6287 18.1005 10.7446 17.9903C10.8609 17.8796 10.9994 17.795 11.151 17.7421C11.3025 17.6891 11.4636 17.6691 11.6235 17.6833C11.7834 17.6975 11.9385 17.7455 12.0783 17.8243C12.2182 17.9031 12.3397 18.0108 12.4346 18.1403C12.5299 18.2942 12.6763 18.4096 12.8482 18.4663C13.0201 18.523 13.2065 18.5173 13.3746 18.4503C15.0082 18.1291 16.5154 17.346 17.7171 16.1939C18.9189 15.0417 19.7649 13.5689 20.1546 11.9503C20.646 10.3838 20.6653 8.70722 20.21 7.12983C19.7548 5.55244 18.8452 4.14403 17.5946 3.08027C16.2568 1.89087 14.6017 1.11664 12.8313 0.852055C11.0609 0.587469 9.25172 0.843978 7.62463 1.59028C6.27551 2.19558 5.10959 3.14552 4.24415 4.34449C3.37872 5.54346 2.84429 6.9492 2.69463 8.42029C2.68432 8.54675 2.68432 8.67384 2.69463 8.8003L2.63463 10.3603C2.64466 11.0073 2.70484 11.6526 2.81463 12.2903Z" fill="#FCFCFD"/>
</svg>
