<svg width="32" height="32" viewBox="0 0 32 32" fill="none" xmlns="http://www.w3.org/2000/svg">
<path fill-rule="evenodd" clip-rule="evenodd" d="M8.03033 8.03033C7.22059 8.84007 6.75 10.1156 6.75 12V17C6.75 19.4353 7.24367 20.6541 7.99388 21.3106C8.76886 21.9887 10.0133 22.25 12 22.25H12.5C12.7828 22.25 13.058 22.3383 13.2744 22.4455C13.488 22.5515 13.7297 22.7182 13.9026 22.9535L15.4 24.95C15.6092 25.2289 15.8337 25.31 16 25.31C16.1663 25.31 16.3908 25.2289 16.6 24.95L18.1 22.95L18.1029 22.9462C18.4325 22.5124 18.9521 22.25 19.5 22.25H20C21.8844 22.25 23.1599 21.7794 23.9697 20.9697C24.7794 20.1599 25.25 18.8844 25.25 17V12C25.25 10.1156 24.7794 8.84007 23.9697 8.03033C23.1599 7.22059 21.8844 6.75 20 6.75H12C10.1156 6.75 8.84007 7.22059 8.03033 8.03033ZM6.96967 6.96967C8.15993 5.77941 9.88439 5.25 12 5.25H20C22.1156 5.25 23.8401 5.77941 25.0303 6.96967C26.2206 8.15993 26.75 9.88439 26.75 12V17C26.75 19.1156 26.2206 20.8401 25.0303 22.0303C23.8401 23.2206 22.1156 23.75 20 23.75H19.5C19.4284 23.75 19.3486 23.7871 19.2982 23.8524C19.2978 23.8529 19.2975 23.8534 19.2971 23.8538L17.8 25.85C17.3492 26.4511 16.7037 26.81 16 26.81C15.2963 26.81 14.6508 26.4511 14.2 25.85L12.6988 23.8484C12.6965 23.8462 12.692 23.8422 12.6847 23.8365C12.6666 23.8224 12.6404 23.8054 12.6081 23.7895C12.576 23.7735 12.5453 23.7622 12.5207 23.7556C12.5062 23.7517 12.4977 23.7504 12.4949 23.75H12C9.98674 23.75 8.23114 23.5113 7.00612 22.4394C5.75633 21.3459 5.25 19.5647 5.25 17V12C5.25 9.88439 5.77941 8.15993 6.96967 6.96967Z" fill="#52504A"/>
<path fill-rule="evenodd" clip-rule="evenodd" d="M13.5898 13.5204C13.5898 12.1862 14.6656 11.1104 15.9998 11.1104C17.3341 11.1104 18.4098 12.1862 18.4098 13.5204C18.4098 14.5733 17.7176 15.129 17.2645 15.4386C17.0701 15.5729 16.9448 15.6786 16.8636 15.7874C16.7962 15.8779 16.7498 15.9825 16.7498 16.1504V16.3604C16.7498 16.7746 16.414 17.1104 15.9998 17.1104C15.5856 17.1104 15.2498 16.7746 15.2498 16.3604V16.1504C15.2498 15.0735 15.9585 14.5175 16.4137 14.2032L16.4169 14.201L16.4169 14.201C16.602 14.0746 16.7232 13.9713 16.8009 13.8664C16.866 13.7785 16.9098 13.6781 16.9098 13.5204C16.9098 13.0146 16.5056 12.6104 15.9998 12.6104C15.4941 12.6104 15.0898 13.0146 15.0898 13.5204C15.0898 13.9346 14.7541 14.2704 14.3398 14.2704C13.9256 14.2704 13.5898 13.9346 13.5898 13.5204Z" fill="#52504A"/>
<path fill-rule="evenodd" clip-rule="evenodd" d="M15.2461 18.75C15.2461 18.3358 15.5819 18 15.9961 18H16.0051C16.4193 18 16.7551 18.3358 16.7551 18.75C16.7551 19.1642 16.4193 19.5 16.0051 19.5H15.9961C15.5819 19.5 15.2461 19.1642 15.2461 18.75Z" fill="#52504A"/>
</svg>
