<svg width="20" height="22" viewBox="0 0 20 22" fill="none" xmlns="http://www.w3.org/2000/svg">
<path d="M9.84 0.991577H10.24L11.45 1.14154C12.9875 1.34026 14.4496 1.92512 15.7 2.84155C17.1189 3.80406 18.2596 5.12303 19.0073 6.66595C19.7551 8.20888 20.0837 9.92142 19.96 11.6315C19.9104 13.1054 19.5166 14.5472 18.81 15.8416C17.7971 17.6795 16.2317 19.1521 14.3354 20.051C12.4391 20.9499 10.3081 21.2295 8.24411 20.8501C6.18015 20.4707 4.28784 19.4516 2.83518 17.9371C1.38251 16.4227 0.443106 14.4895 0.150002 12.4116L0 11.2615V10.8416C0 10.7216 0.0599999 10.6116 0.0799999 10.4916C0.18 9.84158 0.220001 9.18157 0.370001 8.55157C0.858631 6.62526 1.91346 4.88959 3.39832 3.56873C4.88317 2.24786 6.72987 1.40242 8.7 1.14154L9.84 0.991577ZM11.59 12.6216C11.59 11.2516 11.59 9.87153 11.59 8.50153C11.59 8.21153 11.5 8.12158 11.2 8.12158C10.0133 8.12158 8.82333 8.12158 7.63 8.12158C7.36 8.12158 7.27 8.21156 7.28 8.47156C7.28 9.47156 7.19 9.29156 8.06 9.28156C8.38 9.28156 8.48 9.35153 8.48 9.69153C8.48 11.9982 8.48 14.3149 8.48 16.6415C8.48 16.9615 8.39 17.0615 8.07 17.0615C7.17 17.0615 7.29 16.9015 7.28 17.8915C7.28 18.1215 7.36 18.2115 7.59 18.2015H12.44C12.69 18.2015 12.78 18.1315 12.78 17.8815C12.78 16.8815 12.89 17.0716 11.97 17.0516C11.7 17.0516 11.6 16.9815 11.61 16.6915C11.6 15.3315 11.59 13.9816 11.59 12.6216ZM10.04 6.90155C10.2514 6.92267 10.4648 6.89898 10.6664 6.83197C10.868 6.76496 11.0532 6.65615 11.2098 6.5127C11.3665 6.36924 11.4911 6.19436 11.5756 5.99945C11.6601 5.80454 11.7025 5.59394 11.7 5.38153C11.7221 5.05494 11.6453 4.72926 11.4797 4.4469C11.3141 4.16454 11.0673 3.93859 10.7715 3.79846C10.4757 3.65833 10.1445 3.61053 9.82113 3.66125C9.49774 3.71198 9.19712 3.85891 8.9584 4.08289C8.71969 4.30686 8.55394 4.59755 8.48274 4.91705C8.41154 5.23656 8.43819 5.57006 8.55921 5.87421C8.68024 6.17835 8.89003 6.43902 9.16128 6.62225C9.43253 6.80549 9.75266 6.90281 10.08 6.90155H10.04Z" fill="#FCFCFD"/>
</svg>
