<svg width="16" height="16" viewBox="0 0 16 16" fill="none" xmlns="http://www.w3.org/2000/svg">
<path d="M11.2129 1.27344H4.78622C3.37289 1.27344 2.21289 2.43344 2.21289 3.84677V13.2401C2.21289 14.4401 3.07289 14.9468 4.12622 14.3668L7.37956 12.5601C7.72622 12.3668 8.28622 12.3668 8.62622 12.5601L11.8796 14.3668C12.9329 14.9534 13.7929 14.4468 13.7929 13.2401V3.84677C13.7862 2.43344 12.6329 1.27344 11.2129 1.27344ZM10.4129 6.0201L7.74622 8.68677C7.64622 8.78677 7.51956 8.83344 7.39289 8.83344C7.26622 8.83344 7.13956 8.78677 7.03956 8.68677L6.03956 7.68677C5.84622 7.49344 5.84622 7.17344 6.03956 6.9801C6.23289 6.78677 6.55289 6.78677 6.74622 6.9801L7.39289 7.62677L9.70622 5.31344C9.89956 5.1201 10.2196 5.1201 10.4129 5.31344C10.6062 5.50677 10.6062 5.82677 10.4129 6.0201Z" fill="#FFBC0F"/>
</svg>
