<svg width="16" height="13" viewBox="0 0 16 13" fill="none" xmlns="http://www.w3.org/2000/svg">
<path d="M14.3607 3.10009C14.3607 3.24606 14.3607 3.39203 14.3607 3.52676C14.3609 5.20094 13.9107 6.84433 13.0572 8.28461C12.2037 9.72489 10.9784 10.909 9.50977 11.7128C8.04116 12.5165 6.38335 12.9104 4.71016 12.8529C3.03697 12.7955 1.41005 12.289 0 11.3864C0.26171 11.4035 0.524254 11.4035 0.785964 11.3864C2.26289 11.3852 3.69721 10.8913 4.86175 9.9829C4.18089 9.97325 3.51993 9.75186 2.97063 9.34944C2.42133 8.94702 2.01096 8.38356 1.79649 7.73729C2.2844 7.84732 2.79069 7.84732 3.2786 7.73729C2.53454 7.58703 1.86533 7.18408 1.38443 6.59677C0.903528 6.00945 0.640523 5.27392 0.64 4.51484C1.09626 4.76362 1.60301 4.90566 2.1221 4.93027C1.42681 4.46434 0.935251 3.75093 0.747507 2.93529C0.559764 2.11965 0.689958 1.26311 1.11158 0.540091C1.93344 1.55022 2.95719 2.37759 4.11727 2.96923C5.27734 3.56087 6.54819 3.90374 7.84842 3.97588C7.80006 3.72793 7.77376 3.47619 7.76983 3.2236C7.78066 2.5778 7.982 1.9496 8.34857 1.41782C8.71515 0.886032 9.23063 0.474372 9.83032 0.234496C10.43 -0.00538108 11.0872 -0.0627826 11.7194 0.0694908C12.3516 0.201764 12.9306 0.51781 13.3839 0.977985C14.1211 0.835932 14.8279 0.566153 15.4723 0.180802C15.2261 0.884376 14.7467 1.48261 14.1137 1.87623C14.7651 1.80781 15.4016 1.6373 16 1.37097C15.5575 2.02811 15.0026 2.60205 14.3607 3.06641V3.10009Z" fill="#1DA1F2"/>
</svg>
