<svg width="32" height="32" viewBox="0 0 32 32" fill="none" xmlns="http://www.w3.org/2000/svg">
<circle cx="16" cy="16" r="16" fill="white"/>
<path d="M16 0C7.164 0 0 7.164 0 16C0 24.836 7.164 32 16 32C24.836 32 32 24.836 32 16C32 7.164 24.836 0 16 0ZM24.088 12.86C24.332 18.2467 20.3147 24.252 13.2027 24.252C11.04 24.252 9.028 23.6173 7.33333 22.5307C9.36533 22.7707 11.3933 22.2053 13.0027 20.9453C11.328 20.9147 9.91333 19.8067 9.424 18.2853C10.0253 18.4 10.6173 18.3667 11.1547 18.22C9.31333 17.8493 8.04133 16.1907 8.08267 14.416C8.6 14.7027 9.18933 14.8747 9.81733 14.8947C8.112 13.7547 7.62933 11.5027 8.632 9.78133C10.52 12.0987 13.3427 13.6227 16.5253 13.7827C15.9667 11.388 17.784 9.08 20.2573 9.08C21.3573 9.08 22.3533 9.54533 23.052 10.2893C23.924 10.1187 24.7453 9.79867 25.484 9.36C25.1973 10.2547 24.5907 11.004 23.8 11.4787C24.5747 11.3853 25.3133 11.18 25.9987 10.8747C25.4867 11.6453 24.8387 12.32 24.088 12.86Z" fill="#55ACEE"/>
</svg>
