<svg width="24" height="24" viewBox="0 0 24 24" fill="none" xmlns="http://www.w3.org/2000/svg">
<path fill-rule="evenodd" clip-rule="evenodd" d="M12.4094 5.15358C12.9697 4.94119 13.575 5.35698 13.575 5.96262V8.25009H7.695C6.82882 8.25009 6.03695 8.57847 5.4375 9.11711V8.88013C5.4375 8.22046 5.84149 7.6356 6.45406 7.40369L12.4094 5.15358ZM5.4375 11.6326V12.3076V13.9394C5.84449 13.7772 6.28752 13.6876 6.75 13.6876C8.71816 13.6876 10.3125 15.2819 10.3125 17.2501C10.3125 17.8558 10.1586 18.4341 9.88266 18.9376H16.305C17.5468 18.9376 18.5625 17.9219 18.5625 16.6801V16.3502H17.6991C16.642 16.3502 15.6159 15.5772 15.5189 14.4353C15.4583 13.7886 15.7045 13.1845 16.1311 12.7652C16.4392 12.4509 16.8391 12.2448 17.279 12.1758C17.3872 12.1588 17.4978 12.1501 17.61 12.1501H18.5625V11.6326C18.5625 10.3908 17.5468 9.37509 16.305 9.37509H14.1419L14.1375 9.37511L14.1331 9.37509H7.695C6.45316 9.37509 5.4375 10.3908 5.4375 11.6326ZM4.3125 12.3076V14.6527C3.61595 15.3022 3.1875 16.2294 3.1875 17.2501C3.1875 17.9165 3.37373 18.5496 3.70386 19.0865C4.31952 20.1185 5.45103 20.8126 6.75 20.8126C7.56845 20.8126 8.32515 20.5385 8.9276 20.0626H16.305C18.1682 20.0626 19.6875 18.5432 19.6875 16.6801V16.2357C20.1543 16.0295 20.4816 15.5672 20.4816 15.0228V13.4777C20.4816 12.9333 20.1543 12.4709 19.6875 12.2647V11.6326C19.6875 9.76944 18.1682 8.25009 16.305 8.25009H14.7V5.96262C14.7 4.57326 13.3103 3.609 12.0106 4.10161L6.05593 6.3515C5.00365 6.74966 4.3125 7.75489 4.3125 8.88013V11.6326V12.3076ZM5.22464 15.3507L5.22549 15.3501L5.22561 15.35C5.64867 15.0127 6.17885 14.8126 6.75 14.8126C8.09684 14.8126 9.1875 15.9033 9.1875 17.2501C9.1875 17.7071 9.05961 18.1376 8.83622 18.4998L8.82912 18.5117C8.70387 18.7264 8.54324 18.9163 8.36103 19.0691C8.35563 19.0736 8.35033 19.0783 8.34513 19.083C7.92242 19.4629 7.3665 19.6876 6.75 19.6876C5.86059 19.6876 5.0883 19.2134 4.66844 18.5075L4.6685 18.5075L4.66378 18.4998C4.44039 18.1376 4.3125 17.7071 4.3125 17.2501C4.3125 16.481 4.66575 15.7942 5.22464 15.3507ZM19.1562 15.2252H19.1376L19.125 15.2251H17.7C17.1382 15.2251 16.6802 14.8146 16.6406 14.3384L16.6406 14.3384L16.64 14.3318C16.6119 14.0372 16.7234 13.7599 16.9229 13.5651L16.933 13.555C17.0697 13.4146 17.2487 13.3197 17.4528 13.2873C17.5034 13.2794 17.5556 13.2752 17.6091 13.2752H19.1562C19.2774 13.2831 19.3566 13.3779 19.3566 13.4777V15.0228C19.3566 15.1226 19.2774 15.2174 19.1562 15.2252ZM8.25 11.4376C7.93934 11.4376 7.6875 11.6894 7.6875 12.0001C7.6875 12.3108 7.93934 12.5626 8.25 12.5626H13.5C13.8107 12.5626 14.0625 12.3108 14.0625 12.0001C14.0625 11.6894 13.8107 11.4376 13.5 11.4376H8.25ZM5.63379 16.6722C5.32313 16.6722 5.07129 16.9241 5.07129 17.2347C5.07129 17.5454 5.32313 17.7972 5.63379 17.7972H7.86879C8.17945 17.7972 8.43129 17.5454 8.43129 17.2347C8.43129 16.9241 8.17945 16.6722 7.86879 16.6722H5.63379Z" fill="black"/>
</svg>
