<svg width="16" height="15" viewBox="0 0 16 15" fill="none" xmlns="http://www.w3.org/2000/svg">
<path fill-rule="evenodd" clip-rule="evenodd" d="M12.5649 12.9203C12.4737 12.9625 12.3744 12.9844 12.2738 12.9844C12.1733 12.9844 12.0739 12.9625 11.9827 12.9203C11.8924 12.8786 11.8122 12.8178 11.7476 12.7423L8.82706 9.52365L8.82074 9.5143C8.78449 9.46062 8.76125 9.39929 8.75285 9.33517C8.74558 9.27968 8.74959 9.22339 8.76455 9.16963C8.76824 9.11116 8.78317 9.05385 8.80863 9.00083C8.83736 8.94104 8.87877 8.88822 8.92994 8.84597C9.03032 8.75871 9.15868 8.7099 9.292 8.70837L9.29382 8.70835L10.1305 8.70836V3.8626L10.1305 3.86159C10.1335 3.41034 10.3156 2.97855 10.6371 2.66049C10.9586 2.34244 11.3934 2.16394 11.8467 2.16395H12.4698C12.9231 2.16394 13.3579 2.34244 13.6794 2.66049C14.001 2.97855 14.183 3.41034 14.186 3.86159L14.186 3.8626L14.186 8.70836H15.2959C15.4292 8.70989 15.5575 8.75871 15.6579 8.84597C15.7091 8.88822 15.7505 8.94104 15.7792 9.00083C15.8084 9.06151 15.8237 9.12782 15.8242 9.19504L15.8242 9.19579C15.8243 9.24804 15.8141 9.29985 15.7941 9.34823C15.7834 9.3743 15.7698 9.3991 15.7539 9.42221V9.487L12.8 12.7423C12.7355 12.8178 12.6553 12.8786 12.5649 12.9203ZM12.2738 12.6692C12.3283 12.6692 12.3821 12.6573 12.4316 12.6345C12.481 12.6116 12.5248 12.5783 12.5599 12.5368L12.5633 12.5328L15.4373 9.36569V9.30118L15.4834 9.25505C15.4911 9.24737 15.4972 9.23824 15.5014 9.22821C15.5055 9.21832 15.5076 9.20769 15.5076 9.19691C15.5074 9.17609 15.5026 9.15559 15.4936 9.13684C15.4846 9.11798 15.4714 9.10131 15.4551 9.08802L15.4506 9.08432C15.407 9.04602 15.3511 9.02444 15.293 9.02358H13.8694L13.8694 3.86314C13.8669 3.49531 13.7184 3.14337 13.4563 2.88411C13.1941 2.62473 12.8395 2.47916 12.4698 2.47917H11.8467C11.477 2.47916 11.1224 2.62473 10.8602 2.88411C10.5982 3.14336 10.4497 3.49527 10.4471 3.86308V9.02358H9.29485C9.23674 9.02444 9.18083 9.04594 9.13723 9.08424L9.13283 9.0881C9.11652 9.10139 9.10331 9.11798 9.09425 9.13684C9.08518 9.15572 9.0804 9.17636 9.08025 9.19732L9.08006 9.22319L9.07157 9.24765C9.06637 9.26266 9.06473 9.27866 9.06679 9.2944C9.06848 9.30728 9.0726 9.31968 9.0789 9.33097L11.9878 12.5368C12.023 12.5782 12.0667 12.6116 12.1161 12.6345C12.1655 12.6573 12.2194 12.6692 12.2738 12.6692Z" fill="#FFEFC5"/>
<path fill-rule="evenodd" clip-rule="evenodd" d="M11.8185 2.46028C11.6205 2.46096 11.4245 2.49977 11.2412 2.57466C11.0532 2.65148 10.8822 2.76474 10.7381 2.9079C10.594 3.05107 10.4797 3.22129 10.4016 3.40883C10.3236 3.59636 10.2834 3.7975 10.2834 4.00062V9.00162H9.16321C9.07159 8.99963 8.98249 9.0317 8.91316 9.09163C8.87772 9.1206 8.84938 9.15728 8.83032 9.19889C8.81125 9.2405 8.80195 9.28591 8.80313 9.33167C8.7941 9.37045 8.79486 9.41086 8.80534 9.44928C8.81581 9.48769 8.83568 9.52289 8.86314 9.55171L9.6636 10.4377C8.93079 10.7992 8.10587 11.0022 7.23352 11.0022C4.19535 11.0022 1.73242 8.53928 1.73242 5.50111C1.73242 2.46294 4.19535 0 7.23352 0C9.14742 0 10.833 0.977398 11.8185 2.46028ZM6.96465 7.65174V6.05141C6.53023 5.96152 6.13493 5.73765 5.83443 5.4113C5.59214 5.11585 5.46432 4.74303 5.47436 4.36107C5.47332 3.98847 5.61673 3.62997 5.87444 3.36087C6.16656 3.07095 6.55391 2.89682 6.96465 2.87079V2.49071H7.53477V2.87079C7.90341 2.89716 8.25392 3.04087 8.53497 3.28087C8.79206 3.52221 8.96106 3.8426 9.01507 4.19106L8.01487 4.32106C7.99507 4.1877 7.94148 4.06166 7.8592 3.95486C7.77691 3.84807 7.66867 3.7641 7.54477 3.71095V5.19126C8.0257 5.28144 8.47228 5.50299 8.83503 5.83137C9.06275 6.11425 9.1832 6.4685 9.1751 6.83157C9.17101 7.26582 8.99895 7.68163 8.695 7.9918C8.3781 8.32376 7.95177 8.5298 7.49477 8.5719V9.28207H6.92465V8.59193C6.51152 8.55216 6.12219 8.38028 5.81443 8.10181C5.5122 7.78464 5.32245 7.37706 5.27432 6.9416L6.27452 6.83157C6.30279 7.01239 6.3738 7.18386 6.48166 7.33173C6.58951 7.47959 6.73109 7.59959 6.89464 7.68174L6.96465 7.65174ZM6.96465 3.65094C6.81452 3.69134 6.68347 3.78344 6.59459 3.911C6.50453 4.02497 6.45523 4.16582 6.45456 4.31108C6.45362 4.44579 6.49958 4.57663 6.58458 4.68114C6.68066 4.81016 6.81297 4.90765 6.96465 4.9612V3.65094ZM7.53477 7.65174C7.72007 7.62321 7.88975 7.5313 8.01487 7.39167C8.1339 7.25254 8.19794 7.07466 8.1949 6.89158C8.19902 6.73168 8.1458 6.57557 8.04487 6.45149C7.90635 6.30964 7.7288 6.21216 7.53477 6.17143V7.65174Z" fill="#FFEFC5"/>
<path fill-rule="evenodd" clip-rule="evenodd" d="M14.2945 10.8525H15.7572V14.2832H0.244141V10.8525H1.64441C2.34194 11.6508 3.20219 12.2906 4.1674 12.729C5.13261 13.1674 6.18043 13.3942 7.24053 13.3942C8.30062 13.3942 9.34845 13.1674 10.3137 12.729C10.644 12.579 10.962 12.4054 11.2655 12.2099L11.7648 12.7625C11.8677 12.8763 12.0116 12.9446 12.1648 12.9526C12.3206 12.9431 12.467 12.8752 12.5749 12.7625L14.2945 10.8525Z" fill="#FFEFC5"/>
<path fill-rule="evenodd" clip-rule="evenodd" d="M0 10.6089H1.75431L1.82706 10.6922C2.50174 11.4643 3.33381 12.0831 4.2674 12.5072C5.20098 12.9312 6.21448 13.1506 7.23985 13.1506C8.26521 13.1506 9.27871 12.9312 10.2123 12.5072C10.5318 12.362 10.8394 12.1941 11.1329 12.005L11.3068 11.893L11.9446 12.599C12.0013 12.6616 12.0794 12.7005 12.1632 12.7083C12.2515 12.6996 12.334 12.66 12.3961 12.5963L14.1854 10.6089H16V14.5265H0V10.6089ZM0.486919 11.0958V14.0396H15.5131V11.0958H14.4022L12.7502 12.9308C12.5999 13.0877 12.3959 13.1822 12.179 13.1954L12.1653 13.1962L12.1516 13.1955C11.934 13.1842 11.7298 13.0872 11.5836 12.9257L11.2209 12.5242C10.9611 12.6819 10.6916 12.8243 10.4137 12.9505C9.41683 13.4032 8.33467 13.6375 7.23985 13.6375C6.14502 13.6375 5.06287 13.4032 4.06604 12.9505C3.103 12.5131 2.24113 11.8815 1.53423 11.0958H0.486919Z" fill="#FFEFC5"/>
</svg>
